<?xml version="1.0" encoding="utf-8"?>
<!-- Generator: Adobe Illustrator 16.0.0, SVG Export Plug-In . SVG Version: 6.00 Build 0)  -->
<!DOCTYPE svg PUBLIC "-//W3C//DTD SVG 1.1//EN" "http://www.w3.org/Graphics/SVG/1.1/DTD/svg11.dtd">
<svg version="1.1" id="Calque_1" xmlns="http://www.w3.org/2000/svg" xmlns:xlink="http://www.w3.org/1999/xlink" x="0px" y="0px"
	 width="450.691px" height="229.586px" viewBox="0 0 450.691 229.586" enable-background="new 0 0 450.691 229.586"
	 xml:space="preserve">
<path d="M34.212,196.82h-1.196v-55.805h1.278l23.117,34.2l23.197-34.2h1.274v55.805h-1.196v-53.969L57.968,176.65h-1.035
	l-22.721-33.799V196.82z"/>
<path d="M123.451,178.086h-28.22L87.66,196.82h-1.356l22.399-56.601h1.355l22.399,56.601h-1.354L123.451,178.086z M95.79,176.889
	h27.182l-13.63-34.994L95.79,176.889z"/>
<path d="M137.792,196.82h-1.196v-55.165v-0.64h0.639h18.654c22.321,0,22.321,32.606,0,32.606h-9.009l25.671,23.196h-1.835
	l-25.669-23.196v-1.196h10.843c20.728,0,20.728-30.133,0-30.133h-18.096v54.527H137.792z"/>
<path d="M179.795,141.098v55.724h-1.196v-55.724H179.795z M181.629,168.279l27.743-27.182h1.594l-28.222,27.741l31.647,27.979
	h-1.833l-30.931-27.262L181.629,168.279L181.629,168.279z"/>
<path d="M217.893,195.624h29.656v1.196h-30.771h-0.161v-55.724h30.771v1.196h-29.496v25.984h28.857v1.279h-28.857L217.893,195.624
	L217.893,195.624z"/>
<path d="M269.626,197.059v-54.765H250.33v-1.276h39.777v1.276h-19.289v54.765H269.626z"/>
<path d="M317.209,142.213h-11.88v53.411h11.88v1.196c-8.293,0-16.662,0-24.952,0v-1.196h11.88v-53.411h-11.88v-1.115
	c8.29,0,16.659,0,24.952,0V142.213z"/>
<path d="M322.063,196.82v-55.883l1.114,0.078l37.068,53.571v-53.571h1.197v55.805h-1.274l-36.832-53.252v53.252H322.063z"/>
<path d="M416.354,157.76c-3.827-9.967-13.392-15.945-23.675-15.945c-7.256,0-13.714,3.11-18.493,8.054
	c-4.626,4.942-7.573,11.638-7.573,19.13c0,7.494,2.947,14.271,7.573,19.133c4.779,5.023,11.237,8.053,18.493,8.053
	c11.16,0,23.036-8.849,25.112-20.646h-24.634v-1.278h26.229c-0.16,1.914-0.641,3.749-1.356,5.582
	c-3.667,10.204-15.388,17.698-25.351,17.698c-7.575,0-14.429-3.27-19.374-8.45c-4.86-5.102-7.971-12.198-7.971-20.091
	c0-7.813,3.109-14.905,7.971-20.088c4.945-5.182,11.799-8.369,19.374-8.369c11.003,0,21.362,6.615,25.03,17.22L416.354,157.76
	L416.354,157.76z"/>
</svg>
