<?xml version="1.0" encoding="utf-8"?>
<!-- Generator: Adobe Illustrator 16.0.0, SVG Export Plug-In . SVG Version: 6.00 Build 0)  -->
<!DOCTYPE svg PUBLIC "-//W3C//DTD SVG 1.1//EN" "http://www.w3.org/Graphics/SVG/1.1/DTD/svg11.dtd">
<svg version="1.1" id="Calque_1" xmlns="http://www.w3.org/2000/svg" xmlns:xlink="http://www.w3.org/1999/xlink" x="0px" y="0px"
	 width="450.692px" height="229.586px" viewBox="0 0 450.692 229.586" enable-background="new 0 0 450.692 229.586"
	 xml:space="preserve">
<path d="M34.212,196.82h-1.196v-55.804h1.278l23.117,34.2l23.198-34.2h1.274v55.804h-1.196v-53.969l-22.719,33.8h-1.035
	l-22.721-33.8V196.82z"/>
<path d="M123.451,178.086H95.232L87.66,196.82h-1.356l22.399-56.6h1.356l22.399,56.6h-1.353L123.451,178.086z M95.79,176.889h27.182
	l-13.63-34.995L95.79,176.889z"/>
<path d="M137.792,196.82h-1.196v-55.165v-0.639h0.639h18.654c22.321,0,22.321,32.606,0,32.606h-9.009l25.671,23.197h-1.835
	l-25.669-23.197v-1.196h10.843c20.727,0,20.727-30.133,0-30.133h-18.096V196.82z"/>
<path d="M179.795,141.098v55.723h-1.196v-55.723H179.795z M181.629,168.279l27.743-27.182h1.594l-28.222,27.742l31.648,27.98h-1.833
	l-30.931-27.263V168.279z"/>
<path d="M217.893,195.624h29.656v1.196h-30.771h-0.162v-55.723h30.772v1.196h-29.496v25.985h28.857v1.278h-28.857V195.624z"/>
<path d="M269.626,197.059v-54.765h-19.296v-1.277h39.778v1.277h-19.289v54.765H269.626z"/>
<path d="M317.209,142.213H305.33v53.411h11.879v1.196c-8.293,0-16.662,0-24.952,0v-1.196h11.88v-53.411h-11.88v-1.115
	c8.29,0,16.659,0,24.952,0V142.213z"/>
<path d="M322.063,196.82v-55.883l1.114,0.079l37.069,53.571v-53.571h1.197v55.804h-1.275l-36.832-53.252v53.252H322.063z"/>
<path d="M416.354,157.76c-3.827-9.967-13.392-15.945-23.675-15.945c-7.256,0-13.714,3.11-18.493,8.053
	c-4.626,4.942-7.573,11.638-7.573,19.13c0,7.494,2.947,14.271,7.573,19.133c4.779,5.023,11.237,8.052,18.493,8.052
	c11.16,0,23.036-8.848,25.112-20.646h-24.633v-1.278h26.228c-0.16,1.914-0.64,3.749-1.356,5.582
	c-3.667,10.204-15.388,17.698-25.351,17.698c-7.575,0-14.428-3.27-19.374-8.45c-4.86-5.102-7.97-12.199-7.97-20.091
	c0-7.812,3.109-14.905,7.97-20.088c4.946-5.181,11.799-8.369,19.374-8.369c11.003,0,21.363,6.615,25.031,17.22H416.354z"/>
<path fill="#654998" d="M76.277,78.079V47.071h41.826v84.132c-77.52,0-6.612,0-84.131,0V45.028L76.277,78.079z"/>
<path fill="#7BC9D2" d="M124.583,46.831c86.054,0-1.922,0,84.131,0v43.988c0,23.196-18.869,42.067-42.063,42.067
	c-23.197,0-42.067-18.871-42.067-42.067V46.831z"/>
<path fill="#FCBF0A" d="M273.729,131.321h-42.065V89.257h-17.426V47.071h75.837v42.186h-16.345V131.321z"/>
<path fill="#03A5D5" d="M370.834,81.324c0,10.938-5.049,20.553-13.102,26.802l12.381,23.196c-24.639,0-49.278,0-73.917,0
	c0-93.264,0-19.23,0-84.25h40.384C355.45,47.071,370.834,62.334,370.834,81.324z"/>
<polygon opacity="0.6" fill="#B99BC9" points="121.725,125.333 121.725,39.311 77.646,39.311 77.646,71.374 33.056,39.28 
	33.056,40.424 "/>
<path opacity="0.6" fill="#DFEEF9" d="M208.187,39.28c-31.505,0-38.036,0-39.149,0c0.012,0-0.039,0-0.209,0
	c-1.167,0-8.272,0-43.896,0v46.011c0,10.412,3.645,19.987,9.712,27.529L208.187,39.28z"/>
<polygon opacity="0.6" fill="#85C06C" points="232.121,39.217 260.458,127.341 276.118,127.341 276.118,83.341 293.213,83.341 
	293.213,39.217 "/>
<path opacity="0.7" fill="#015D9F" d="M372.787,75.214c0-19.863-16.092-35.829-35.827-35.829h-17.575v88.125
	c17.549,0,35.101,0,52.648,0l-12.951-24.264C367.506,96.711,372.787,86.654,372.787,75.214z"/>
<path fill="#E9408F" d="M419.382,131.204h-43.749V47.071l43.749,33.55V131.204z"/>
<polygon fill="#AF9982" points="435.421,58.6 435.513,58.473 423.861,50.149 415.538,61.801 415.666,61.893 "/>
<polygon opacity="0.6" fill="#FCBF0A" points="411.461,48.035 411.551,47.907 423.202,56.231 414.88,67.884 414.753,67.792 "/>
<polygon fill="#7DCAD3" points="411.001,44.4 411.092,44.273 399.441,35.95 391.115,47.602 391.241,47.693 "/>
<polygon opacity="0.6" fill="#E83187" points="395.232,26.088 395.323,25.961 406.975,34.285 398.652,45.938 398.524,45.846 "/>
<polygon fill="#A06C92" points="450.572,28.143 450.692,27.916 429.773,16.908 418.767,37.829 418.994,37.949 "/>
<polygon opacity="0.6" fill="#E94A38" points="416.034,6.25 416.151,6.023 437.071,17.03 426.068,37.949 425.838,37.829 "/>
<polygon fill="#E83187" points="395.163,66.611 395.316,66.592 393.603,52.376 379.386,54.093 379.401,54.249 "/>
<polygon fill="#E83187" points="407.115,57.388 407.039,57.25 394.469,64.11 401.328,76.68 401.465,76.605 "/>
<polygon fill="#E83187" points="403.242,85.805 403.316,85.942 415.822,78.969 408.849,66.461 408.712,66.537 "/>
<g>
	<path fill="#E71D73" d="M32.963,219.867V205.59h1.66v14.277H32.963z"/>
	<path fill="#E71D73" d="M45.719,219.867v-6.924c0-0.872-0.199-1.523-0.596-1.953s-1.019-0.645-1.865-0.645
		c-1.12,0-1.94,0.303-2.461,0.908s-0.781,1.604-0.781,2.998v5.615h-1.621v-10.703h1.318l0.264,1.465h0.078
		c0.332-0.527,0.797-0.936,1.396-1.226s1.266-0.435,2.002-0.435c1.289,0,2.259,0.311,2.91,0.933s0.977,1.616,0.977,2.983v6.982
		H45.719z"/>
	<path fill="#E71D73" d="M58.095,219.867v-6.924c0-0.872-0.199-1.523-0.596-1.953s-1.019-0.645-1.865-0.645
		c-1.12,0-1.94,0.303-2.461,0.908s-0.781,1.604-0.781,2.998v5.615h-1.621v-10.703h1.318l0.264,1.465h0.078
		c0.332-0.527,0.797-0.936,1.396-1.226s1.266-0.435,2.002-0.435c1.289,0,2.259,0.311,2.91,0.933s0.977,1.616,0.977,2.983v6.982
		H58.095z"/>
	<path fill="#E71D73" d="M72.384,214.506c0,1.745-0.439,3.107-1.318,4.087s-2.093,1.47-3.643,1.47c-0.957,0-1.807-0.225-2.549-0.674
		s-1.315-1.094-1.719-1.934s-0.605-1.823-0.605-2.949c0-1.745,0.436-3.104,1.309-4.077s2.083-1.46,3.633-1.46
		c1.498,0,2.687,0.498,3.569,1.494S72.384,212.807,72.384,214.506z M64.229,214.506c0,1.367,0.273,2.409,0.82,3.125
		s1.351,1.074,2.412,1.074s1.867-0.356,2.417-1.069s0.825-1.756,0.825-3.13c0-1.36-0.275-2.395-0.825-3.101s-1.362-1.06-2.437-1.06
		c-1.061,0-1.862,0.349-2.402,1.045S64.229,213.126,64.229,214.506z"/>
	<path fill="#E71D73" d="M77.669,219.867l-4.063-10.703h1.738l2.305,6.348c0.521,1.484,0.827,2.448,0.918,2.891h0.078
		c0.072-0.345,0.298-1.06,0.679-2.144s1.235-3.449,2.563-7.095h1.738l-4.063,10.703H77.669z"/>
	<path fill="#E71D73" d="M92.027,219.867l-0.322-1.523h-0.078c-0.534,0.671-1.066,1.125-1.597,1.362s-1.193,0.356-1.987,0.356
		c-1.061,0-1.893-0.273-2.495-0.82s-0.903-1.325-0.903-2.334c0-2.161,1.729-3.294,5.186-3.398l1.816-0.059v-0.664
		c0-0.84-0.181-1.46-0.542-1.86s-0.939-0.601-1.733-0.601c-0.892,0-1.901,0.273-3.027,0.82l-0.498-1.24
		c0.527-0.286,1.105-0.511,1.733-0.674s1.258-0.244,1.89-0.244c1.276,0,2.222,0.283,2.837,0.85s0.923,1.475,0.923,2.725v7.305
		H92.027z M88.365,218.725c1.009,0,1.802-0.276,2.378-0.83s0.864-1.328,0.864-2.324v-0.967l-1.621,0.068
		c-1.289,0.046-2.218,0.246-2.788,0.601s-0.854,0.906-0.854,1.655c0,0.586,0.177,1.032,0.532,1.338S87.727,218.725,88.365,218.725z"
		/>
	<path fill="#E71D73" d="M100.125,218.725c0.287,0,0.563-0.021,0.83-0.063s0.479-0.086,0.635-0.132v1.24
		c-0.176,0.085-0.435,0.154-0.776,0.21s-0.649,0.083-0.923,0.083c-2.07,0-3.105-1.091-3.105-3.271v-6.367h-1.533v-0.781l1.533-0.674
		l0.684-2.285h0.938v2.48h3.105v1.26h-3.105v6.299c0,0.645,0.153,1.14,0.459,1.484S99.592,218.725,100.125,218.725z"/>
	<path fill="#E71D73" d="M103.692,206.264c0-0.371,0.091-0.643,0.273-0.815s0.41-0.259,0.684-0.259c0.26,0,0.485,0.088,0.674,0.264
		s0.283,0.446,0.283,0.811s-0.094,0.637-0.283,0.815s-0.414,0.269-0.674,0.269c-0.273,0-0.501-0.09-0.684-0.269
		S103.692,206.628,103.692,206.264z M105.45,219.867h-1.621v-10.703h1.621V219.867z"/>
	<path fill="#E71D73" d="M118.226,214.506c0,1.745-0.439,3.107-1.318,4.087s-2.093,1.47-3.643,1.47
		c-0.957,0-1.807-0.225-2.549-0.674s-1.315-1.094-1.719-1.934s-0.605-1.823-0.605-2.949c0-1.745,0.436-3.104,1.309-4.077
		s2.083-1.46,3.633-1.46c1.498,0,2.687,0.498,3.569,1.494S118.226,212.807,118.226,214.506z M110.071,214.506
		c0,1.367,0.273,2.409,0.82,3.125s1.351,1.074,2.412,1.074s1.867-0.356,2.417-1.069s0.825-1.756,0.825-3.13
		c0-1.36-0.275-2.395-0.825-3.101s-1.362-1.06-2.437-1.06c-1.061,0-1.862,0.349-2.402,1.045S110.071,213.126,110.071,214.506z"/>
	<path fill="#E71D73" d="M128.492,219.867v-6.924c0-0.872-0.199-1.523-0.596-1.953s-1.019-0.645-1.865-0.645
		c-1.12,0-1.94,0.303-2.461,0.908s-0.781,1.604-0.781,2.998v5.615h-1.621v-10.703h1.318l0.264,1.465h0.078
		c0.332-0.527,0.797-0.936,1.396-1.226s1.266-0.435,2.002-0.435c1.289,0,2.259,0.311,2.91,0.933s0.977,1.616,0.977,2.983v6.982
		H128.492z"/>
	<path fill="#E71D73" d="M148.057,219.867l-1.777-4.541h-5.723l-1.758,4.541h-1.68l5.645-14.336h1.396l5.615,14.336H148.057z
		 M145.762,213.832l-1.66-4.424c-0.215-0.56-0.436-1.247-0.664-2.061c-0.143,0.625-0.348,1.312-0.615,2.061l-1.68,4.424H145.762z"/>
	<path fill="#E71D73" d="M153.216,219.867h-1.621v-15.195h1.621V219.867z"/>
	<path fill="#E71D73" d="M156.616,206.264c0-0.371,0.091-0.643,0.273-0.815s0.41-0.259,0.684-0.259c0.26,0,0.485,0.088,0.674,0.264
		s0.283,0.446,0.283,0.811s-0.094,0.637-0.283,0.815s-0.414,0.269-0.674,0.269c-0.273,0-0.501-0.09-0.684-0.269
		S156.616,206.628,156.616,206.264z M158.374,219.867h-1.621v-10.703h1.621V219.867z"/>
	<path fill="#E71D73" d="M175.554,219.867v-6.963c0-0.853-0.182-1.492-0.547-1.919s-0.931-0.64-1.699-0.64
		c-1.009,0-1.754,0.29-2.236,0.869s-0.723,1.472-0.723,2.676v5.977h-1.621v-6.963c0-0.853-0.182-1.492-0.547-1.919
		s-0.934-0.64-1.709-0.64c-1.016,0-1.759,0.305-2.231,0.913s-0.708,1.606-0.708,2.993v5.615h-1.621v-10.703h1.318l0.264,1.465h0.078
		c0.306-0.521,0.737-0.928,1.294-1.221s1.18-0.439,1.87-0.439c1.673,0,2.767,0.605,3.281,1.816h0.078
		c0.319-0.56,0.781-1.003,1.387-1.328s1.295-0.488,2.07-0.488c1.211,0,2.118,0.311,2.72,0.933s0.903,1.616,0.903,2.983v6.982
		H175.554z"/>
	<path fill="#E71D73" d="M185.137,220.063c-1.582,0-2.831-0.481-3.745-1.445s-1.372-2.302-1.372-4.014
		c0-1.726,0.425-3.096,1.274-4.111s1.991-1.523,3.423-1.523c1.341,0,2.402,0.441,3.184,1.323s1.172,2.046,1.172,3.491v1.025h-7.373
		c0.033,1.257,0.35,2.21,0.952,2.861s1.45,0.977,2.544,0.977c1.152,0,2.292-0.241,3.418-0.723v1.445
		c-0.573,0.247-1.115,0.425-1.626,0.532S185.859,220.063,185.137,220.063z M184.697,210.326c-0.859,0-1.544,0.28-2.056,0.84
		s-0.812,1.335-0.903,2.324h5.596c0-1.022-0.228-1.805-0.684-2.349S185.543,210.326,184.697,210.326z"/>
	<path fill="#E71D73" d="M199.26,219.867v-6.924c0-0.872-0.199-1.523-0.596-1.953s-1.019-0.645-1.865-0.645
		c-1.12,0-1.94,0.303-2.461,0.908s-0.781,1.604-0.781,2.998v5.615h-1.621v-10.703h1.318l0.264,1.465h0.078
		c0.332-0.527,0.797-0.936,1.396-1.226s1.266-0.435,2.002-0.435c1.289,0,2.259,0.311,2.91,0.933s0.977,1.616,0.977,2.983v6.982
		H199.26z"/>
	<path fill="#E71D73" d="M207.769,218.725c0.287,0,0.563-0.021,0.83-0.063s0.479-0.086,0.635-0.132v1.24
		c-0.176,0.085-0.435,0.154-0.776,0.21s-0.649,0.083-0.923,0.083c-2.07,0-3.105-1.091-3.105-3.271v-6.367h-1.533v-0.781l1.533-0.674
		l0.684-2.285h0.938v2.48h3.105v1.26h-3.105v6.299c0,0.645,0.153,1.14,0.459,1.484S207.235,218.725,207.769,218.725z"/>
	<path fill="#E71D73" d="M218.054,219.867l-0.322-1.523h-0.078c-0.534,0.671-1.066,1.125-1.597,1.362s-1.193,0.356-1.987,0.356
		c-1.061,0-1.893-0.273-2.495-0.82s-0.903-1.325-0.903-2.334c0-2.161,1.729-3.294,5.186-3.398l1.816-0.059v-0.664
		c0-0.84-0.181-1.46-0.542-1.86s-0.939-0.601-1.733-0.601c-0.892,0-1.901,0.273-3.027,0.82l-0.498-1.24
		c0.527-0.286,1.105-0.511,1.733-0.674s1.258-0.244,1.89-0.244c1.276,0,2.222,0.283,2.837,0.85s0.923,1.475,0.923,2.725v7.305
		H218.054z M214.392,218.725c1.009,0,1.802-0.276,2.378-0.83s0.864-1.328,0.864-2.324v-0.967l-1.621,0.068
		c-1.289,0.046-2.218,0.246-2.788,0.601s-0.854,0.906-0.854,1.655c0,0.586,0.177,1.032,0.532,1.338S213.753,218.725,214.392,218.725
		z"/>
	<path fill="#E71D73" d="M222.558,206.264c0-0.371,0.091-0.643,0.273-0.815s0.41-0.259,0.684-0.259c0.26,0,0.485,0.088,0.674,0.264
		s0.283,0.446,0.283,0.811s-0.094,0.637-0.283,0.815s-0.414,0.269-0.674,0.269c-0.273,0-0.501-0.09-0.684-0.269
		S222.558,206.628,222.558,206.264z M224.316,219.867h-1.621v-10.703h1.621V219.867z"/>
	<path fill="#E71D73" d="M232.736,208.969c0.475,0,0.902,0.039,1.279,0.117l-0.225,1.504c-0.443-0.098-0.833-0.146-1.172-0.146
		c-0.866,0-1.606,0.352-2.222,1.055s-0.923,1.579-0.923,2.627v5.742h-1.621v-10.703h1.338l0.186,1.982h0.078
		c0.397-0.696,0.875-1.233,1.436-1.611S232.066,208.969,232.736,208.969z"/>
	<path fill="#E71D73" d="M240.639,220.063c-1.582,0-2.831-0.481-3.745-1.445s-1.372-2.302-1.372-4.014
		c0-1.726,0.425-3.096,1.274-4.111s1.991-1.523,3.423-1.523c1.341,0,2.402,0.441,3.184,1.323s1.172,2.046,1.172,3.491v1.025h-7.373
		c0.033,1.257,0.35,2.21,0.952,2.861s1.45,0.977,2.544,0.977c1.152,0,2.292-0.241,3.418-0.723v1.445
		c-0.573,0.247-1.115,0.425-1.626,0.532S241.362,220.063,240.639,220.063z M240.2,210.326c-0.859,0-1.544,0.28-2.056,0.84
		s-0.812,1.335-0.903,2.324h5.596c0-1.022-0.228-1.805-0.684-2.349S241.046,210.326,240.2,210.326z"/>
	<path fill="#E71D73" d="M252.118,216.166c0-0.847,0.226-1.595,0.679-2.246s1.265-1.309,2.437-1.973
		c-0.553-0.618-0.929-1.087-1.128-1.406s-0.356-0.651-0.474-0.996s-0.176-0.703-0.176-1.074c0-0.977,0.319-1.738,0.957-2.285
		s1.527-0.82,2.666-0.82c1.055,0,1.885,0.271,2.49,0.815s0.908,1.301,0.908,2.271c0,0.696-0.221,1.34-0.664,1.929
		s-1.175,1.187-2.197,1.792l3.975,3.818c0.365-0.403,0.656-0.877,0.874-1.421s0.402-1.138,0.552-1.782h1.641
		c-0.443,1.862-1.11,3.274-2.002,4.238l2.92,2.842h-2.236l-1.807-1.738c-0.768,0.69-1.549,1.185-2.344,1.484
		s-1.68,0.449-2.656,0.449c-1.4,0-2.485-0.345-3.257-1.035S252.118,217.384,252.118,216.166z M256.571,218.607
		c1.569,0,2.871-0.501,3.906-1.504l-4.268-4.141c-0.723,0.442-1.234,0.809-1.533,1.099s-0.521,0.601-0.664,0.933
		s-0.215,0.71-0.215,1.133c0,0.762,0.252,1.365,0.757,1.812S255.731,218.607,256.571,218.607z M255.058,208.432
		c0,0.449,0.117,0.877,0.352,1.284s0.635,0.896,1.201,1.47c0.84-0.488,1.424-0.939,1.753-1.353s0.493-0.891,0.493-1.431
		c0-0.501-0.167-0.91-0.503-1.226s-0.783-0.474-1.343-0.474c-0.58,0-1.05,0.156-1.411,0.469S255.058,207.904,255.058,208.432z"/>
	<path fill="#E71D73" d="M279.086,206.869c-1.569,0-2.808,0.522-3.716,1.567s-1.362,2.476-1.362,4.292
		c0,1.868,0.438,3.313,1.313,4.331s2.124,1.528,3.745,1.528c0.996,0,2.132-0.179,3.408-0.537v1.455
		c-0.99,0.371-2.21,0.557-3.662,0.557c-2.103,0-3.726-0.638-4.868-1.914s-1.714-3.089-1.714-5.439c0-1.472,0.275-2.761,0.825-3.867
		s1.344-1.96,2.383-2.559s2.261-0.898,3.667-0.898c1.498,0,2.806,0.273,3.926,0.82l-0.703,1.426
		C281.248,207.123,280.167,206.869,279.086,206.869z"/>
	<path fill="#E71D73" d="M294.684,214.506c0,1.745-0.439,3.107-1.318,4.087s-2.093,1.47-3.643,1.47
		c-0.957,0-1.807-0.225-2.549-0.674s-1.315-1.094-1.719-1.934s-0.605-1.823-0.605-2.949c0-1.745,0.436-3.104,1.309-4.077
		s2.083-1.46,3.633-1.46c1.498,0,2.687,0.498,3.569,1.494S294.684,212.807,294.684,214.506z M286.53,214.506
		c0,1.367,0.273,2.409,0.82,3.125s1.351,1.074,2.412,1.074s1.867-0.356,2.417-1.069s0.825-1.756,0.825-3.13
		c0-1.36-0.275-2.395-0.825-3.101s-1.362-1.06-2.437-1.06c-1.061,0-1.862,0.349-2.402,1.045S286.53,213.126,286.53,214.506z"/>
	<path fill="#E71D73" d="M311.269,219.867v-6.963c0-0.853-0.182-1.492-0.547-1.919s-0.931-0.64-1.699-0.64
		c-1.009,0-1.754,0.29-2.236,0.869s-0.723,1.472-0.723,2.676v5.977h-1.621v-6.963c0-0.853-0.182-1.492-0.547-1.919
		s-0.934-0.64-1.709-0.64c-1.016,0-1.759,0.305-2.231,0.913s-0.708,1.606-0.708,2.993v5.615h-1.621v-10.703h1.318l0.264,1.465h0.078
		c0.306-0.521,0.737-0.928,1.294-1.221s1.18-0.439,1.87-0.439c1.673,0,2.767,0.605,3.281,1.816h0.078
		c0.319-0.56,0.781-1.003,1.387-1.328s1.295-0.488,2.07-0.488c1.211,0,2.118,0.311,2.72,0.933c0.602,0.622,0.903,1.616,0.903,2.983
		v6.982H311.269z"/>
	<path fill="#E71D73" d="M329.972,219.867v-6.963c0-0.853-0.183-1.492-0.547-1.919s-0.931-0.64-1.699-0.64
		c-1.009,0-1.755,0.29-2.236,0.869s-0.723,1.472-0.723,2.676v5.977h-1.621v-6.963c0-0.853-0.183-1.492-0.547-1.919
		s-0.935-0.64-1.709-0.64c-1.016,0-1.76,0.305-2.231,0.913s-0.708,1.606-0.708,2.993v5.615h-1.621v-10.703h1.318l0.264,1.465h0.078
		c0.306-0.521,0.737-0.928,1.294-1.221s1.18-0.439,1.87-0.439c1.673,0,2.767,0.605,3.281,1.816h0.078
		c0.319-0.56,0.781-1.003,1.387-1.328s1.296-0.488,2.07-0.488c1.211,0,2.117,0.311,2.72,0.933s0.903,1.616,0.903,2.983v6.982
		H329.972z"/>
	<path fill="#E71D73" d="M336.557,209.164v6.943c0,0.872,0.198,1.523,0.596,1.953s1.019,0.645,1.865,0.645
		c1.12,0,1.938-0.306,2.456-0.918s0.776-1.611,0.776-2.998v-5.625h1.621v10.703h-1.338l-0.234-1.436h-0.088
		c-0.332,0.527-0.793,0.931-1.382,1.211s-1.262,0.42-2.017,0.42c-1.302,0-2.277-0.31-2.925-0.928s-0.972-1.608-0.972-2.969v-7.002
		H336.557z"/>
	<path fill="#E71D73" d="M354.732,219.867v-6.924c0-0.872-0.198-1.523-0.596-1.953s-1.019-0.645-1.865-0.645
		c-1.12,0-1.94,0.303-2.461,0.908s-0.781,1.604-0.781,2.998v5.615h-1.621v-10.703h1.318l0.264,1.465h0.078
		c0.332-0.527,0.798-0.936,1.396-1.226s1.267-0.435,2.002-0.435c1.289,0,2.259,0.311,2.91,0.933s0.977,1.616,0.977,2.983v6.982
		H354.732z"/>
	<path fill="#E71D73" d="M359.646,206.264c0-0.371,0.091-0.643,0.273-0.815s0.41-0.259,0.684-0.259c0.261,0,0.485,0.088,0.674,0.264
		s0.283,0.446,0.283,0.811s-0.095,0.637-0.283,0.815s-0.413,0.269-0.674,0.269c-0.273,0-0.501-0.09-0.684-0.269
		S359.646,206.628,359.646,206.264z M361.404,219.867h-1.621v-10.703h1.621V219.867z"/>
	<path fill="#E71D73" d="M369.22,220.063c-1.55,0-2.749-0.477-3.599-1.431s-1.274-2.303-1.274-4.048c0-1.79,0.432-3.174,1.294-4.15
		s2.092-1.465,3.687-1.465c0.515,0,1.028,0.056,1.543,0.166s0.918,0.241,1.211,0.391l-0.498,1.377
		c-0.358-0.144-0.749-0.262-1.172-0.356s-0.798-0.142-1.123-0.142c-2.175,0-3.262,1.387-3.262,4.16c0,1.315,0.266,2.324,0.796,3.027
		s1.316,1.055,2.358,1.055c0.892,0,1.807-0.192,2.744-0.576v1.436C371.209,219.877,370.307,220.063,369.22,220.063z"/>
	<path fill="#E71D73" d="M381.146,219.867l-0.322-1.523h-0.078c-0.534,0.671-1.066,1.125-1.597,1.362s-1.193,0.356-1.987,0.356
		c-1.062,0-1.893-0.273-2.495-0.82s-0.903-1.325-0.903-2.334c0-2.161,1.729-3.294,5.186-3.398l1.816-0.059v-0.664
		c0-0.84-0.181-1.46-0.542-1.86s-0.939-0.601-1.733-0.601c-0.892,0-1.901,0.273-3.027,0.82l-0.498-1.24
		c0.527-0.286,1.105-0.511,1.733-0.674s1.258-0.244,1.89-0.244c1.276,0,2.222,0.283,2.837,0.85s0.923,1.475,0.923,2.725v7.305
		H381.146z M377.483,218.725c1.009,0,1.802-0.276,2.378-0.83s0.864-1.328,0.864-2.324v-0.967l-1.621,0.068
		c-1.289,0.046-2.219,0.246-2.788,0.601s-0.854,0.906-0.854,1.655c0,0.586,0.178,1.032,0.532,1.338S376.846,218.725,377.483,218.725
		z"/>
	<path fill="#E71D73" d="M389.244,218.725c0.286,0,0.563-0.021,0.83-0.063s0.479-0.086,0.635-0.132v1.24
		c-0.176,0.085-0.435,0.154-0.776,0.21s-0.649,0.083-0.923,0.083c-2.07,0-3.105-1.091-3.105-3.271v-6.367h-1.533v-0.781l1.533-0.674
		l0.684-2.285h0.938v2.48h3.105v1.26h-3.105v6.299c0,0.645,0.153,1.14,0.459,1.484S388.71,218.725,389.244,218.725z"/>
	<path fill="#E71D73" d="M392.811,206.264c0-0.371,0.091-0.643,0.273-0.815s0.41-0.259,0.684-0.259c0.261,0,0.485,0.088,0.674,0.264
		s0.283,0.446,0.283,0.811s-0.095,0.637-0.283,0.815s-0.413,0.269-0.674,0.269c-0.273,0-0.501-0.09-0.684-0.269
		S392.811,206.628,392.811,206.264z M394.568,219.867h-1.621v-10.703h1.621V219.867z"/>
	<path fill="#E71D73" d="M407.344,214.506c0,1.745-0.439,3.107-1.318,4.087s-2.093,1.47-3.643,1.47
		c-0.957,0-1.807-0.225-2.549-0.674s-1.315-1.094-1.719-1.934s-0.605-1.823-0.605-2.949c0-1.745,0.437-3.104,1.309-4.077
		s2.083-1.46,3.633-1.46c1.497,0,2.688,0.498,3.569,1.494S407.344,212.807,407.344,214.506z M399.189,214.506
		c0,1.367,0.273,2.409,0.82,3.125s1.351,1.074,2.412,1.074s1.867-0.356,2.417-1.069s0.825-1.756,0.825-3.13
		c0-1.36-0.275-2.395-0.825-3.101s-1.362-1.06-2.437-1.06c-1.062,0-1.862,0.349-2.402,1.045S399.189,213.126,399.189,214.506z"/>
	<path fill="#E71D73" d="M417.61,219.867v-6.924c0-0.872-0.198-1.523-0.596-1.953s-1.019-0.645-1.865-0.645
		c-1.12,0-1.94,0.303-2.461,0.908s-0.781,1.604-0.781,2.998v5.615h-1.621v-10.703h1.318l0.264,1.465h0.078
		c0.332-0.527,0.798-0.936,1.396-1.226s1.267-0.435,2.002-0.435c1.289,0,2.259,0.311,2.91,0.933s0.977,1.616,0.977,2.983v6.982
		H417.61z"/>
</g>
</svg>
