<?xml version="1.0" encoding="utf-8"?>
<!-- Generator: Adobe Illustrator 16.0.0, SVG Export Plug-In . SVG Version: 6.00 Build 0)  -->
<!DOCTYPE svg PUBLIC "-//W3C//DTD SVG 1.1//EN" "http://www.w3.org/Graphics/SVG/1.1/DTD/svg11.dtd">
<svg version="1.1" id="Calque_1" xmlns="http://www.w3.org/2000/svg" xmlns:xlink="http://www.w3.org/1999/xlink" x="0px" y="0px"
	 width="1000px" height="1000px" viewBox="0 0 1000 1000" enable-background="new 0 0 1000 1000" xml:space="preserve">
<path fill-rule="evenodd" clip-rule="evenodd" fill="#FFFFFF" d="M723.586,631.363"/>
<g>
	<path fill="#005050" d="M517.429,452.614c-25.45,0-45.951,20.853-45.951,48.071c0,28.101,20.501,49.663,45.951,49.663
		c25.273,0,45.774-21.562,45.774-49.663C563.203,473.467,542.702,452.614,517.429,452.614z"/>
	<path fill="#005050" d="M981.613,498.552C941.983,222.761,752.28,0.749,495.466,20.198C229.904,40.31-9.204,241.288,17.127,506.322
		c25.318,254.997,221.385,507.524,486.128,478.363C760.001,956.406,1019.477,762.186,981.613,498.552z M445.703,570.659
		c-4.812,2.372-10.636,0.394-13.007-4.421c-0.175-0.357-0.32-0.722-0.45-1.087c-0.004,0.003-2.563-5.539-2.563-5.539
		c0.012,0.005-42.395-87.944-42.395-87.944c-1.728-3.584-3.504-4.885-4.276-4.885s-2.55,1.301-4.278,4.885l-40.694,84.347
		c-1.72,3.553-4.903,8.304-8.487,10.164c-1.929,1.003-4.113,1.483-6.283,1.483c-7.356,0-11.313-5.521-14.566-11.369l0.406-0.227
		l-0.576-0.057l-40.668-84.342c-1.726-3.584-3.504-4.885-4.276-4.885c-0.772,0-2.55,1.301-4.277,4.885l-12.97,26.897l0.052,0.083
		l-30.054,62.332c-4.809,9.975-11.309,11.463-14.753,11.463c-3.445,0-9.944-1.488-14.753-11.464l-31.424-64.926
		c-0.159-0.256-0.307-0.521-0.443-0.797c-2.294-4.654-0.378-10.287,4.276-12.579c4.653-2.293,10.284-0.381,12.578,4.275
		c0.141,0.288,0.267,0.58,0.377,0.873l25.084,50.606c1.755,3.64,3.531,4.94,4.305,4.94c0.772,0,2.548-1.301,4.277-4.884
		l11.428-23.702l-0.053-0.082l31.597-65.526c4.809-9.974,11.307-11.464,14.753-11.464c3.445,0,9.942,1.49,14.751,11.464
		l40.526,84.022c2.358,4.239,4.081,5.156,4.381,5.156c0.825,0,3.122-2.413,4.341-4.879c0.021,0,40.67-84.3,40.67-84.3
		c4.807-9.974,11.306-11.464,14.752-11.464c3.445,0,9.943,1.49,14.752,11.464l51.854,107.542c0.019,0.037,0.035,0.077,0.052,0.113
		c0.163,0.265,0.315,0.536,0.454,0.819C452.496,562.463,450.516,568.289,445.703,570.659z M517.429,566.077
		c-36.23,0-64.154-28.632-64.154-65.392c0-35.875,27.923-63.624,64.154-63.624c36.055,0,64.155,27.748,64.155,63.624
		C581.584,537.445,553.483,566.077,517.429,566.077z M840.577,570.659c-4.812,2.372-10.635,0.394-13.007-4.421
		c-0.175-0.357-0.321-0.722-0.45-1.088c-0.004,0.004-2.563-5.538-2.563-5.538l0.06,0.021l-42.415-87.966
		c-1.728-3.584-3.504-4.885-4.277-4.885s-2.552,1.301-4.279,4.885l-40.669,84.347c-0.087,0.179-0.182,0.353-0.284,0.52
		c-0.427,0.815-1.239,2.214-2.384,3.734c-2.258,4.781-6.819,8.058-12.097,8.058c-5.328,0-9.929-3.345-12.161-8.205
		c-0.738-1.013-1.464-2.127-2.168-3.361c-0.163-0.236-0.308-0.487-0.436-0.75l-40.667-84.342c-1.728-3.584-3.506-4.885-4.277-4.885
		c-0.772,0-2.549,1.301-4.276,4.885c-0.039,0.079-0.078,0.158-0.117,0.239c-0.459,0.952-0.918,1.905-1.377,2.859
		c-1.063,2.201-2.122,4.402-3.185,6.604c-1.469,3.042-2.935,6.085-4.4,9.126c-1.781,3.694-3.563,7.387-5.344,11.081
		c-1.939,4.021-3.878,8.043-5.816,12.066c-1.994,4.135-3.99,8.27-5.982,12.404c-1.884,3.905-3.765,7.808-5.648,11.712
		c-1.705,3.536-3.409,7.072-5.114,10.608c-1.273,2.642-2.547,5.281-3.82,7.923c-1.352,2.805-2.545,5.665-4.126,8.354
		c-1.308,2.226-2.872,4.831-5.276,6.016c-4.814,2.372-10.638,0.394-13.008-4.421c-0.858-1.742-1.161-3.686-0.899-5.605
		c0.255-1.882,1.294-3.228,2.157-4.867c1.11-2.107,2.113-4.247,3.15-6.391c1.551-3.207,3.108-6.412,4.65-9.626
		c2.003-4.176,4.036-8.336,6.039-12.511c2.29-4.771,4.603-9.529,6.896-14.299c2.41-5.003,4.823-10.002,7.235-15.001
		c2.356-4.885,4.706-9.772,7.064-14.656c2.136-4.423,4.261-8.85,6.396-13.272c1.741-3.607,3.479-7.217,5.22-10.824
		c1.173-2.433,2.348-4.866,3.521-7.3c0.434-0.903,0.871-1.807,1.308-2.709c4.809-9.974,11.307-11.464,14.753-11.464
		c3.444,0,9.942,1.49,14.754,11.464l40.451,83.896c0.025,0.041,0.048,0.084,0.073,0.126c2.356,4.239,4.079,5.156,4.38,5.156
		c0.826,0,3.123-2.413,4.341-4.879c0.063-0.128,0.131-0.253,0.202-0.372l40.468-83.928c4.809-9.974,11.307-11.464,14.753-11.464
		s9.942,1.49,14.751,11.464l51.857,107.542c0.08,0.17,0.156,0.348,0.236,0.522c0.075,0.136,0.16,0.269,0.229,0.41
		c0.163,0.332,0.301,0.669,0.425,1.009c0.192,0.463,0.33,0.955,0.396,1.471C846.619,564.315,844.586,568.686,840.577,570.659z"/>
</g>
</svg>
