<?xml version="1.0" encoding="utf-8"?>
<!-- Generator: Adobe Illustrator 16.0.0, SVG Export Plug-In . SVG Version: 6.00 Build 0)  -->
<!DOCTYPE svg PUBLIC "-//W3C//DTD SVG 1.1//EN" "http://www.w3.org/Graphics/SVG/1.1/DTD/svg11.dtd">
<svg version="1.1" id="Calque_1" xmlns="http://www.w3.org/2000/svg" xmlns:xlink="http://www.w3.org/1999/xlink" x="0px" y="0px"
	 width="450.691px" height="229.586px" viewBox="0 0 450.691 229.586" enable-background="new 0 0 450.691 229.586"
	 xml:space="preserve">
<polygon fill="#AF9982" points="435.422,58.6 435.513,58.473 423.861,50.149 415.537,61.801 415.666,61.893 "/>
<polygon fill="#A06C92" points="450.572,28.143 450.692,27.916 429.773,16.908 418.767,37.829 418.993,37.949 "/>
<polygon fill="#7DCAD3" points="411,44.4 411.092,44.273 399.441,35.95 391.115,47.602 391.24,47.693 "/>
<path fill="#FCBF0A" d="M273.729,131.32h-42.064V89.257h-17.427V47.071h75.838v42.186H273.73L273.729,131.32L273.729,131.32z"/>
<path d="M34.212,196.82h-1.195v-55.805h1.277l23.117,34.199l23.197-34.199h1.273v55.805h-1.195v-53.969L57.968,176.65h-1.034
	l-22.722-33.799V196.82z"/>
<path d="M123.451,178.086h-28.22L87.66,196.82h-1.355l22.398-56.602h1.355l22.398,56.602h-1.354L123.451,178.086z M95.79,176.889
	h27.183l-13.631-34.994L95.79,176.889z"/>
<path d="M137.792,196.82h-1.195v-55.166v-0.639h0.639h18.654c22.32,0,22.32,32.605,0,32.605h-9.01l25.671,23.195h-1.835
	l-25.669-23.195v-1.196h10.844c20.728,0,20.728-30.133,0-30.133h-18.097v54.526h-0.002V196.82z"/>
<path d="M179.795,141.098v55.725h-1.195v-55.725H179.795z M181.629,168.279l27.743-27.182h1.594l-28.222,27.74l31.647,27.979h-1.833
	l-30.932-27.262L181.629,168.279L181.629,168.279z"/>
<path d="M217.893,195.624h29.655v1.196h-30.771h-0.161v-55.725h30.771v1.196h-29.496v25.983h28.856v1.279h-28.856L217.893,195.624
	L217.893,195.624z"/>
<path d="M269.626,197.059v-54.765H250.33v-1.276h39.777v1.276h-19.289v54.765H269.626z"/>
<path d="M317.21,142.213h-11.881v53.411h11.881v1.196c-8.293,0-16.662,0-24.953,0v-1.196h11.881v-53.411h-11.881v-1.115
	c8.291,0,16.66,0,24.953,0V142.213z"/>
<path d="M322.063,196.82v-55.883l1.114,0.078l37.067,53.57v-53.57h1.197v55.805h-1.273l-36.832-53.252v53.252H322.063z"/>
<path d="M416.354,157.76c-3.827-9.967-13.392-15.945-23.675-15.945c-7.256,0-13.714,3.11-18.493,8.055
	c-4.626,4.941-7.573,11.638-7.573,19.13c0,7.494,2.947,14.271,7.573,19.133c4.779,5.022,11.237,8.054,18.493,8.054
	c11.16,0,23.036-8.85,25.112-20.646h-24.635v-1.278h26.229c-0.16,1.914-0.642,3.749-1.356,5.582
	c-3.667,10.204-15.388,17.698-25.351,17.698c-7.575,0-14.429-3.27-19.374-8.45c-4.86-5.102-7.971-12.198-7.971-20.091
	c0-7.813,3.108-14.904,7.971-20.088c4.945-5.182,11.799-8.369,19.374-8.369c11.003,0,21.362,6.615,25.03,17.221L416.354,157.76
	L416.354,157.76z"/>
<polygon fill="#E83187" points="414.772,77.085 408.849,66.461 408.713,66.537 407.337,71.383 403.799,68.67 407.115,57.388 
	407.039,57.25 396.446,63.031 394.728,61.715 393.603,52.376 384.054,53.529 375.634,47.071 375.634,131.204 419.383,131.204 
	419.383,80.621 "/>
<path fill="#654998" d="M76.277,78.079V47.071h41.826v84.132c-77.521,0-6.612,0-84.131,0V45.028L76.277,78.079z"/>
<polygon opacity="0.6" fill="#B99BC9" enable-background="new    " points="121.725,125.333 121.725,39.311 77.646,39.311 
	77.646,71.374 33.056,39.28 33.056,40.424 "/>
<polygon opacity="0.6" fill="#E94A38" enable-background="new    " points="416.033,6.25 416.151,6.023 437.071,17.03 
	426.068,37.949 425.839,37.829 "/>
<polygon opacity="0.6" fill="#E83187" enable-background="new    " points="395.232,26.088 395.323,25.961 406.975,34.285 
	398.652,45.938 398.524,45.846 "/>
<polygon opacity="0.6" fill="#FCBF0A" enable-background="new    " points="411.462,48.035 411.552,47.907 423.201,56.231 
	414.881,67.884 414.753,67.792 "/>
<path fill="#03A5D5" d="M370.835,81.324c0,10.938-5.051,20.553-13.104,26.802l12.381,23.196c-24.639,0-49.276,0-73.917,0
	c0-93.264,0-19.23,0-84.25h40.385C355.449,47.071,370.835,62.334,370.835,81.324z"/>
<path opacity="0.7" fill="#015D9F" enable-background="new    " d="M372.786,75.214c0-19.863-16.092-35.829-35.826-35.829h-17.574
	v88.125c17.549,0,35.101,0,52.646,0l-12.95-24.264C367.507,96.711,372.786,86.654,372.786,75.214z"/>
<polygon opacity="0.6" fill="#85C06C" enable-background="new    " points="232.121,39.217 260.458,127.341 276.118,127.341 
	276.118,83.341 293.213,83.341 293.213,39.217 "/>
<path fill="#7BC9D2" d="M124.583,46.831c86.055,0-1.922,0,84.131,0v43.988c0,23.196-18.868,42.067-42.063,42.067
	c-23.196,0-42.066-18.871-42.066-42.067L124.583,46.831L124.583,46.831z"/>
<path opacity="0.6" fill="#DFEEF9" enable-background="new    " d="M208.187,39.28c-31.505,0-38.036,0-39.148,0
	c0.012,0-0.039,0-0.209,0c-1.167,0-8.271,0-43.896,0v46.011c0,10.412,3.646,19.987,9.712,27.529L208.187,39.28z"/>
<g>
	<path fill="#E71D73" d="M32.963,219.867V205.59h1.66v14.277H32.963z"/>
	<path fill="#E71D73" d="M45.719,219.867v-6.924c0-0.873-0.199-1.523-0.597-1.953c-0.396-0.43-1.02-0.646-1.865-0.646
		c-1.119,0-1.939,0.305-2.461,0.908c-0.521,0.604-0.78,1.604-0.78,2.998v5.615h-1.621v-10.703h1.317l0.265,1.465h0.078
		c0.332-0.525,0.797-0.938,1.396-1.227s1.266-0.436,2.002-0.436c1.289,0,2.259,0.313,2.909,0.934
		c0.651,0.621,0.978,1.615,0.978,2.982v6.982h-1.62V219.867z"/>
	<path fill="#E71D73" d="M58.095,219.867v-6.924c0-0.873-0.199-1.523-0.597-1.953c-0.396-0.43-1.02-0.646-1.865-0.646
		c-1.119,0-1.939,0.305-2.461,0.908c-0.521,0.604-0.78,1.604-0.78,2.998v5.615h-1.621v-10.703h1.317l0.265,1.465h0.078
		c0.332-0.525,0.797-0.938,1.396-1.227s1.266-0.436,2.002-0.436c1.289,0,2.259,0.313,2.909,0.934
		c0.651,0.621,0.978,1.615,0.978,2.982v6.982h-1.62V219.867z"/>
	<path fill="#E71D73" d="M72.384,214.506c0,1.745-0.438,3.107-1.317,4.087c-0.879,0.98-2.093,1.47-3.644,1.47
		c-0.957,0-1.807-0.225-2.549-0.674s-1.314-1.094-1.72-1.934c-0.403-0.84-0.604-1.823-0.604-2.949c0-1.745,0.437-3.104,1.31-4.076
		c0.873-0.974,2.083-1.461,3.634-1.461c1.497,0,2.688,0.498,3.568,1.494S72.384,212.807,72.384,214.506z M64.229,214.506
		c0,1.367,0.272,2.409,0.819,3.125c0.548,0.717,1.352,1.074,2.412,1.074c1.062,0,1.867-0.355,2.417-1.069
		c0.551-0.713,0.825-1.756,0.825-3.13c0-1.359-0.274-2.395-0.825-3.102c-0.55-0.705-1.361-1.061-2.438-1.061
		c-1.062,0-1.861,0.35-2.401,1.047C64.499,212.086,64.229,213.126,64.229,214.506z"/>
	<path fill="#E71D73" d="M77.669,219.867l-4.063-10.703h1.738l2.305,6.348c0.521,1.484,0.827,2.448,0.918,2.893h0.078
		c0.071-0.346,0.298-1.062,0.679-2.146c0.382-1.084,1.235-3.448,2.563-7.095h1.737l-4.063,10.703H77.669L77.669,219.867z"/>
	<path fill="#E71D73" d="M92.027,219.867l-0.321-1.523h-0.078c-0.533,0.672-1.065,1.125-1.598,1.362
		c-0.53,0.237-1.192,0.356-1.986,0.356c-1.062,0-1.894-0.273-2.495-0.82c-0.603-0.547-0.902-1.325-0.902-2.334
		c0-2.161,1.729-3.294,5.187-3.398l1.815-0.059v-0.664c0-0.84-0.182-1.46-0.542-1.86c-0.36-0.399-0.938-0.601-1.732-0.601
		c-0.893,0-1.9,0.273-3.026,0.82l-0.498-1.24c0.526-0.286,1.104-0.512,1.732-0.674c0.628-0.164,1.258-0.244,1.891-0.244
		c1.275,0,2.222,0.283,2.837,0.85c0.614,0.567,0.923,1.475,0.923,2.725v7.307L92.027,219.867L92.027,219.867z M88.365,218.725
		c1.01,0,1.803-0.274,2.379-0.83c0.575-0.554,0.863-1.328,0.863-2.322v-0.969l-1.621,0.068c-1.289,0.046-2.218,0.246-2.788,0.602
		c-0.569,0.354-0.854,0.906-0.854,1.654c0,0.586,0.177,1.032,0.531,1.338C87.231,218.572,87.727,218.725,88.365,218.725z"/>
	<path fill="#E71D73" d="M100.125,218.725c0.287,0,0.563-0.021,0.83-0.063c0.268-0.042,0.479-0.086,0.635-0.133v1.24
		c-0.176,0.086-0.436,0.153-0.775,0.211c-0.341,0.056-0.648,0.082-0.923,0.082c-2.07,0-3.104-1.09-3.104-3.271v-6.367h-1.533v-0.779
		l1.533-0.676l0.685-2.283h0.938v2.479h3.104v1.26h-3.104v6.301c0,0.645,0.152,1.14,0.459,1.482
		C99.173,218.552,99.592,218.725,100.125,218.725z"/>
	<path fill="#E71D73" d="M103.692,206.264c0-0.371,0.092-0.643,0.272-0.813c0.182-0.171,0.41-0.261,0.685-0.261
		c0.261,0,0.484,0.088,0.674,0.266c0.189,0.176,0.283,0.445,0.283,0.813c0,0.363-0.094,0.637-0.283,0.813
		c-0.188,0.178-0.413,0.271-0.674,0.271c-0.272,0-0.501-0.092-0.685-0.271C103.781,206.9,103.692,206.628,103.692,206.264z
		 M105.45,219.867h-1.621v-10.703h1.621V219.867z"/>
	<path fill="#E71D73" d="M118.226,214.506c0,1.745-0.438,3.107-1.317,4.087c-0.88,0.98-2.094,1.47-3.644,1.47
		c-0.957,0-1.808-0.225-2.55-0.674c-0.741-0.449-1.314-1.094-1.719-1.934s-0.604-1.823-0.604-2.949c0-1.745,0.437-3.104,1.31-4.076
		c0.872-0.974,2.083-1.461,3.633-1.461c1.498,0,2.688,0.498,3.568,1.494C117.785,211.459,118.226,212.807,118.226,214.506z
		 M110.071,214.506c0,1.367,0.273,2.409,0.82,3.125c0.547,0.717,1.352,1.074,2.412,1.074c1.06,0,1.866-0.355,2.417-1.069
		c0.55-0.713,0.824-1.756,0.824-3.13c0-1.359-0.274-2.395-0.824-3.102c-0.551-0.705-1.362-1.061-2.438-1.061
		c-1.062,0-1.862,0.35-2.402,1.047C110.341,212.086,110.071,213.126,110.071,214.506z"/>
	<path fill="#E71D73" d="M128.492,219.867v-6.924c0-0.873-0.199-1.523-0.597-1.953c-0.396-0.43-1.02-0.646-1.865-0.646
		c-1.119,0-1.939,0.305-2.461,0.908s-0.78,1.604-0.78,2.998v5.615h-1.621v-10.703h1.317l0.265,1.465h0.078
		c0.332-0.525,0.797-0.938,1.396-1.227c0.599-0.289,1.266-0.436,2.002-0.436c1.289,0,2.259,0.313,2.91,0.934
		c0.65,0.621,0.977,1.615,0.977,2.982v6.982h-1.62L128.492,219.867L128.492,219.867z"/>
	<path fill="#E71D73" d="M148.057,219.867l-1.777-4.541h-5.723l-1.759,4.541h-1.68l5.646-14.336h1.396l5.614,14.336H148.057z
		 M145.762,213.832l-1.66-4.424c-0.215-0.561-0.437-1.247-0.664-2.061c-0.144,0.625-0.349,1.312-0.615,2.061l-1.68,4.424H145.762z"
		/>
	<path fill="#E71D73" d="M153.216,219.867h-1.62v-15.195h1.62V219.867z"/>
	<path fill="#E71D73" d="M156.615,206.264c0-0.371,0.092-0.643,0.273-0.813c0.181-0.171,0.409-0.261,0.684-0.261
		c0.261,0,0.485,0.088,0.675,0.266c0.188,0.176,0.282,0.445,0.282,0.813c0,0.363-0.094,0.637-0.282,0.813
		c-0.188,0.178-0.414,0.271-0.675,0.271c-0.272,0-0.501-0.092-0.684-0.271C156.706,206.9,156.615,206.628,156.615,206.264z
		 M158.374,219.867h-1.621v-10.703h1.621V219.867z"/>
	<path fill="#E71D73" d="M175.554,219.867v-6.963c0-0.854-0.183-1.492-0.548-1.92c-0.364-0.426-0.931-0.641-1.698-0.641
		c-1.01,0-1.754,0.29-2.236,0.869c-0.481,0.579-0.723,1.473-0.723,2.678v5.977h-1.621v-6.963c0-0.854-0.183-1.492-0.547-1.92
		c-0.365-0.426-0.935-0.641-1.709-0.641c-1.017,0-1.76,0.307-2.231,0.913c-0.472,0.608-0.708,1.606-0.708,2.993v5.615h-1.62v-10.703
		h1.317l0.265,1.465h0.077c0.307-0.521,0.737-0.928,1.294-1.221c0.558-0.293,1.181-0.439,1.87-0.439
		c1.674,0,2.768,0.605,3.281,1.816h0.078c0.318-0.561,0.78-1.003,1.387-1.328c0.605-0.325,1.295-0.488,2.07-0.488
		c1.211,0,2.117,0.313,2.72,0.934c0.603,0.623,0.902,1.617,0.902,2.982v6.982L175.554,219.867L175.554,219.867z"/>
	<path fill="#E71D73" d="M185.137,220.063c-1.582,0-2.831-0.479-3.745-1.443c-0.914-0.965-1.372-2.303-1.372-4.016
		c0-1.726,0.425-3.096,1.273-4.109c0.85-1.016,1.991-1.523,3.423-1.523c1.342,0,2.402,0.441,3.185,1.323s1.172,2.046,1.172,3.491
		v1.023H181.7c0.032,1.258,0.35,2.211,0.951,2.861c0.603,0.65,1.45,0.977,2.544,0.977c1.152,0,2.292-0.239,3.418-0.723v1.445
		c-0.572,0.247-1.114,0.425-1.626,0.531C186.477,220.008,185.859,220.063,185.137,220.063z M184.697,210.326
		c-0.858,0-1.544,0.279-2.056,0.84c-0.513,0.561-0.813,1.335-0.903,2.324h5.597c0-1.022-0.229-1.805-0.685-2.35
		C186.194,210.598,185.543,210.326,184.697,210.326z"/>
	<path fill="#E71D73" d="M199.26,219.867v-6.924c0-0.873-0.198-1.523-0.596-1.953c-0.396-0.43-1.02-0.646-1.865-0.646
		c-1.119,0-1.939,0.305-2.461,0.908c-0.521,0.604-0.78,1.604-0.78,2.998v5.615h-1.621v-10.703h1.317l0.265,1.465h0.078
		c0.332-0.525,0.797-0.938,1.396-1.227s1.266-0.436,2.002-0.436c1.288,0,2.259,0.313,2.909,0.934
		c0.651,0.621,0.978,1.615,0.978,2.982v6.982h-1.621V219.867L199.26,219.867z"/>
	<path fill="#E71D73" d="M207.769,218.725c0.287,0,0.563-0.021,0.83-0.063c0.267-0.042,0.479-0.086,0.635-0.133v1.24
		c-0.176,0.086-0.436,0.153-0.775,0.211c-0.341,0.056-0.648,0.082-0.923,0.082c-2.07,0-3.104-1.09-3.104-3.271v-6.367h-1.533v-0.779
		l1.533-0.676l0.684-2.283h0.938v2.479h3.104v1.26h-3.104v6.301c0,0.645,0.152,1.14,0.459,1.482
		C206.818,218.55,207.235,218.725,207.769,218.725z"/>
	<path fill="#E71D73" d="M218.054,219.867l-0.322-1.523h-0.078c-0.533,0.672-1.065,1.125-1.597,1.362
		c-0.532,0.237-1.193,0.356-1.987,0.356c-1.062,0-1.894-0.273-2.494-0.82c-0.603-0.547-0.903-1.325-0.903-2.334
		c0-2.161,1.729-3.294,5.187-3.398l1.815-0.059v-0.664c0-0.84-0.181-1.46-0.542-1.86c-0.36-0.399-0.938-0.601-1.732-0.601
		c-0.893,0-1.9,0.273-3.026,0.82l-0.498-1.24c0.526-0.286,1.104-0.512,1.732-0.674c0.628-0.164,1.258-0.244,1.891-0.244
		c1.275,0,2.223,0.283,2.837,0.85c0.614,0.567,0.923,1.475,0.923,2.725v7.307L218.054,219.867L218.054,219.867z M214.392,218.725
		c1.009,0,1.802-0.274,2.378-0.83c0.576-0.554,0.863-1.328,0.863-2.322v-0.969l-1.62,0.068c-1.289,0.046-2.219,0.246-2.788,0.602
		c-0.57,0.354-0.854,0.906-0.854,1.654c0,0.586,0.177,1.032,0.531,1.338C213.258,218.572,213.753,218.725,214.392,218.725z"/>
	<path fill="#E71D73" d="M222.558,206.264c0-0.371,0.091-0.643,0.272-0.813c0.183-0.173,0.409-0.261,0.685-0.261
		c0.26,0,0.484,0.088,0.674,0.266c0.188,0.176,0.283,0.445,0.283,0.813c0,0.363-0.095,0.637-0.283,0.813
		c-0.188,0.178-0.414,0.271-0.674,0.271c-0.272,0-0.501-0.092-0.685-0.271C222.648,206.9,222.558,206.628,222.558,206.264z
		 M224.316,219.867h-1.621v-10.703h1.621V219.867z"/>
	<path fill="#E71D73" d="M232.736,208.969c0.476,0,0.902,0.039,1.279,0.117l-0.226,1.504c-0.442-0.098-0.833-0.146-1.172-0.146
		c-0.866,0-1.605,0.354-2.223,1.057s-0.923,1.579-0.923,2.627v5.742h-1.621v-10.703h1.338l0.187,1.98h0.078
		c0.396-0.694,0.875-1.231,1.437-1.609C231.451,209.158,232.066,208.969,232.736,208.969z"/>
	<path fill="#E71D73" d="M240.639,220.063c-1.582,0-2.831-0.479-3.745-1.443c-0.914-0.965-1.372-2.303-1.372-4.016
		c0-1.726,0.425-3.096,1.273-4.109c0.85-1.016,1.991-1.523,3.424-1.523c1.341,0,2.401,0.441,3.184,1.323s1.173,2.046,1.173,3.491
		v1.023h-7.373c0.032,1.258,0.351,2.211,0.951,2.861c0.603,0.65,1.45,0.977,2.544,0.977c1.152,0,2.293-0.239,3.419-0.723v1.445
		c-0.573,0.247-1.115,0.425-1.627,0.531C241.979,220.008,241.362,220.063,240.639,220.063z M240.2,210.326
		c-0.859,0-1.545,0.279-2.057,0.84c-0.513,0.561-0.813,1.335-0.903,2.324h5.597c0-1.022-0.229-1.805-0.685-2.35
		C241.697,210.598,241.046,210.326,240.2,210.326z"/>
	<path fill="#E71D73" d="M252.118,216.166c0-0.848,0.227-1.596,0.679-2.246c0.453-0.65,1.266-1.309,2.438-1.973
		c-0.553-0.618-0.929-1.088-1.128-1.406s-0.355-0.65-0.475-0.996c-0.117-0.345-0.176-0.703-0.176-1.074
		c0-0.977,0.318-1.738,0.957-2.285c0.638-0.547,1.526-0.818,2.666-0.818c1.055,0,1.885,0.271,2.489,0.814s0.908,1.301,0.908,2.271
		c0,0.696-0.222,1.34-0.664,1.929s-1.175,1.188-2.197,1.792l3.976,3.818c0.365-0.403,0.656-0.878,0.874-1.421
		c0.219-0.545,0.401-1.139,0.553-1.782h1.641c-0.442,1.862-1.109,3.274-2.002,4.237l2.92,2.843h-2.235l-1.808-1.738
		c-0.768,0.69-1.549,1.185-2.344,1.483c-0.795,0.3-1.681,0.449-2.656,0.449c-1.399,0-2.484-0.346-3.257-1.035
		S252.118,217.384,252.118,216.166z M256.571,218.607c1.569,0,2.871-0.502,3.906-1.504l-4.269-4.143
		c-0.724,0.441-1.233,0.811-1.533,1.1c-0.299,0.291-0.521,0.602-0.663,0.934c-0.144,0.332-0.216,0.71-0.216,1.133
		c0,0.762,0.252,1.365,0.758,1.813C255.059,218.386,255.731,218.607,256.571,218.607z M255.058,208.432
		c0,0.449,0.116,0.877,0.353,1.284c0.234,0.407,0.635,0.896,1.2,1.47c0.841-0.486,1.425-0.938,1.753-1.353
		c0.329-0.414,0.493-0.892,0.493-1.431c0-0.502-0.167-0.91-0.503-1.228s-0.783-0.474-1.343-0.474c-0.58,0-1.051,0.154-1.411,0.469
		C255.239,207.484,255.058,207.904,255.058,208.432z"/>
	<path fill="#E71D73" d="M279.086,206.869c-1.568,0-2.809,0.521-3.716,1.566c-0.908,1.045-1.362,2.477-1.362,4.293
		c0,1.867,0.438,3.313,1.313,4.33c0.875,1.019,2.124,1.527,3.745,1.527c0.996,0,2.132-0.179,3.408-0.537v1.455
		c-0.99,0.371-2.21,0.559-3.662,0.559c-2.104,0-3.727-0.64-4.868-1.914c-1.143-1.276-1.714-3.09-1.714-5.439
		c0-1.473,0.274-2.761,0.825-3.867c0.55-1.105,1.344-1.96,2.383-2.559c1.039-0.6,2.261-0.898,3.667-0.898
		c1.498,0,2.807,0.273,3.926,0.82l-0.702,1.426C281.248,207.123,280.167,206.869,279.086,206.869z"/>
	<path fill="#E71D73" d="M294.684,214.506c0,1.745-0.438,3.107-1.318,4.087c-0.879,0.98-2.093,1.47-3.643,1.47
		c-0.957,0-1.808-0.225-2.55-0.674c-0.741-0.449-1.314-1.094-1.719-1.934s-0.604-1.823-0.604-2.949c0-1.745,0.437-3.104,1.309-4.076
		c0.873-0.974,2.083-1.461,3.634-1.461c1.498,0,2.688,0.498,3.568,1.494S294.684,212.807,294.684,214.506z M286.53,214.506
		c0,1.367,0.273,2.409,0.82,3.125c0.547,0.717,1.352,1.074,2.412,1.074c1.06,0,1.866-0.355,2.417-1.069
		c0.55-0.713,0.824-1.756,0.824-3.13c0-1.359-0.274-2.395-0.824-3.102c-0.551-0.705-1.362-1.061-2.438-1.061
		c-1.061,0-1.861,0.35-2.401,1.047C286.8,212.086,286.53,213.126,286.53,214.506z"/>
	<path fill="#E71D73" d="M311.269,219.867v-6.963c0-0.854-0.182-1.492-0.547-1.92c-0.365-0.426-0.931-0.641-1.699-0.641
		c-1.009,0-1.754,0.29-2.236,0.869c-0.48,0.579-0.723,1.473-0.723,2.678v5.977h-1.621v-6.963c0-0.854-0.182-1.492-0.547-1.92
		c-0.365-0.426-0.934-0.641-1.709-0.641c-1.016,0-1.759,0.307-2.231,0.913c-0.472,0.608-0.707,1.606-0.707,2.993v5.615h-1.62
		v-10.703h1.316l0.266,1.465h0.076c0.308-0.521,0.737-0.928,1.294-1.221c0.559-0.293,1.182-0.439,1.87-0.439
		c1.673,0,2.769,0.605,3.281,1.816h0.078c0.319-0.561,0.781-1.003,1.387-1.328c0.606-0.325,1.295-0.488,2.07-0.488
		c1.211,0,2.118,0.313,2.72,0.934c0.604,0.623,0.903,1.617,0.903,2.982v6.982L311.269,219.867L311.269,219.867z"/>
	<path fill="#E71D73" d="M329.972,219.867v-6.963c0-0.854-0.185-1.492-0.547-1.92c-0.364-0.426-0.933-0.641-1.699-0.641
		c-1.009,0-1.755,0.29-2.236,0.869c-0.479,0.579-0.723,1.473-0.723,2.678v5.977h-1.621v-6.963c0-0.854-0.183-1.492-0.547-1.92
		c-0.364-0.426-0.936-0.641-1.709-0.641c-1.018,0-1.76,0.307-2.231,0.913c-0.471,0.608-0.708,1.606-0.708,2.993v5.615h-1.621
		v-10.703h1.318l0.264,1.465h0.078c0.308-0.521,0.737-0.928,1.294-1.221c0.559-0.293,1.182-0.439,1.87-0.439
		c1.673,0,2.769,0.605,3.281,1.816h0.078c0.318-0.561,0.78-1.003,1.387-1.328c0.607-0.325,1.296-0.488,2.07-0.488
		c1.211,0,2.117,0.313,2.72,0.934c0.604,0.623,0.903,1.617,0.903,2.982v6.982L329.972,219.867L329.972,219.867z"/>
	<path fill="#E71D73" d="M336.557,209.164v6.943c0,0.871,0.198,1.521,0.596,1.953c0.398,0.43,1.021,0.645,1.865,0.645
		c1.12,0,1.938-0.307,2.456-0.918c0.518-0.612,0.776-1.611,0.776-2.998v-5.625h1.619v10.703h-1.338l-0.232-1.436h-0.088
		c-0.332,0.525-0.793,0.93-1.384,1.211c-0.589,0.278-1.262,0.42-2.017,0.42c-1.302,0-2.277-0.312-2.925-0.93
		c-0.648-0.617-0.974-1.607-0.974-2.969v-7.002L336.557,209.164L336.557,209.164z"/>
	<path fill="#E71D73" d="M354.732,219.867v-6.924c0-0.873-0.198-1.523-0.596-1.953c-0.398-0.43-1.021-0.646-1.865-0.646
		c-1.12,0-1.94,0.305-2.461,0.908c-0.521,0.604-0.781,1.604-0.781,2.998v5.615h-1.621v-10.703h1.318l0.264,1.465h0.078
		c0.332-0.525,0.798-0.938,1.396-1.227c0.598-0.289,1.267-0.436,2.002-0.436c1.289,0,2.259,0.313,2.909,0.934
		s0.978,1.615,0.978,2.982v6.982h-1.621V219.867z"/>
	<path fill="#E71D73" d="M359.646,206.264c0-0.371,0.091-0.643,0.272-0.813c0.183-0.173,0.409-0.261,0.685-0.261
		c0.261,0,0.485,0.088,0.674,0.266c0.189,0.176,0.283,0.445,0.283,0.813c0,0.363-0.095,0.637-0.283,0.813
		c-0.188,0.178-0.413,0.271-0.674,0.271c-0.273,0-0.501-0.092-0.685-0.271C359.736,206.9,359.646,206.628,359.646,206.264z
		 M361.404,219.867h-1.621v-10.703h1.621V219.867z"/>
	<path fill="#E71D73" d="M369.22,220.063c-1.55,0-2.749-0.477-3.601-1.431c-0.85-0.954-1.272-2.303-1.272-4.048
		c0-1.79,0.432-3.174,1.294-4.15c0.862-0.976,2.092-1.465,3.687-1.465c0.517,0,1.028,0.057,1.544,0.166
		c0.516,0.11,0.918,0.241,1.211,0.391l-0.497,1.379c-0.358-0.146-0.749-0.264-1.173-0.356c-0.424-0.094-0.799-0.142-1.123-0.142
		c-2.176,0-3.263,1.387-3.263,4.158c0,1.315,0.268,2.324,0.796,3.027c0.53,0.703,1.316,1.055,2.358,1.055
		c0.892,0,1.807-0.19,2.744-0.574v1.436C371.21,219.877,370.307,220.063,369.22,220.063z"/>
	<path fill="#E71D73" d="M381.146,219.867l-0.322-1.523h-0.078c-0.532,0.672-1.064,1.125-1.597,1.362s-1.193,0.356-1.987,0.356
		c-1.062,0-1.893-0.273-2.494-0.82c-0.603-0.547-0.902-1.325-0.902-2.334c0-2.161,1.729-3.294,5.186-3.398l1.816-0.059v-0.664
		c0-0.84-0.182-1.46-0.542-1.86c-0.361-0.399-0.939-0.601-1.733-0.601c-0.892,0-1.899,0.273-3.025,0.82l-0.498-1.24
		c0.525-0.286,1.104-0.512,1.731-0.674c0.628-0.164,1.26-0.244,1.892-0.244c1.274,0,2.222,0.283,2.837,0.85
		c0.615,0.567,0.923,1.475,0.923,2.725v7.307L381.146,219.867L381.146,219.867z M377.483,218.725c1.009,0,1.802-0.274,2.378-0.83
		c0.576-0.554,0.864-1.328,0.864-2.322v-0.969l-1.621,0.068c-1.289,0.046-2.219,0.246-2.788,0.602
		c-0.569,0.354-0.854,0.906-0.854,1.654c0,0.586,0.178,1.032,0.53,1.338C376.348,218.572,376.846,218.725,377.483,218.725z"/>
	<path fill="#E71D73" d="M389.243,218.725c0.286,0,0.563-0.021,0.83-0.063c0.269-0.042,0.479-0.086,0.637-0.133v1.24
		c-0.178,0.086-0.437,0.153-0.776,0.211c-0.341,0.056-0.649,0.082-0.923,0.082c-2.07,0-3.105-1.09-3.105-3.271v-6.367h-1.533v-0.779
		l1.533-0.676l0.686-2.283h0.938v2.479h3.105v1.26h-3.105v6.301c0,0.645,0.153,1.14,0.459,1.482
		C388.294,218.55,388.71,218.725,389.243,218.725z"/>
	<path fill="#E71D73" d="M392.811,206.264c0-0.371,0.091-0.643,0.273-0.813c0.182-0.173,0.408-0.261,0.684-0.261
		c0.261,0,0.484,0.088,0.674,0.266c0.189,0.176,0.283,0.445,0.283,0.813c0,0.363-0.095,0.637-0.283,0.813
		c-0.188,0.178-0.413,0.271-0.674,0.271c-0.273,0-0.501-0.092-0.684-0.271C392.901,206.9,392.811,206.628,392.811,206.264z
		 M394.568,219.867h-1.621v-10.703h1.621V219.867z"/>
	<path fill="#E71D73" d="M407.344,214.506c0,1.745-0.439,3.107-1.318,4.087c-0.879,0.98-2.093,1.47-3.643,1.47
		c-0.957,0-1.809-0.225-2.549-0.674c-0.742-0.449-1.315-1.094-1.721-1.934c-0.402-0.84-0.604-1.823-0.604-2.949
		c0-1.745,0.437-3.104,1.309-4.076c0.872-0.974,2.083-1.461,3.633-1.461c1.497,0,2.688,0.498,3.569,1.494
		S407.344,212.807,407.344,214.506z M399.189,214.506c0,1.367,0.273,2.409,0.82,3.125c0.547,0.717,1.351,1.074,2.412,1.074
		c1.061,0,1.865-0.355,2.417-1.069c0.55-0.713,0.823-1.756,0.823-3.13c0-1.359-0.273-2.395-0.823-3.102
		c-0.552-0.705-1.362-1.061-2.438-1.061c-1.062,0-1.862,0.35-2.402,1.047C399.46,212.086,399.189,213.126,399.189,214.506z"/>
	<path fill="#E71D73" d="M417.61,219.867v-6.924c0-0.873-0.198-1.523-0.596-1.953c-0.398-0.43-1.021-0.646-1.865-0.646
		c-1.12,0-1.938,0.305-2.461,0.908s-0.781,1.604-0.781,2.998v5.615h-1.621v-10.703h1.318l0.264,1.465h0.078
		c0.332-0.525,0.798-0.938,1.396-1.227c0.598-0.289,1.267-0.436,2.002-0.436c1.289,0,2.259,0.313,2.91,0.934
		c0.649,0.621,0.977,1.615,0.977,2.982v6.982h-1.621V219.867z"/>
</g>
</svg>
