<?xml version="1.0" encoding="utf-8"?>
<!-- Generator: Adobe Illustrator 16.0.0, SVG Export Plug-In . SVG Version: 6.00 Build 0)  -->
<!DOCTYPE svg PUBLIC "-//W3C//DTD SVG 1.1//EN" "http://www.w3.org/Graphics/SVG/1.1/DTD/svg11.dtd">
<svg version="1.1" id="Calque_1" xmlns="http://www.w3.org/2000/svg" xmlns:xlink="http://www.w3.org/1999/xlink" x="0px" y="0px"
	 width="450.691px" height="229.586px" viewBox="0 0 450.691 229.586" enable-background="new 0 0 450.691 229.586"
	 xml:space="preserve">
<polygon fill="#AF9982" points="435.422,58.6 435.513,58.473 423.861,50.149 415.537,61.801 415.666,61.893 "/>
<polygon fill="#A06C92" points="450.572,28.143 450.692,27.916 429.773,16.908 418.767,37.829 418.993,37.949 "/>
<polygon fill="#7DCAD3" points="411,44.4 411.092,44.273 399.441,35.95 391.115,47.602 391.24,47.693 "/>
<path fill="#FCBF0A" d="M273.729,131.32h-42.064V89.257h-17.427V47.071h75.838v42.186H273.73L273.729,131.32L273.729,131.32z"/>
<path d="M34.212,196.82h-1.195v-55.805h1.277l23.117,34.199l23.197-34.199h1.273v55.805h-1.195v-53.969L57.968,176.65h-1.034
	l-22.722-33.799V196.82z"/>
<path d="M123.451,178.086h-28.22L87.66,196.82h-1.355l22.398-56.602h1.355l22.398,56.602h-1.354L123.451,178.086z M95.79,176.889
	h27.183l-13.631-34.994L95.79,176.889z"/>
<path d="M137.792,196.82h-1.195v-55.166v-0.639h0.639h18.654c22.32,0,22.32,32.605,0,32.605h-9.01l25.671,23.195h-1.835
	l-25.669-23.195v-1.196h10.844c20.728,0,20.728-30.133,0-30.133h-18.097v54.526h-0.002V196.82z"/>
<path d="M179.795,141.098v55.725h-1.195v-55.725H179.795z M181.629,168.279l27.743-27.182h1.594l-28.222,27.74l31.647,27.979h-1.833
	l-30.932-27.262L181.629,168.279L181.629,168.279z"/>
<path d="M217.893,195.624h29.655v1.196h-30.771h-0.161v-55.725h30.771v1.196h-29.496v25.983h28.856v1.279h-28.856L217.893,195.624
	L217.893,195.624z"/>
<path d="M269.626,197.059v-54.765H250.33v-1.276h39.777v1.276h-19.289v54.765H269.626z"/>
<path d="M317.21,142.213h-11.881v53.411h11.881v1.196c-8.293,0-16.662,0-24.953,0v-1.196h11.881v-53.411h-11.881v-1.115
	c8.291,0,16.66,0,24.953,0V142.213z"/>
<path d="M322.063,196.82v-55.883l1.114,0.078l37.067,53.57v-53.57h1.197v55.805h-1.273l-36.832-53.252v53.252H322.063z"/>
<path d="M416.354,157.76c-3.827-9.967-13.392-15.945-23.675-15.945c-7.256,0-13.714,3.11-18.493,8.055
	c-4.626,4.941-7.573,11.638-7.573,19.13c0,7.494,2.947,14.271,7.573,19.133c4.779,5.022,11.237,8.054,18.493,8.054
	c11.16,0,23.036-8.85,25.112-20.646h-24.635v-1.278h26.229c-0.16,1.914-0.642,3.749-1.356,5.582
	c-3.667,10.204-15.388,17.698-25.351,17.698c-7.575,0-14.429-3.27-19.374-8.45c-4.86-5.102-7.971-12.198-7.971-20.091
	c0-7.813,3.108-14.904,7.971-20.088c4.945-5.182,11.799-8.369,19.374-8.369c11.003,0,21.362,6.615,25.03,17.221L416.354,157.76
	L416.354,157.76z"/>
<polygon fill="#E83187" points="414.772,77.085 408.849,66.461 408.713,66.537 407.337,71.383 403.799,68.67 407.115,57.388 
	407.039,57.25 396.446,63.031 394.728,61.715 393.603,52.376 384.054,53.529 375.634,47.071 375.634,131.204 419.383,131.204 
	419.383,80.621 "/>
<path fill="#654998" d="M76.277,78.079V47.071h41.826v84.132c-77.521,0-6.612,0-84.131,0V45.028L76.277,78.079z"/>
<polygon opacity="0.6" fill="#B99BC9" enable-background="new    " points="121.725,125.333 121.725,39.311 77.646,39.311 
	77.646,71.374 33.056,39.28 33.056,40.424 "/>
<polygon opacity="0.6" fill="#E94A38" enable-background="new    " points="416.033,6.25 416.151,6.023 437.071,17.03 
	426.068,37.949 425.839,37.829 "/>
<polygon opacity="0.6" fill="#E83187" enable-background="new    " points="395.232,26.088 395.323,25.961 406.975,34.285 
	398.652,45.938 398.524,45.846 "/>
<polygon opacity="0.6" fill="#FCBF0A" enable-background="new    " points="411.462,48.035 411.552,47.907 423.201,56.231 
	414.881,67.884 414.753,67.792 "/>
<path fill="#03A5D5" d="M370.835,81.324c0,10.938-5.051,20.553-13.104,26.802l12.381,23.196c-24.639,0-49.276,0-73.917,0
	c0-93.264,0-19.23,0-84.25h40.385C355.449,47.071,370.835,62.334,370.835,81.324z"/>
<path opacity="0.7" fill="#015D9F" enable-background="new    " d="M372.786,75.214c0-19.863-16.092-35.829-35.826-35.829h-17.574
	v88.125c17.549,0,35.101,0,52.646,0l-12.95-24.264C367.507,96.711,372.786,86.654,372.786,75.214z"/>
<polygon opacity="0.6" fill="#85C06C" enable-background="new    " points="232.121,39.217 260.458,127.341 276.118,127.341 
	276.118,83.341 293.213,83.341 293.213,39.217 "/>
<path fill="#7BC9D2" d="M124.583,46.831c86.055,0-1.922,0,84.131,0v43.988c0,23.196-18.868,42.067-42.063,42.067
	c-23.196,0-42.066-18.871-42.066-42.067L124.583,46.831L124.583,46.831z"/>
<path opacity="0.6" fill="#DFEEF9" enable-background="new    " d="M208.187,39.28c-31.505,0-38.036,0-39.148,0
	c0.012,0-0.039,0-0.209,0c-1.167,0-8.271,0-43.896,0v46.011c0,10.412,3.646,19.987,9.712,27.529L208.187,39.28z"/>

</svg>
