<?xml version="1.0" encoding="utf-8"?>
<!-- Generator: Adobe Illustrator 16.0.0, SVG Export Plug-In . SVG Version: 6.00 Build 0)  -->
<!DOCTYPE svg PUBLIC "-//W3C//DTD SVG 1.1//EN" "http://www.w3.org/Graphics/SVG/1.1/DTD/svg11.dtd">
<svg version="1.1" id="Calque_1" xmlns="http://www.w3.org/2000/svg" xmlns:xlink="http://www.w3.org/1999/xlink" x="0px" y="0px"
	 width="1010px" height="160px" viewBox="0 0 1010 160" enable-background="new 0 0 1010 160" xml:space="preserve">
<polygon fill="#AF9982" points="422.422,65.6 422.514,65.473 410.861,57.149 402.537,68.801 402.666,68.893 "/>
<polygon fill="#A06C92" points="437.572,35.143 437.692,34.916 416.773,23.908 405.768,44.829 405.993,44.949 "/>
<polygon fill="#7DCAD3" points="398,51.4 398.092,51.273 386.441,42.95 378.115,54.602 378.24,54.693 "/>
<path fill="#FCBF0A" d="M260.729,138.32h-42.064V96.257h-17.427V54.071h75.838v42.186H260.73L260.729,138.32L260.729,138.32z"/>
<g>
	<path d="M434.804,138.266h-1.752V56.463h1.872l33.888,50.131l34.003-50.131h1.867v81.803h-1.752V59.154l-33.303,49.545h-1.516
		l-33.308-49.545V138.266z"/>
	<path d="M565.618,110.803h-41.367l-11.099,27.462h-1.987l32.833-82.971h1.987l32.833,82.971h-1.983L565.618,110.803z
		 M525.07,109.048h39.846l-19.981-51.297L525.07,109.048z"/>
	<path d="M586.64,138.266h-1.753V57.399v-0.936h0.938h27.344c32.719,0,32.719,47.795,0,47.795h-13.207l37.63,34.002h-2.688
		l-37.628-34.002v-1.753h15.896c30.384,0,30.384-44.171,0-44.171h-26.527v79.929h-0.003V138.266z"/>
	<path d="M648.21,56.583v81.686h-1.752V56.583H648.21z M650.899,96.428l40.667-39.845h2.336l-41.369,40.664l46.392,41.013h-2.687
		l-45.343-39.962L650.899,96.428L650.899,96.428z"/>
	<path d="M704.059,136.511h43.471v1.755h-45.105h-0.236V56.58h45.106v1.754h-43.237v38.088h42.3v1.875h-42.3L704.059,136.511
		L704.059,136.511z"/>
	<path d="M779.891,138.615V58.336h-28.284v-1.871h58.309v1.871h-28.276v80.279H779.891z"/>
	<path d="M849.644,58.218h-17.415v78.293h17.415v1.755c-12.156,0-24.425,0-36.578,0v-1.755h17.415V58.218h-17.415v-1.635
		c12.153,0,24.422,0,36.578,0V58.218z"/>
	<path d="M856.759,138.266V56.348l1.632,0.115l54.337,78.527V56.463h1.755v81.803h-1.867l-53.991-78.061v78.061H856.759z"/>
	<path d="M994.977,81.007c-5.61-14.61-19.63-23.374-34.703-23.374c-10.637,0-20.104,4.56-27.109,11.807
		c-6.78,7.243-11.102,17.059-11.102,28.042c0,10.986,4.321,20.919,11.102,28.046c7.006,7.364,16.473,11.807,27.109,11.807
		c16.358,0,33.768-12.973,36.811-30.266h-36.11v-1.874h38.448c-0.234,2.806-0.94,5.496-1.988,8.183
		c-5.375,14.958-22.557,25.944-37.16,25.944c-11.104,0-21.151-4.792-28.4-12.388c-7.125-7.478-11.685-17.881-11.685-29.45
		c0-11.452,4.558-21.848,11.685-29.447c7.249-7.595,17.296-12.268,28.4-12.268c16.128,0,31.314,9.697,36.691,25.243L994.977,81.007
		L994.977,81.007z"/>
</g>
<polygon fill="#E83187" points="401.772,84.085 395.85,73.461 395.713,73.537 394.337,78.383 390.799,75.67 394.115,64.388 
	394.039,64.25 383.446,70.031 381.729,68.715 380.604,59.376 371.055,60.529 362.634,54.071 362.634,138.204 406.383,138.204 
	406.383,87.621 "/>
<path fill="#654998" d="M63.277,85.079V54.071h41.826v84.132c-77.521,0-6.612,0-84.131,0V52.028L63.277,85.079z"/>
<polygon opacity="0.6" fill="#B99BC9" enable-background="new    " points="108.726,132.333 108.726,46.311 64.646,46.311 
	64.646,78.374 20.057,46.28 20.057,47.424 "/>
<polygon opacity="0.6" fill="#E94A38" enable-background="new    " points="403.033,13.25 403.151,13.023 424.071,24.03 
	413.068,44.949 412.839,44.829 "/>
<polygon opacity="0.6" fill="#E83187" enable-background="new    " points="382.232,33.088 382.323,32.961 393.976,41.285 
	385.652,52.938 385.524,52.846 "/>
<polygon opacity="0.6" fill="#FCBF0A" enable-background="new    " points="398.462,55.035 398.552,54.907 410.201,63.231 
	401.881,74.884 401.753,74.792 "/>
<path fill="#03A5D5" d="M357.835,88.324c0,10.938-5.051,20.553-13.104,26.802l12.381,23.196c-24.639,0-49.276,0-73.917,0
	c0-93.264,0-19.23,0-84.25h40.385C342.449,54.071,357.835,69.334,357.835,88.324z"/>
<path opacity="0.7" fill="#015D9F" enable-background="new    " d="M359.786,82.214c0-19.863-16.092-35.829-35.826-35.829h-17.574
	v88.125c17.549,0,35.101,0,52.646,0l-12.95-24.264C354.507,103.711,359.786,93.654,359.786,82.214z"/>
<polygon opacity="0.6" fill="#85C06C" enable-background="new    " points="219.121,46.217 247.458,134.341 263.118,134.341 
	263.118,90.341 280.213,90.341 280.213,46.217 "/>
<path fill="#7BC9D2" d="M111.583,53.831c86.055,0-1.922,0,84.131,0v43.988c0,23.196-18.868,42.067-42.063,42.067
	c-23.196,0-42.066-18.871-42.066-42.067L111.583,53.831L111.583,53.831z"/>
<path opacity="0.6" fill="#DFEEF9" enable-background="new    " d="M195.188,46.28c-31.505,0-38.036,0-39.148,0
	c0.012,0-0.039,0-0.209,0c-1.167,0-8.271,0-43.896,0v46.011c0,10.412,3.646,19.987,9.712,27.529L195.188,46.28z"/>
</svg>
