<?xml version="1.0" encoding="utf-8"?>
<!-- Generator: Adobe Illustrator 16.0.0, SVG Export Plug-In . SVG Version: 6.00 Build 0)  -->
<!DOCTYPE svg PUBLIC "-//W3C//DTD SVG 1.1//EN" "http://www.w3.org/Graphics/SVG/1.1/DTD/svg11.dtd">
<svg version="1.1" xmlns="http://www.w3.org/2000/svg" xmlns:xlink="http://www.w3.org/1999/xlink" x="0px" y="0px" width="800px"
	 height="400px" viewBox="0 0 800 400" enable-background="new 0 0 800 400" xml:space="preserve">
<g id="Calque_1">
	<g>
		<path fill="#A09DA1" d="M106.045,194.778c0,0,4.011-0.323,11.03-0.89c7.021-0.55,17.044-1.41,29.083-2.31
			c24.075-1.821,56.175-4.25,88.275-6.679c32.112-2.262,64.225-4.523,88.309-6.22c12.041-0.861,22.083-1.464,29.11-1.94
			c7.027-0.459,11.042-0.722,11.042-0.722s-4.011,0.324-11.03,0.89c-7.021,0.55-17.044,1.412-29.083,2.31
			c-24.075,1.821-56.175,4.25-88.275,6.678c-32.112,2.262-64.225,4.523-88.309,6.219c-12.042,0.859-22.084,1.465-29.11,1.941
			C110.061,194.515,106.045,194.778,106.045,194.778z"/>
	</g>
	<g>
		<path fill="#A09DA1" d="M346.157,167.397c0,0,1.282-0.12,3.526-0.329c2.245-0.192,5.451-0.466,9.3-0.795
			c3.85-0.294,8.339-0.682,13.155-1.017c4.815-0.337,9.951-0.698,15.087-1.058c5.139-0.315,10.278-0.63,15.096-0.926
			c4.817-0.3,9.319-0.5,13.175-0.713c3.856-0.209,7.073-0.321,9.324-0.428c2.251-0.086,3.538-0.135,3.538-0.135
			s-1.282,0.12-3.525,0.329c-2.245,0.188-5.45,0.498-9.3,0.795c-3.851,0.294-8.34,0.684-13.155,1.017
			c-4.815,0.337-9.951,0.697-15.087,1.057c-5.139,0.315-10.278,0.63-15.096,0.925c-4.818,0.297-9.319,0.5-13.175,0.712
			c-3.858,0.177-7.073,0.325-9.324,0.429C347.443,167.348,346.157,167.397,346.157,167.397z"/>
	</g>
	<g>
		<path fill="#A09DA1" d="M443.156,163.397c0,0,1.354-0.126,3.724-0.346c2.37-0.203,5.757-0.493,9.82-0.84
			c4.066-0.313,8.807-0.722,13.892-1.081c5.084-0.361,10.508-0.746,15.932-1.131c5.427-0.34,10.853-0.68,15.94-0.999
			c5.087-0.323,9.84-0.546,13.912-0.777c4.073-0.196,7.469-0.359,9.845-0.473c2.378-0.097,3.736-0.152,3.736-0.152
			s-1.354,0.126-3.724,0.346c-2.37,0.203-5.757,0.493-9.82,0.841c-4.066,0.313-8.807,0.725-13.892,1.081
			c-5.084,0.36-10.508,0.745-15.932,1.13c-5.427,0.34-10.854,0.68-15.94,0.999c-5.087,0.32-9.841,0.545-13.912,0.776
			c-4.073,0.196-7.469,0.359-9.845,0.474C444.515,163.342,443.156,163.397,443.156,163.397z"/>
	</g>
	<g>
		<path fill="#A09DA1" d="M456.557,97.598c0,0,1.104,0.954,3.038,2.624c1.921,1.683,4.666,4.086,7.96,6.97
			c3.273,2.908,7.092,6.3,11.184,9.934c4.067,3.66,8.407,7.564,12.746,11.468c4.309,3.938,8.618,7.875,12.658,11.566
			c4.042,3.688,7.762,7.189,10.978,10.16c3.192,2.997,5.852,5.495,7.714,7.243c1.85,1.761,2.907,2.768,2.907,2.768
			s-1.104-0.954-3.038-2.624c-1.922-1.683-4.667-4.086-7.961-6.97c-3.271-2.91-7.118-6.271-11.183-9.934
			c-4.068-3.66-8.407-7.564-12.746-11.469c-4.309-3.938-8.618-7.875-12.657-11.567c-4.017-3.717-7.765-7.187-10.978-10.16
			c-3.192-2.997-5.853-5.494-7.714-7.243C457.614,98.604,456.557,97.598,456.557,97.598z"/>
	</g>
	<g>
		<path fill="#A09DA1" d="M375.957,99.797c0,0,1.583,0.015,4.352,0.041c2.769,0.043,6.724,0.105,11.47,0.179
			c4.745,0.105,10.281,0.229,16.213,0.36c5.93,0.167,12.256,0.344,18.581,0.521c6.324,0.222,12.648,0.444,18.578,0.653
			c5.928,0.244,11.46,0.47,16.202,0.665c4.741,0.226,8.692,0.415,11.458,0.546c2.766,0.149,4.346,0.235,4.346,0.235
			s-1.582-0.015-4.352-0.04c-2.769-0.043-6.724-0.105-11.47-0.179c-4.745-0.105-10.281-0.229-16.213-0.36
			c-5.93-0.167-12.256-0.344-18.581-0.522c-6.324-0.223-12.648-0.445-18.577-0.654c-5.929-0.243-11.461-0.47-16.203-0.665
			c-4.742-0.226-8.692-0.414-11.458-0.546C377.537,99.882,375.957,99.797,375.957,99.797z"/>
	</g>
	<g>
		<path fill="#A09DA1" d="M426.557,161.998c0,0-0.926-0.923-2.545-2.537c-1.607-1.626-3.903-3.95-6.658-6.739
			c-2.729-2.812-5.946-6.063-9.336-9.6c-3.391-3.536-7.006-7.308-10.623-11.08c-3.584-3.803-7.167-7.606-10.527-11.171
			c-3.363-3.563-6.444-6.942-9.115-9.811c-2.645-2.893-4.849-5.304-6.392-6.992c-1.53-1.7-2.404-2.671-2.404-2.671
			s0.926,0.922,2.545,2.537c1.607,1.626,3.903,3.95,6.659,6.738c2.729,2.813,5.948,6.061,9.335,9.601
			c3.39,3.536,7.006,7.309,10.623,11.081c3.584,3.803,7.167,7.606,10.527,11.171c3.361,3.564,6.444,6.942,9.114,9.811
			c2.646,2.893,4.85,5.304,6.392,6.992C425.683,161.026,426.557,161.998,426.557,161.998z"/>
	</g>
	<g>
		<path fill="#A09DA1" d="M443.156,163.397c0,0-1.119-1.107-3.077-3.043c-1.946-1.949-4.726-4.733-8.062-8.074
			c-3.313-3.363-7.18-7.286-11.321-11.489c-4.116-4.228-8.508-8.737-12.898-13.246c-4.359-4.541-8.718-9.081-12.805-13.337
			c-4.062-4.281-7.852-8.277-11.102-11.701c-3.226-3.447-5.915-6.319-7.797-8.33c-1.87-2.023-2.938-3.179-2.938-3.179
			s1.119,1.106,3.078,3.043c1.946,1.949,4.726,4.732,8.062,8.073c3.313,3.363,7.179,7.286,11.32,11.49
			c4.117,4.228,8.508,8.737,12.899,13.247c4.358,4.541,8.718,9.081,12.804,13.338c4.062,4.281,7.852,8.277,11.101,11.702
			c3.228,3.446,5.916,6.319,7.798,8.329C442.088,162.242,443.156,163.397,443.156,163.397z"/>
	</g>
	<g>
		<path fill="#A09DA1" d="M374.806,107.551c0,0,0.201-0.288,0.571-0.776c0.377-0.481,0.894-1.188,1.553-2.001
			c1.308-1.637,3.114-3.762,4.98-5.833c1.871-2.067,3.801-4.081,5.297-5.548c0.743-0.739,1.394-1.324,1.834-1.748
			c0.448-0.417,0.715-0.646,0.715-0.646s-0.201,0.289-0.57,0.776c-0.377,0.481-0.894,1.189-1.553,2.002
			c-1.307,1.637-3.115,3.762-4.981,5.833c-1.872,2.067-3.803,4.08-5.298,5.547c-0.743,0.738-1.394,1.325-1.834,1.749
			C375.072,107.322,374.806,107.551,374.806,107.551z"/>
	</g>
	<g>
		<path fill="#A09DA1" d="M374.806,107.551c0,0-1.22,0.005-3.356,0.013c-2.135-0.009-5.186-0.022-8.846-0.038
			c-3.66-0.05-7.93-0.065-12.504-0.16c-4.574-0.093-9.453-0.193-14.331-0.292c-4.877-0.144-9.755-0.289-14.328-0.424
			c-4.573-0.131-8.839-0.333-12.497-0.465c-3.657-0.136-6.704-0.312-8.837-0.405c-2.132-0.115-3.351-0.181-3.351-0.181
			s1.22-0.005,3.356-0.013c2.135,0.013,5.187-0.01,8.846,0.037c3.66,0.051,7.93,0.063,12.504,0.161
			c4.574,0.093,9.453,0.193,14.331,0.293c4.877,0.145,9.755,0.289,14.328,0.425c4.573,0.133,8.839,0.333,12.497,0.465
			c3.656,0.167,6.704,0.307,8.837,0.405C373.587,107.485,374.806,107.551,374.806,107.551z"/>
	</g>
	<g>
		<path fill="#A09DA1" d="M351.557,173.797c0,0-1.127-1.344-3.101-3.695c-1.959-2.362-4.759-5.736-8.118-9.786
			c-3.335-4.069-7.226-8.816-11.394-13.902c-4.142-5.108-8.559-10.556-12.977-16.004c-4.383-5.477-8.765-10.953-12.874-16.087
			c-4.082-5.156-7.891-9.968-11.156-14.093c-3.241-4.145-5.941-7.599-7.832-10.017c-1.877-2.429-2.949-3.816-2.949-3.816
			s1.127,1.343,3.101,3.694c1.96,2.362,4.759,5.736,8.119,9.785c3.334,4.069,7.225,8.816,11.394,13.902
			c4.141,5.108,8.559,10.556,12.976,16.005c4.382,5.477,8.765,10.953,12.873,16.088c4.082,5.156,7.891,9.968,11.156,14.093
			c3.241,4.145,5.942,7.598,7.832,10.016C350.484,172.41,351.557,173.797,351.557,173.797z"/>
	</g>
	<g>
		<path fill="#A09DA1" d="M59.708,179.429c0,0,0.342-1.812,0.941-4.981c0.615-3.167,1.495-7.689,2.55-13.118
			c1.085-5.421,2.353-11.746,3.71-18.523c1.391-6.77,2.875-13.991,4.359-21.212c1.528-7.212,3.056-14.424,4.489-21.185
			c1.466-6.754,2.835-13.058,4.008-18.461c1.204-5.397,2.208-9.895,2.91-13.042c0.72-3.145,1.131-4.941,1.131-4.941
			s-0.342,1.812-0.94,4.981c-0.615,3.166-1.495,7.689-2.549,13.117c-1.086,5.421-2.353,11.747-3.71,18.523
			c-1.392,6.77-2.876,13.991-4.36,21.211c-1.528,7.212-3.057,14.424-4.489,21.185c-1.467,6.754-2.835,13.058-4.009,18.461
			c-1.204,5.397-2.208,9.894-2.91,13.042C60.119,177.632,59.708,179.429,59.708,179.429z"/>
	</g>
	<g>
		<path fill="#A09DA1" d="M123.357,191.797c0,0-0.838-1.845-2.306-5.075c-1.452-3.236-3.525-7.859-6.014-13.408
			c-2.459-5.56-5.329-12.047-8.404-18.998c-3.043-6.964-6.289-14.393-9.535-21.821c-3.205-7.446-6.409-14.893-9.413-21.874
			c-2.972-6.995-5.747-13.523-8.125-19.119c-2.349-5.608-4.306-10.282-5.676-13.554c-1.354-3.278-2.128-5.152-2.128-5.152
			s0.839,1.845,2.307,5.075c1.452,3.236,3.525,7.859,6.014,13.407c2.459,5.56,5.329,12.047,8.404,18.998
			c3.042,6.964,6.288,14.393,9.534,21.821c3.204,7.447,6.409,14.893,9.413,21.874c2.972,6.995,5.746,13.523,8.124,19.12
			c2.349,5.608,4.307,10.282,5.677,13.553C122.583,189.924,123.357,191.797,123.357,191.797z"/>
	</g>
	<g>
		<path fill="#A09DA1" d="M128.357,272.398c0,0-0.138-1.388-0.38-3.817c-0.225-2.43-0.545-5.902-0.931-10.068
			c-0.354-4.169-0.767-9.032-1.209-14.243c-0.408-5.213-0.843-10.773-1.278-16.335c-0.39-5.563-0.78-11.128-1.146-16.345
			c-0.37-5.216-0.637-10.09-0.905-14.265c-0.233-4.178-0.428-7.659-0.564-10.096c-0.119-2.438-0.187-3.832-0.187-3.832
			s0.138,1.388,0.381,3.817c0.225,2.431,0.546,5.902,0.931,10.069c0.35,4.169,0.806,9.029,1.209,14.242
			c0.408,5.214,0.842,10.774,1.277,16.336c0.39,5.563,0.78,11.128,1.145,16.345c0.331,5.219,0.64,10.09,0.905,14.266
			c0.234,4.177,0.429,7.658,0.565,10.096C128.289,271.005,128.357,272.398,128.357,272.398z"/>
	</g>
	<g>
		<path fill="#A09DA1" d="M172.557,302.998c0,0-7.179-5.197-17.948-12.994c-5.361-3.93-11.616-8.514-18.317-13.426
			c-6.681-4.94-13.807-10.21-20.933-15.479c-7.099-5.305-14.198-10.61-20.854-15.584c-6.635-5.002-12.827-9.67-18.135-13.672
			c-5.289-4.026-9.696-7.382-12.782-9.731c-3.075-2.362-4.832-3.713-4.832-3.713s1.799,1.294,4.948,3.557
			c3.138,2.278,7.622,5.531,13.001,9.437c5.361,3.93,11.615,8.515,18.316,13.427c6.681,4.94,13.807,10.21,20.932,15.479
			c7.099,5.306,14.198,10.61,20.854,15.585c6.634,5.002,12.827,9.67,18.135,13.672C165.511,297.62,172.557,302.998,172.557,302.998z
			"/>
	</g>
	<g>
		<path fill="#A09DA1" d="M67.73,225.068c0,0-0.131-1.045-0.362-2.873c-0.209-1.83-0.547-4.441-0.882-7.581
			c-0.331-3.141-0.76-6.8-1.141-10.728c-0.383-3.928-0.791-8.118-1.2-12.308c-0.363-4.194-0.727-8.388-1.068-12.32
			c-0.345-3.931-0.588-7.608-0.837-10.756c-0.245-3.148-0.388-5.777-0.516-7.614c-0.107-1.84-0.168-2.891-0.168-2.891
			s0.132,1.045,0.362,2.873c0.209,1.83,0.549,4.441,0.883,7.581c0.33,3.14,0.762,6.799,1.14,10.728
			c0.383,3.928,0.791,8.118,1.199,12.308c0.363,4.194,0.727,8.388,1.067,12.319c0.343,3.932,0.588,7.608,0.837,10.756
			c0.244,3.148,0.388,5.777,0.517,7.615C67.669,224.018,67.73,225.068,67.73,225.068z"/>
	</g>
	<g>
		<path fill="#A09DA1" d="M110.157,272.398c0,0,4.008-0.669,11.021-1.84c7.016-1.155,17.027-2.879,29.062-4.816
			c24.065-3.896,56.152-9.092,88.239-14.288c32.113-5.03,64.226-10.061,88.311-13.833c12.041-1.898,22.092-3.369,29.12-4.45
			c7.031-1.065,11.048-1.675,11.048-1.675s-4.008,0.669-11.021,1.841c-7.016,1.155-17.027,2.881-29.062,4.816
			c-24.065,3.896-56.152,9.092-88.239,14.287c-32.113,5.029-64.226,10.06-88.311,13.832c-12.041,1.897-22.092,3.369-29.12,4.451
			C114.174,271.789,110.157,272.398,110.157,272.398z"/>
	</g>
	<g>
		<path fill="#A09DA1" d="M433.156,211.998c0,0,1.375-0.236,3.78-0.65c2.408-0.396,5.848-0.963,9.977-1.643
			c4.132-0.649,8.954-1.406,14.119-2.217c5.171-0.777,10.687-1.605,16.202-2.435c5.522-0.784,11.044-1.568,16.221-2.304
			c5.177-0.739,10.02-1.352,14.164-1.915c4.15-0.529,7.608-0.971,10.029-1.279c2.424-0.292,3.809-0.458,3.809-0.458
			s-1.375,0.237-3.78,0.65c-2.408,0.397-5.848,0.964-9.976,1.644c-4.134,0.646-8.949,1.444-14.12,2.217
			c-5.171,0.776-10.687,1.605-16.202,2.434c-5.522,0.784-11.044,1.567-16.221,2.303c-5.183,0.7-10.019,1.354-14.164,1.915
			c-4.15,0.529-7.608,0.971-10.029,1.279C434.541,211.831,433.156,211.998,433.156,211.998z"/>
	</g>
	<g>
		<path fill="#A09DA1" d="M422.656,207.598c0,0-1.214,0.196-3.339,0.539c-2.127,0.325-5.166,0.79-8.812,1.349
			c-3.651,0.523-7.904,1.179-12.473,1.801c-4.567,0.625-9.439,1.291-14.312,1.957c-4.878,0.622-9.755,1.243-14.329,1.826
			c-4.572,0.587-8.851,1.057-12.512,1.499c-3.662,0.438-6.722,0.742-8.86,0.984c-2.141,0.22-3.364,0.346-3.364,0.346
			s1.214-0.196,3.339-0.539c2.127-0.321,5.161-0.822,8.812-1.35c3.651-0.523,7.904-1.181,12.472-1.801
			c4.568-0.624,9.44-1.29,14.312-1.956c4.878-0.621,9.756-1.243,14.329-1.825c4.572-0.585,8.851-1.057,12.512-1.498
			c3.667-0.408,6.722-0.748,8.86-0.985C421.433,207.724,422.656,207.598,422.656,207.598z"/>
	</g>
	<g>
		<path fill="#A09DA1" d="M422.656,207.598c0,0,0.426,0.034,1.172,0.094c0.742,0.08,1.809,0.155,3.076,0.317
			c1.269,0.163,2.753,0.321,4.334,0.548c1.583,0.216,3.266,0.483,4.949,0.748c1.68,0.285,3.359,0.566,4.929,0.866
			c1.571,0.287,3.028,0.612,4.282,0.862s2.289,0.52,3.018,0.68c0.726,0.182,1.141,0.285,1.141,0.285s-0.426-0.034-1.172-0.093
			c-0.742-0.081-1.809-0.154-3.077-0.317c-1.268-0.163-2.753-0.319-4.333-0.548c-1.584-0.216-3.266-0.484-4.949-0.749
			c-1.679-0.285-3.359-0.568-4.929-0.867c-1.571-0.289-3.028-0.612-4.282-0.862c-1.254-0.251-2.289-0.52-3.018-0.68
			C423.071,207.701,422.656,207.598,422.656,207.598z"/>
	</g>
	<g>
		<path fill="#A09DA1" d="M520.957,160.498c0,0,0.004,0.611,0.011,1.679c-0.015,1.067,0.005,2.595-0.044,4.424
			c-0.05,1.829-0.076,3.964-0.162,6.249c-0.076,2.285-0.193,4.721-0.309,7.157c-0.135,2.435-0.267,4.87-0.427,7.15
			c-0.147,2.282-0.342,4.408-0.479,6.233c-0.139,1.824-0.316,3.341-0.411,4.404c-0.117,1.063-0.184,1.669-0.184,1.669
			s-0.004-0.611-0.011-1.679c0.015-1.068-0.007-2.595,0.043-4.424c0.05-1.829,0.074-3.964,0.162-6.249
			c0.075-2.286,0.194-4.721,0.309-7.157c0.137-2.435,0.27-4.87,0.429-7.15c0.149-2.282,0.342-4.408,0.48-6.232
			s0.314-3.341,0.41-4.405C520.891,161.104,520.957,160.498,520.957,160.498z"/>
	</g>
	<g>
		<path fill="#A09DA1" d="M453.557,175.598c0,0,0.989-0.121,2.72-0.333c1.733-0.19,4.205-0.502,7.178-0.806
			c2.974-0.299,6.438-0.691,10.157-1.033c3.719-0.344,7.686-0.71,11.652-1.076c3.971-0.321,7.941-0.643,11.664-0.944
			c3.722-0.306,7.203-0.512,10.183-0.729c2.98-0.213,5.47-0.33,7.209-0.44c1.742-0.088,2.737-0.139,2.737-0.139
			s-0.989,0.121-2.72,0.333c-1.733,0.19-4.205,0.504-7.178,0.806c-2.974,0.299-6.438,0.694-10.157,1.033
			c-3.719,0.343-7.686,0.709-11.652,1.075c-3.971,0.321-7.941,0.643-11.664,0.943c-3.722,0.303-7.203,0.512-10.183,0.729
			c-2.98,0.212-5.47,0.33-7.209,0.44C454.552,175.547,453.557,175.598,453.557,175.598z"/>
	</g>
	<g>
		<path fill="#A09DA1" d="M130.757,212.748c0,0,13.114-1.421,32.785-3.553c9.839-1.026,21.318-2.224,33.618-3.507
			c12.303-1.249,25.425-2.581,38.548-3.913c13.127-1.287,26.255-2.574,38.562-3.781c12.31-1.172,23.8-2.266,33.648-3.204
			c19.704-1.796,32.84-2.994,32.84-2.994s-13.114,1.421-32.785,3.554c-9.839,1.026-21.318,2.224-33.618,3.507
			c-12.303,1.249-25.425,2.58-38.548,3.912c-13.127,1.287-26.255,2.574-38.562,3.78c-12.31,1.172-23.8,2.266-33.648,3.204
			C143.893,211.55,130.757,212.748,130.757,212.748z"/>
	</g>
	<g>
		<path fill="#A09DA1" d="M115.657,205.598c0,0,4.093-0.38,11.255-1.046c7.163-0.657,17.396-1.596,29.675-2.722
			c24.566-2.163,57.322-5.046,90.077-7.93c32.77-2.717,65.54-5.434,90.117-7.471c12.288-1.032,22.537-1.778,29.707-2.353
			c7.171-0.56,11.27-0.879,11.27-0.879s-4.093,0.38-11.255,1.046c-7.164,0.649-17.391,1.653-29.675,2.722
			c-24.566,2.162-57.322,5.045-90.078,7.929c-32.77,2.717-65.539,5.433-90.116,7.471c-12.292,0.974-22.536,1.785-29.707,2.354
			C119.755,205.278,115.657,205.598,115.657,205.598z"/>
	</g>
	<g>
		<path fill="#A09DA1" d="M352.557,177.797c0,0,11.667-1.012,29.166-2.529c8.753-0.72,18.964-1.559,29.905-2.458
			c10.944-0.865,22.617-1.788,34.291-2.71c11.677-0.878,23.354-1.755,34.3-2.578c10.95-0.789,21.17-1.524,29.93-2.155
			c17.525-1.182,29.209-1.969,29.209-1.969s-11.666,1.012-29.166,2.531c-8.753,0.719-18.965,1.559-29.905,2.458
			c-10.944,0.865-22.617,1.787-34.291,2.709c-11.677,0.877-23.354,1.755-34.3,2.578c-10.95,0.788-21.17,1.523-29.93,2.154
			C364.24,177.009,352.557,177.797,352.557,177.797z"/>
	</g>
	<g>
		<path fill="#A09DA1" d="M476.156,170.598c0,0,0.022,0.547,0.063,1.504c0.019,0.957,0.085,2.324,0.093,3.963
			c0.007,1.639,0.046,3.553,0.031,5.601c-0.005,2.049-0.047,4.233-0.086,6.418c-0.061,2.185-0.117,4.369-0.206,6.416
			c-0.077,2.047-0.206,3.957-0.287,5.594c-0.082,1.637-0.213,3-0.274,3.956c-0.084,0.954-0.132,1.499-0.132,1.499
			s-0.022-0.547-0.063-1.504c-0.019-0.956-0.087-2.324-0.094-3.963s-0.048-3.553-0.031-5.601c0.004-2.049,0.048-4.233,0.087-6.418
			c0.061-2.185,0.118-4.369,0.208-6.416c0.078-2.047,0.205-3.957,0.286-5.594c0.083-1.637,0.212-3,0.274-3.955
			C476.108,171.143,476.156,170.598,476.156,170.598z"/>
	</g>
	<g>
		<path fill="#A09DA1" d="M459.814,175.056c0,0-0.016,0.546-0.044,1.502c-0.049,0.954-0.078,2.32-0.186,3.953
			c-0.109,1.633-0.204,3.541-0.364,5.579c-0.148,2.04-0.345,4.212-0.538,6.384c-0.214,2.17-0.424,4.341-0.657,6.373
			c-0.22,2.033-0.483,3.925-0.68,5.549c-0.197,1.625-0.423,2.973-0.552,3.919c-0.151,0.944-0.237,1.483-0.237,1.483
			s0.016-0.546,0.043-1.502c0.049-0.954,0.077-2.32,0.186-3.952c0.109-1.633,0.202-3.541,0.364-5.58
			c0.148-2.04,0.346-4.212,0.539-6.384c0.214-2.17,0.425-4.341,0.658-6.373c0.222-2.033,0.483-3.925,0.68-5.549
			c0.198-1.625,0.423-2.972,0.552-3.918C459.729,175.595,459.814,175.056,459.814,175.056z"/>
	</g>
	<g>
		<path fill="#A09DA1" d="M496.557,170.598c0,0,0.009,0.508,0.025,1.396c-0.005,0.887,0.027,2.157-0.005,3.677
			c-0.034,1.52-0.041,3.295-0.107,5.194c-0.055,1.899-0.151,3.923-0.244,5.948c-0.114,2.023-0.225,4.047-0.364,5.942
			c-0.127,1.896-0.303,3.662-0.425,5.178s-0.286,2.775-0.371,3.659c-0.107,0.883-0.169,1.387-0.169,1.387s-0.01-0.508-0.025-1.396
			c0.005-0.888-0.029-2.158,0.004-3.678c0.034-1.52,0.039-3.295,0.107-5.194c0.055-1.899,0.151-3.923,0.245-5.948
			c0.114-2.023,0.226-4.046,0.365-5.942c0.129-1.896,0.303-3.662,0.425-5.178c0.123-1.515,0.285-2.775,0.371-3.659
			C496.495,171.102,496.557,170.598,496.557,170.598z"/>
	</g>
	<g>
		<path fill="#A09DA1" d="M511.757,168.998c0,0-0.003,0.5-0.009,1.377c-0.026,0.875-0.024,2.127-0.095,3.625
			s-0.121,3.247-0.233,5.117c-0.102,1.871-0.246,3.863-0.389,5.856c-0.164,1.991-0.323,3.983-0.509,5.847
			c-0.173,1.866-0.393,3.602-0.551,5.093c-0.159,1.491-0.354,2.729-0.461,3.597c-0.129,0.867-0.202,1.362-0.202,1.362
			s0.003-0.501,0.008-1.377c0.027-0.875,0.023-2.127,0.094-3.625c0.071-1.498,0.12-3.247,0.234-5.117
			c0.101-1.871,0.247-3.863,0.39-5.856c0.164-1.991,0.324-3.983,0.51-5.847c0.175-1.865,0.393-3.602,0.551-5.093
			c0.16-1.491,0.354-2.729,0.46-3.597C511.684,169.493,511.757,168.998,511.757,168.998z"/>
	</g>
	<g>
		<path fill="#A09DA1" d="M379.957,212.748c0,0-0.018-0.582-0.048-1.6c-0.009-1.017-0.063-2.471-0.054-4.214
			c0.009-1.742-0.012-3.776,0.023-5.955c0.024-2.178,0.088-4.5,0.148-6.822c0.082-2.322,0.159-4.644,0.269-6.819
			c0.096-2.176,0.244-4.205,0.341-5.945c0.098-1.74,0.241-3.188,0.313-4.203c0.093-1.014,0.146-1.593,0.146-1.593
			s0.018,0.582,0.048,1.599c0.009,1.017,0.064,2.472,0.055,4.214c-0.01,1.743,0.013,3.777-0.024,5.955
			c-0.024,2.178-0.088,4.5-0.149,6.822c-0.082,2.322-0.161,4.644-0.27,6.819c-0.098,2.176-0.244,4.205-0.341,5.945
			c-0.099,1.74-0.241,3.188-0.313,4.202C380.01,212.169,379.957,212.748,379.957,212.748z"/>
	</g>
	<g>
		<path fill="#A09DA1" d="M394.322,211.338c0,0-0.022-0.56-0.061-1.538c-0.018-0.979-0.083-2.377-0.089-4.053
			c-0.005-1.677-0.042-3.633-0.025-5.728c0.006-2.095,0.051-4.329,0.092-6.563c0.063-2.233,0.122-4.467,0.213-6.56
			c0.079-2.094,0.209-4.046,0.292-5.721c0.083-1.674,0.215-3.068,0.278-4.044c0.085-0.976,0.133-1.533,0.133-1.533
			s0.022,0.559,0.062,1.538c0.018,0.978,0.084,2.376,0.089,4.053c0.005,1.677,0.044,3.633,0.025,5.728
			c-0.006,2.095-0.052,4.329-0.094,6.563c-0.063,2.233-0.123,4.467-0.214,6.56c-0.081,2.093-0.209,4.046-0.292,5.72
			c-0.084,1.675-0.215,3.068-0.278,4.045C394.371,210.78,394.322,211.338,394.322,211.338z"/>
	</g>
	<g>
		<path fill="#A09DA1" d="M414.002,208.74c0,0-0.026-0.547-0.073-1.503c-0.024-0.956-0.101-2.323-0.12-3.962
			c-0.019-1.639-0.071-3.55-0.07-5.598c-0.01-2.048,0.018-4.232,0.041-6.417c0.045-2.184,0.087-4.368,0.161-6.414
			c0.063-2.047,0.179-3.957,0.248-5.594c0.07-1.638,0.191-3.001,0.247-3.956c0.077-0.955,0.121-1.5,0.121-1.5
			s0.026,0.546,0.073,1.503c0.025,0.956,0.103,2.323,0.121,3.961s0.073,3.551,0.07,5.599c0.01,2.048-0.018,4.232-0.042,6.417
			c-0.046,2.184-0.088,4.368-0.163,6.414c-0.063,2.047-0.178,3.957-0.247,5.594c-0.071,1.637-0.191,3-0.246,3.955
			C414.046,208.194,414.002,208.74,414.002,208.74z"/>
	</g>
	<g>
		<path fill="#A09DA1" d="M358.317,216.094c0,0-0.035-0.479-0.095-1.319c-0.039-0.839-0.135-2.038-0.179-3.478
			c-0.042-1.438-0.124-3.117-0.152-4.916c-0.04-1.799-0.045-3.717-0.053-5.636c0.013-1.918,0.021-3.837,0.066-5.636
			c0.032-1.798,0.12-3.477,0.166-4.916c0.046-1.439,0.147-2.638,0.188-3.477c0.063-0.839,0.099-1.319,0.099-1.319
			s0.035,0.479,0.096,1.319c0.039,0.839,0.137,2.039,0.179,3.478c0.042,1.439,0.125,3.118,0.153,4.916
			c0.04,1.799,0.044,3.717,0.052,5.636c-0.013,1.918-0.023,3.838-0.068,5.636c-0.034,1.799-0.119,3.478-0.165,4.916
			c-0.047,1.438-0.146,2.638-0.188,3.478C358.353,215.614,358.317,216.094,358.317,216.094z"/>
	</g>
	<g>
		<path fill="#A09DA1" d="M327.747,193.096c0,0,0.034,0.698,0.094,1.919c0.039,1.221,0.134,2.965,0.177,5.059
			c0.041,2.094,0.121,4.536,0.149,7.152c0.039,2.616,0.042,5.407,0.049,8.198c-0.014,2.791-0.024,5.582-0.071,8.198
			c-0.033,2.617-0.122,5.059-0.168,7.152c-0.047,2.093-0.149,3.837-0.191,5.058c-0.064,1.222-0.1,1.919-0.1,1.919
			s-0.034-0.698-0.095-1.919c-0.039-1.221-0.136-2.966-0.177-5.059c-0.041-2.094-0.123-4.536-0.149-7.152
			c-0.039-2.616-0.042-5.407-0.048-8.198c0.015-2.791,0.026-5.582,0.072-8.198c0.035-2.617,0.122-5.059,0.168-7.152
			c0.048-2.093,0.148-3.837,0.19-5.059C327.71,193.793,327.747,193.096,327.747,193.096z"/>
	</g>
	<g>
		<path fill="#A09DA1" d="M297.152,196.147c0,0,0.042,0.725,0.117,1.993c0.053,1.268,0.168,3.079,0.235,5.253
			c0.063,2.175,0.18,4.711,0.226,7.429c0.048,2.719,0.1,5.617,0.151,8.517c0.006,2.9,0.013,5.8,0.019,8.519
			c0.01,2.719-0.06,5.257-0.079,7.432c-0.023,2.176-0.104,3.988-0.132,5.258c-0.049,1.269-0.078,1.994-0.078,1.994
			s-0.042-0.725-0.117-1.992c-0.053-1.269-0.17-3.08-0.236-5.254c-0.063-2.175-0.183-4.711-0.226-7.429
			c-0.048-2.719-0.099-5.617-0.15-8.517c-0.006-2.9-0.012-5.8-0.018-8.519c-0.008-2.719,0.059-5.257,0.079-7.432
			c0.024-2.175,0.104-3.989,0.131-5.257C297.125,196.873,297.152,196.147,297.152,196.147z"/>
	</g>
	<g>
		<path fill="#A09DA1" d="M232.957,202.272c0,0,0.079,0.78,0.217,2.146c0.117,1.366,0.324,3.315,0.5,5.659
			c0.172,2.344,0.418,5.075,0.601,8.007c0.185,2.931,0.383,6.058,0.58,9.185c0.153,3.129,0.306,6.259,0.449,9.192
			c0.147,2.934,0.206,5.676,0.296,8.023c0.086,2.349,0.097,4.31,0.133,5.68c0.015,1.372,0.023,2.156,0.023,2.156
			s-0.079-0.78-0.217-2.146c-0.117-1.366-0.326-3.315-0.501-5.659c-0.172-2.344-0.42-5.075-0.601-8.007
			c-0.185-2.931-0.382-6.058-0.58-9.185c-0.152-3.129-0.305-6.259-0.448-9.192c-0.145-2.934-0.206-5.676-0.296-8.023
			c-0.086-2.349-0.098-4.31-0.134-5.681C232.966,203.057,232.957,202.272,232.957,202.272z"/>
	</g>
	<g>
		<path fill="#A09DA1" d="M268.993,198.957c0,0,0.047,0.75,0.129,2.063c0.062,1.312,0.189,3.186,0.27,5.437
			c0.077,2.25,0.21,4.875,0.274,7.688c0.066,2.813,0.136,5.813,0.206,8.814c0.025,3.002,0.05,6.004,0.074,8.817
			c0.028,2.814-0.025,5.442-0.03,7.693c-0.009,2.252-0.079,4.129-0.098,5.443c-0.041,1.313-0.064,2.064-0.064,2.064
			s-0.047-0.75-0.13-2.062c-0.062-1.313-0.19-3.187-0.271-5.438c-0.077-2.25-0.213-4.875-0.274-7.688
			c-0.066-2.813-0.136-5.813-0.206-8.814c-0.025-3.002-0.05-6.004-0.073-8.817c-0.026-2.814,0.025-5.442,0.031-7.693
			c0.009-2.252,0.078-4.129,0.097-5.443C268.969,199.708,268.993,198.957,268.993,198.957z"/>
	</g>
	<g>
		<path fill="#A09DA1" d="M157.98,210.031c0,0,0.093,0.844,0.256,2.32c0.142,1.479,0.384,3.588,0.603,6.123
			c0.215,2.536,0.509,5.491,0.745,8.664c0.238,3.172,0.492,6.555,0.746,9.938c0.209,3.387,0.418,6.773,0.615,9.948
			c0.2,3.175,0.308,6.143,0.441,8.685c0.129,2.542,0.175,4.664,0.236,6.147c0.04,1.485,0.062,2.334,0.062,2.334
			s-0.093-0.844-0.256-2.32c-0.142-1.479-0.385-3.587-0.603-6.123c-0.214-2.536-0.512-5.491-0.745-8.664
			c-0.238-3.172-0.492-6.555-0.745-9.938c-0.209-3.387-0.418-6.773-0.614-9.948c-0.198-3.175-0.308-6.143-0.441-8.685
			c-0.128-2.542-0.175-4.664-0.236-6.147C158.003,210.88,157.98,210.031,157.98,210.031z"/>
	</g>
	<g>
		<path fill="#A09DA1" d="M200.496,205.79c0,0,0.074,0.804,0.203,2.212c0.107,1.408,0.301,3.418,0.462,5.833
			c0.157,2.416,0.383,5.231,0.546,8.253c0.166,3.021,0.342,6.243,0.519,9.465c0.131,3.225,0.263,6.449,0.386,9.472
			c0.127,3.022,0.167,5.848,0.242,8.268c0.071,2.419,0.068,4.438,0.095,5.851c0.006,1.413,0.009,2.221,0.009,2.221
			s-0.074-0.804-0.203-2.211c-0.107-1.409-0.303-3.419-0.462-5.834c-0.156-2.416-0.386-5.231-0.546-8.253
			c-0.165-3.021-0.341-6.243-0.518-9.465c-0.131-3.225-0.262-6.449-0.385-9.472c-0.125-3.022-0.167-5.848-0.242-8.268
			c-0.07-2.419-0.068-4.438-0.096-5.851C200.5,206.598,200.496,205.79,200.496,205.79z"/>
	</g>
	<g>
		<path fill="#A09DA1" d="M152.157,296.998c0,0,12.729-2.587,31.822-6.468c9.554-1.902,20.7-4.121,32.643-6.498
			c11.949-2.343,24.695-4.843,37.44-7.342c12.754-2.455,25.508-4.91,37.466-7.212c11.963-2.268,23.13-4.385,32.701-6.198
			c19.157-3.551,31.929-5.917,31.929-5.917s-12.729,2.588-31.821,6.469c-9.554,1.902-20.7,4.121-32.643,6.498
			c-11.949,2.343-24.695,4.842-37.44,7.341c-12.754,2.455-25.509,4.91-37.466,7.212c-11.964,2.268-23.13,4.384-32.701,6.197
			C164.928,294.631,152.157,296.998,152.157,296.998z"/>
	</g>
	<g>
		<path fill="#A09DA1" d="M324.957,259.898c0,0,14.711,4.938,36.779,12.344c11.021,3.741,23.878,8.104,37.654,12.78
			c13.765,4.709,28.447,9.731,43.13,14.753c14.667,5.065,29.335,10.13,43.086,14.878c13.74,4.781,26.563,9.244,37.556,13.069
			c21.957,7.725,36.596,12.875,36.596,12.875s-14.712-4.938-36.779-12.343c-11.021-3.741-23.878-8.105-37.653-12.781
			c-13.765-4.708-28.447-9.73-43.13-14.753c-14.667-5.065-29.335-10.131-43.086-14.879c-13.74-4.781-26.563-9.244-37.555-13.069
			C339.596,265.048,324.957,259.898,324.957,259.898z"/>
	</g>
	<g>
		<path fill="#A09DA1" d="M517.057,226.598c0,0,13.988,2.364,34.971,5.911c10.484,1.813,22.716,3.927,35.821,6.192
			c13.1,2.299,27.072,4.752,41.045,7.204c13.965,2.497,27.93,4.994,41.022,7.335c13.086,2.376,25.299,4.593,35.768,6.492
			c20.924,3.879,34.873,6.465,34.873,6.465s-13.988-2.364-34.971-5.91c-10.484-1.813-22.717-3.927-35.822-6.192
			c-13.099-2.3-27.071-4.753-41.044-7.205c-13.965-2.498-27.93-4.995-41.021-7.336c-13.086-2.375-25.3-4.593-35.769-6.492
			C531.006,229.183,517.057,226.598,517.057,226.598z"/>
	</g>
	<g>
		<path fill="#A09DA1" d="M543.357,342.998c0,0,12.955-5.793,32.388-14.483c9.732-4.31,21.086-9.336,33.251-14.723
			c12.18-5.354,25.17-11.065,38.161-16.777c13.009-5.67,26.018-11.341,38.214-16.656c12.21-5.284,23.605-10.216,33.373-14.443
			c19.568-8.381,32.613-13.969,32.613-13.969s-12.955,5.794-32.387,14.484c-9.732,4.31-21.087,9.336-33.252,14.723
			c-12.179,5.354-25.17,11.065-38.161,16.776c-13.009,5.67-26.019,11.34-38.214,16.655c-12.21,5.284-23.606,10.216-33.374,14.443
			C556.402,337.41,543.357,342.998,543.357,342.998z"/>
	</g>
	<g>
		<path fill="#A09DA1" d="M517.057,226.598c0,0,1.573-0.331,4.326-0.911c2.756-0.563,6.693-1.368,11.419-2.333
			c4.73-0.935,10.25-2.025,16.163-3.193c5.92-1.134,12.234-2.344,18.55-3.554c6.322-1.165,12.646-2.331,18.573-3.423
			c5.934-1.059,11.473-2.047,16.22-2.894c4.753-0.816,8.714-1.496,11.486-1.972c2.776-0.459,4.362-0.721,4.362-0.721
			s-1.573,0.332-4.326,0.912c-2.756,0.563-6.693,1.368-11.419,2.333c-4.73,0.935-10.25,2.024-16.163,3.192
			c-5.92,1.135-12.234,2.344-18.55,3.554c-6.322,1.165-12.646,2.33-18.573,3.423c-5.934,1.059-11.473,2.046-16.22,2.893
			c-4.753,0.816-8.714,1.496-11.486,1.972C518.643,226.335,517.057,226.598,517.057,226.598z"/>
	</g>
	<g>
		<path fill="#A09DA1" d="M518.952,199.463c0,0,1.472,0.161,4.046,0.443c2.573,0.299,6.248,0.726,10.658,1.238
			c4.406,0.543,9.547,1.177,15.055,1.855c5.503,0.714,11.373,1.475,17.243,2.235c5.864,0.806,11.729,1.611,17.226,2.367
			c5.498,0.75,10.619,1.53,15.015,2.158c4.39,0.663,8.048,1.216,10.609,1.603c2.559,0.404,4.021,0.635,4.021,0.635
			s-1.472-0.161-4.047-0.442c-2.572-0.299-6.248-0.726-10.658-1.237c-4.405-0.547-9.552-1.139-15.054-1.856
			c-5.503-0.714-11.373-1.475-17.243-2.236c-5.864-0.806-11.729-1.611-17.226-2.367c-5.493-0.79-10.62-1.526-15.014-2.159
			c-4.391-0.662-8.049-1.215-10.61-1.601C520.414,199.694,518.952,199.463,518.952,199.463z"/>
	</g>
	<g>
		<path fill="#A09DA1" d="M408.023,272.465c0,0,8.967-2.201,22.416-5.502c6.733-1.612,14.589-3.493,23.006-5.509
			c8.426-1.981,17.412-4.096,26.398-6.209c8.997-2.07,17.994-4.14,26.428-6.08c8.442-1.907,16.322-3.687,23.076-5.212
			c13.525-2.973,22.543-4.955,22.543-4.955s-8.966,2.201-22.415,5.503c-6.734,1.612-14.59,3.493-23.007,5.509
			c-8.426,1.981-17.412,4.095-26.398,6.208c-8.997,2.069-17.994,4.14-26.429,6.08c-8.442,1.906-16.321,3.686-23.075,5.211
			C417.041,270.482,408.023,272.465,408.023,272.465z"/>
	</g>
	<g>
		<path fill="#A09DA1" d="M412.69,268.864c0,0,1.842,0.519,5.063,1.426c3.218,0.924,7.814,2.243,13.33,3.826
			c5.507,1.614,11.931,3.496,18.814,5.513c6.873,2.051,14.205,4.237,21.536,6.424c7.318,2.229,14.638,4.459,21.498,6.55
			c6.852,2.124,13.246,4.105,18.727,5.805c5.472,1.729,10.032,3.17,13.224,4.179c3.187,1.025,5.008,1.611,5.008,1.611
			s-1.842-0.519-5.064-1.425c-3.217-0.924-7.813-2.243-13.329-3.826c-5.507-1.614-11.932-3.496-18.814-5.514
			c-6.873-2.05-14.205-4.236-21.536-6.424c-7.318-2.229-14.637-4.46-21.498-6.551c-6.852-2.123-13.245-4.105-18.727-5.805
			c-5.472-1.729-10.031-3.17-13.224-4.178C414.512,269.45,412.69,268.864,412.69,268.864z"/>
	</g>
	<g>
		<path fill="#A09DA1" d="M512.69,304.197c0,0,8.664-3.064,21.66-7.661c6.511-2.261,14.106-4.899,22.244-7.726
			c8.149-2.793,16.843-5.772,25.535-8.753c8.707-2.937,17.414-5.874,25.577-8.628c8.175-2.721,15.804-5.26,22.343-7.437
			c13.104-4.277,21.841-7.129,21.841-7.129s-8.664,3.064-21.659,7.662c-6.511,2.261-14.106,4.898-22.245,7.725
			c-8.149,2.794-16.842,5.773-25.535,8.753c-8.707,2.937-17.414,5.873-25.577,8.627c-8.175,2.721-15.804,5.26-22.344,7.436
			C521.427,301.345,512.69,304.197,512.69,304.197z"/>
	</g>
	<g>
		<path fill="#A09DA1" d="M544.558,238.064c0,0,1.763,0.286,4.847,0.787c3.082,0.518,7.483,1.258,12.766,2.146
			c5.277,0.919,11.434,1.99,18.029,3.139c6.59,1.182,13.619,2.443,20.647,3.704c7.021,1.306,14.042,2.61,20.624,3.834
			c6.576,1.258,12.714,2.433,17.975,3.438c5.255,1.038,9.634,1.902,12.699,2.507c3.063,0.623,4.813,0.979,4.813,0.979
			s-1.763-0.286-4.848-0.786c-3.081-0.519-7.482-1.258-12.766-2.146c-5.276-0.919-11.433-1.99-18.028-3.139
			c-6.59-1.183-13.619-2.443-20.647-3.705c-7.021-1.306-14.042-2.611-20.624-3.835c-6.576-1.258-12.714-2.433-17.975-3.438
			c-5.255-1.037-9.634-1.901-12.699-2.507C546.308,238.42,544.558,238.064,544.558,238.064z"/>
	</g>
	<g>
		<path fill="#A09DA1" d="M63.115,86.729c0,0,4.062,0.12,11.169,0.331c7.107,0.226,17.262,0.476,29.444,0.906
			c24.364,0.841,56.849,1.961,89.334,3.082c32.479,1.288,64.958,2.576,89.318,3.542c12.18,0.47,22.326,0.976,29.43,1.276
			c7.104,0.317,11.163,0.498,11.163,0.498s-4.062-0.12-11.169-0.33c-7.107-0.226-17.262-0.473-29.444-0.906
			c-24.364-0.841-56.849-1.961-89.334-3.083c-32.479-1.288-64.958-2.576-89.318-3.542c-12.18-0.472-22.326-0.976-29.43-1.276
			C67.174,86.91,63.115,86.729,63.115,86.729z"/>
	</g>
</g>
<g id="Calque_2">
	<g>
		<g>
			<path d="M77.981,88.389c17.461,0.641,34.918,0.356,52.362,1.525c17.386,1.165,34.738,2.514,52.169,2.725
				c17.521,0.212,34.769,1.34,52.237,2.633c17.62,1.305,35.376,0.485,53.031,0.682c0.848,0.01,0.812-1.923-0.047-1.913
				c-16.984,0.189-34.147,0.806-51.103-0.301c-17.458-1.14-34.689-2.539-52.2-2.69c-17.48-0.151-34.803-1.623-52.224-2.894
				c-18.062-1.317-36.175-1.356-54.274-1.751C77.056,86.386,77.092,88.356,77.981,88.389L77.981,88.389z"/>
		</g>
	</g>
	<g>
		<g>
			<path d="M77.08,88.243c2.723,6.363,5.966,12.521,8.915,18.784c3.172,6.738,5.061,13.94,8.56,20.547
				c0.446,0.842,1.111-0.147,0.806-0.754c-3.1-6.147-5.452-12.615-7.744-19.1c-2.483-7.027-6.327-13.681-9.583-20.369
				C77.534,86.327,76.771,87.52,77.08,88.243L77.08,88.243z"/>
		</g>
	</g>
	<g>
		<g>
			<path d="M94.569,126.905c0.451,0,0.43-1.016-0.025-1.016C94.093,125.89,94.114,126.905,94.569,126.905L94.569,126.905z"/>
		</g>
	</g>
	<g>
		<g>
			<path d="M94.222,126.936c6.028,10.257,9.312,22.001,14.136,32.846c4.88,10.972,10.809,21.48,15.047,32.732
				c0.461,1.225,1.421-0.183,1.104-1.033c-4.408-11.83-10.732-22.832-15.813-34.375c-4.518-10.265-7.279-22.015-13.805-31.247
				C94.348,125.089,93.926,126.433,94.222,126.936L94.222,126.936z"/>
		</g>
	</g>
	<g>
		<g>
			<path d="M123.97,192.309c0.454,0,0.433-1.023-0.025-1.023C123.49,191.286,123.511,192.309,123.97,192.309L123.97,192.309z"/>
		</g>
	</g>
	<g>
		<g>
			<path d="M124.175,193.132c37.905-2.185,75.78-5.306,113.646-8.086c37.413-2.747,75.028-4.69,112.357-8.374
				c0.787-0.077,0.718-1.83-0.043-1.749c-37.299,3.939-74.956,5.572-112.355,8.434c-37.867,2.897-75.802,5.079-113.641,8.307
				C123.483,191.719,123.524,193.169,124.175,193.132L124.175,193.132z"/>
		</g>
	</g>
	<g>
		<g>
			<path d="M345.98,167.738c26.266-2.864,52.649-3.767,79-5.594c0.846-0.059,0.793-1.936-0.047-1.895
				c-0.199,0.01-0.399,0.02-0.599,0.03c-0.821,0.04-0.771,1.795,0.045,1.835c0.2,0.01,0.4,0.02,0.601,0.03
				c-0.016-0.632-0.031-1.263-0.047-1.895c-26.27,1.69-52.884,2.132-79,5.606C345.096,165.968,345.158,167.828,345.98,167.738
				L345.98,167.738z"/>
		</g>
	</g>
	<g>
		<g>
			<path d="M442.541,163.971c13.411-1.076,26.89-1.287,40.314-2.32c13.31-1.024,26.888-0.966,40.122-2.629
				c0.727-0.092,0.695-1.684-0.041-1.648c-13.384,0.653-26.763,1.472-40.124,2.497c-13.427,1.03-26.897,1.4-40.309,2.554
				C441.811,162.484,441.861,164.025,442.541,163.971L442.541,163.971z"/>
		</g>
	</g>
	<g>
		<g>
			<path d="M381.571,100.391c6.21,0.636,12.739-0.125,19.008,0.027c7.157,0.174,14.312,0.464,21.465,0.776
				c13.188,0.575,26.354,1.523,39.536,2.183c-0.123-0.606-0.247-1.211-0.37-1.817c-0.092,0.053-0.184,0.106-0.275,0.16
				c-0.736-0.015-0.729,1.535-0.111,1.729c0.447,0.141,0.519,0.146,0.927-0.111c0.608-0.383,0.661-1.839-0.219-1.919
				c-13.125-1.194-26.368-1.652-39.535-2.168c-7.152-0.28-14.307-0.507-21.463-0.665c-6.202-0.137-13.033-0.844-19.095,0.643
				C380.976,99.341,381.113,100.344,381.571,100.391L381.571,100.391z"/>
		</g>
	</g>
	<g>
		<g>
			<path d="M297.77,106.509c0.454,0,0.433-1.023-0.025-1.023C297.29,105.486,297.311,106.509,297.77,106.509L297.77,106.509z"/>
		</g>
	</g>
	<g>
		<g>
			<path d="M297.837,105.483c-0.24-0.144-0.486-0.277-0.737-0.401c-0.04,0.62-0.08,1.24-0.119,1.86
				c25.659-0.472,51.389,0.051,76.998,1.729c0.762,0.05,0.746-1.7-0.043-1.749c-25.669-1.589-51.268-2.279-77.002-1.87
				c-1.016,0.016-0.618,2.28,0.211,1.852c0.245-0.123,0.484-0.255,0.718-0.397C298.217,106.305,298.179,105.675,297.837,105.483
				L297.837,105.483z"/>
		</g>
	</g>
	<g>
		<g>
			<path d="M440.324,171.603c-0.794,12.581-0.883,25.132-1.872,37.719c-0.09,1.142,1.271,2.019,1.408,0.551
				c0.027-0.288,0.055-0.576,0.082-0.865c0.067-0.723-0.67-1.721-1.114-0.677c-0.104,0.242-0.206,0.484-0.31,0.727
				c0.447,0.271,0.895,0.544,1.342,0.815c0.962-12.799,1.604-25.456,1.729-38.301C441.603,170.361,440.396,170.448,440.324,171.603
				L440.324,171.603z"/>
		</g>
	</g>
	<g>
		<g>
			<path d="M423.397,172.443c-0.064,11.482,0.142,22.829-0.894,34.3c-0.096,1.069,1.193,1.857,1.305,0.51
				c0.928-11.228,2.594-23.862,0.291-34.972C423.971,171.658,423.401,171.913,423.397,172.443L423.397,172.443z"/>
		</g>
	</g>
	<g>
		<g>
			<path d="M519.606,165.583c-0.562,5.087-0.465,10.193-0.354,15.303c0.13,5.989-0.65,11.979-0.473,17.926
				c0.025,0.851,1.033,1.218,1.14,0.206c1.164-11.085,0.433-22.115,0.801-33.233C520.749,164.928,519.714,164.614,519.606,165.583
				L519.606,165.583z"/>
		</g>
	</g>
	<g>
		<g>
			<path d="M439.272,211.25c3.395-0.361,6.611-0.691,9.982-1.347c3.073-0.599,6.181-0.675,9.192-1.384
				c0.704-0.165,0.541-2.029-0.214-1.883c-3.002,0.582-5.998,0.727-9.025,1.347c-1.922,0.395-3.844,0.795-5.768,1.173
				c-1.602,0.313-2.859-0.02-4.313,0.815C438.749,210.188,438.686,211.313,439.272,211.25L439.272,211.25z"/>
		</g>
	</g>
	<g>
		<g>
			<path d="M475.381,206.763c6.503-1.454,12.766-2.616,19.394-3.251c0.648-0.062,0.593-1.357-0.035-1.43
				c-6.42-0.732-13.354,1.34-19.573,2.79C474.453,205.038,474.636,206.929,475.381,206.763L475.381,206.763z"/>
		</g>
	</g>
	<g>
		<g>
			<path d="M509.38,201.723c1.466-0.329,2.92-0.7,4.38-1.056c1.828-0.445,3.736-0.515,5.533-1.01
				c0.454-0.125,0.424-1.219-0.033-1.325c-3.155-0.731-7.037,0.793-10.086,1.577C508.495,200.083,508.664,201.884,509.38,201.723
				L509.38,201.723z"/>
		</g>
	</g>
	<g>
		<g>
			<path d="M413.937,209.668c1.536-0.482,3.088-0.785,4.679-1.014c1.285-0.184,2.64-0.243,3.854-0.716
				c0.423-0.165,0.322-1.045-0.125-1.103c-1.41-0.182-2.965,0.042-4.383,0.168c-1.504,0.133-2.96,0.425-4.384,0.924
				C412.862,208.179,413.087,209.935,413.937,209.668L413.937,209.668z"/>
		</g>
	</g>
	<g>
		<g>
			<path d="M423.273,207.738c2.538,1.356,5.513,1.647,8.238,2.5c2.266,0.71,5.095,1.343,7.463,1.059
				c0.638-0.077,0.574-1.31-0.035-1.398c-2.753-0.4-5.502-0.82-8.237-1.348c-2.512-0.484-4.751-1.871-7.358-1.912
				C422.832,206.631,422.942,207.562,423.273,207.738L423.273,207.738z"/>
		</g>
	</g>
	<g>
		<g>
			<path d="M380.521,213.988c4.462-1.398,8.862-2.001,13.454-2.695c0.609-0.093,0.596-1.365-0.034-1.391
				c-4.594-0.18-9.388,1.164-13.747,2.504C379.537,212.608,379.746,214.23,380.521,213.988L380.521,213.988z"/>
		</g>
	</g>
	<g>
		<g>
			<path d="M349.176,217.599c2.776,0.131,5.662-0.811,8.394-1.242c0.485-0.077,0.48-1.12-0.027-1.117
				c-2.748,0.017-5.715,0.188-8.406,0.758C348.455,216.142,348.435,217.563,349.176,217.599L349.176,217.599z"/>
		</g>
	</g>
	<g>
		<g>
			<path d="M349.537,235.225c0.763-7.885-0.056-15.86,0.061-23.769c0.123-8.364,1.673-16.927,0.862-25.276
				c-0.126-1.294-1.399-1.297-1.405,0.034c-0.031,7.18-0.154,14.337-0.492,21.51c-0.425,9.023,0.71,18.055-0.185,27.047
				C348.283,235.722,349.42,236.423,349.537,235.225L349.537,235.225z"/>
		</g>
	</g>
	<g>
		<g>
			<path d="M328.184,238.903c6.762-0.552,13.509-2.356,20.192-3.521c0.679-0.118,0.679-1.556-0.038-1.57
				c-6.754-0.132-13.529,2.029-20.208,2.88C327.15,236.817,327.207,238.982,328.184,238.903L328.184,238.903z"/>
		</g>
	</g>
	<g>
		<g>
			<path d="M269.258,247.634c3.642,1.381,8.061-0.183,11.703-1.097c5.491-1.377,10.795-2.887,16.422-3.677
				c0.939-0.132,0.883-2.215-0.052-2.125c-4.205,0.407-8.269,1.326-12.318,2.498c-5.279,1.527-10.347,2.154-15.672,3.108
				C268.812,246.437,268.768,247.447,269.258,247.634L269.258,247.634z"/>
		</g>
	</g>
	<g>
		<g>
			<path d="M202.578,257.869c5.707,0.204,11.44-1.097,17.01-2.218c5.251-1.057,10.606-1.832,15.784-3.211
				c0.791-0.211,0.604-2.308-0.242-2.128c-10.871,2.315-21.551,4.554-32.595,5.814C201.763,256.216,201.795,257.841,202.578,257.869
				L202.578,257.869z"/>
		</g>
	</g>
	<g>
		<g>
			<path d="M128.382,269.81c10.993-1.642,22.536-2.64,33.281-5.498c0.392-0.104,0.315-1.06-0.119-1.049
				c-10.954,0.274-22.363,2.913-33.211,4.523C127.426,267.921,127.517,269.938,128.382,269.81L128.382,269.81z"/>
		</g>
	</g>
	<g>
		<g>
			<path d="M121.903,189.277c0.83,26.599,2.826,53.233,5.121,79.739c0.117,1.351,1.569,1.348,1.466-0.035
				c-0.026-0.355-0.053-0.711-0.079-1.065c-0.069-0.932-1.203-1.408-1.291-0.233c-0.026,0.346-0.052,0.691-0.078,1.037
				c0.482,0.087,0.965,0.174,1.447,0.262c-2.34-26.546-3.338-53.179-5.546-79.729C122.864,188.292,121.872,188.292,121.903,189.277
				L121.903,189.277z"/>
		</g>
	</g>
	<g>
		<g>
			<path d="M61.417,166.542c1.761,8.957,1.134,18.185,2.389,27.241c1.44,10.39,2.806,20.725,2.942,31.233
				c0.018,1.391,1.495,1.348,1.482-0.037c-0.096-10.066-1.292-20.019-2.812-29.954c-0.882-5.763-1.45-11.429-1.551-17.258
				c-0.069-4.002-0.264-8.017-1.561-11.828C62.011,165.069,61.302,165.955,61.417,166.542L61.417,166.542z"/>
		</g>
	</g>
	<g>
		<g>
			<path d="M61.823,168.059c6.999-26.384,11.132-53.379,17.556-79.859c0.216-0.893-0.982-2.018-1.314-0.798
				c-3.372,12.384-5.216,25.462-7.691,38.065c-2.746,13.982-5.972,27.993-9.483,41.802
				C60.715,167.962,61.552,169.082,61.823,168.059L61.823,168.059z"/>
		</g>
	</g>
	<g>
		<g>
			<path d="M157.019,210.069c1.683,8.867,0.931,17.938,1.545,26.904c0.604,8.802,1.249,17.661,2.05,26.443
				c0.125,1.366,1.588,1.369,1.487-0.037c-0.637-8.829-1.308-17.62-2.093-26.441c-0.813-9.14,0.102-18.38-1.78-27.412
				C157.965,208.269,156.828,209.063,157.019,210.069L157.019,210.069z"/>
		</g>
	</g>
	<g>
		<g>
			<path d="M199.739,206.045c1.063,8.505,1.073,16.954,1.101,25.509c0.014,4.319,0.189,8.627,0.587,12.929
				c0.12,1.29,1.783,11.023,1.097,11.513c0.375,0.312,0.749,0.623,1.124,0.935c-0.011-0.25-0.033-0.499-0.065-0.748
				c-0.067-0.658-0.848-1.454-1.177-0.452c-0.144,0.437-0.227,0.778-0.219,1.236c0.009,0.606,0.464,1.4,1.124,0.935
				c1.657-1.171,0.354-4.937,0.2-6.547c-0.511-5.37-1.011-10.729-1.175-16.122c-0.3-9.889,0.341-19.905-1.495-29.681
				C200.62,204.379,199.627,205.15,199.739,206.045L199.739,206.045z"/>
		</g>
	</g>
	<g>
		<g>
			<path d="M157.64,211.021c13.863,0.919,28.396-2.322,42.137-3.879c0.734-0.083,0.656-1.72-0.04-1.625
				c-13.987,1.911-28.152,2.408-42.131,4.121C156.991,209.714,157.021,210.98,157.64,211.021L157.64,211.021z"/>
		</g>
	</g>
	<g>
		<g>
			<path d="M233.643,204.222c11.32-0.781,22.973-2.413,34.131-4.399c0.603-0.107,0.576-1.452-0.034-1.383
				c-11.391,1.296-22.696,3.345-34.137,4.134C232.864,202.625,232.917,204.271,233.643,204.222L233.643,204.222z"/>
		</g>
	</g>
	<g>
		<g>
			<path d="M296.578,197.582c5.491,0.321,11.219-0.419,16.667-1.113c4.771-0.608,10.009-0.803,14.639-2.057
				c0.464-0.125,0.379-1.287-0.143-1.255c-10.447,0.642-20.73,2.407-31.206,2.723C295.773,195.903,295.821,197.538,296.578,197.582
				L296.578,197.582z"/>
		</g>
	</g>
	<g>
		<g>
			<path d="M394.71,178.641c3.491,0.425,6.709-0.674,10.108-1.263c3.244-0.563,6.472-0.67,9.756-0.769
				c0.635-0.02,0.597-1.449-0.035-1.422c-2.778,0.122-5.551,0.059-8.292,0.608c-3.835,0.769-7.737,0.541-11.578,1.159
				C393.915,177.075,393.958,178.549,394.71,178.641L394.71,178.641z"/>
		</g>
	</g>
	<g>
		<g>
			<path d="M367.181,180.993c4.485-0.576,8.99-0.898,13.5-1.2c0.893-0.06,0.83-2.05-0.049-1.991c-4.51,0.301-9.015,0.625-13.5,1.2
				C366.239,179.116,366.321,181.104,367.181,180.993L367.181,180.993z"/>
		</g>
	</g>
	<g>
		<g>
			<path d="M358.611,215.383c0.397-10.221,0.634-20.475,0.7-30.702c0.008-1.23-1.3-1.186-1.308,0.032
				c-0.066,10.227-0.303,20.481-0.7,30.701C357.255,216.648,358.564,216.592,358.611,215.383L358.611,215.383z"/>
		</g>
	</g>
	<g>
		<g>
			<path d="M380.133,179.578c0.685,4.983-0.225,10.807-0.161,15.913c0.07,5.588,0.157,11.645-0.552,17.159
				c-0.135,1.048,1.105,1.811,1.273,0.498c0.753-5.854,0.365-11.786,0.586-17.689c0.12-3.207-0.269-6.237,0.115-9.474
				c0.279-2.361,0.311-4.611-0.013-6.967C381.2,177.705,379.991,178.542,380.133,179.578L380.133,179.578z"/>
		</g>
	</g>
	<g>
		<g>
			<path d="M394.781,178.593c0.884,0,0.843-1.991-0.049-1.991C393.848,176.602,393.889,178.593,394.781,178.593L394.781,178.593z"/>
		</g>
	</g>
	<g>
		<g>
			<path d="M394.003,178.014c-0.358,10.832-0.317,21.465-0.2,32.3c0.013,1.228,1.321,1.19,1.308-0.031
				c-0.118-10.833-0.159-21.47,0.2-32.301C395.352,176.748,394.043,176.803,394.003,178.014L394.003,178.014z"/>
		</g>
	</g>
	<g>
		<g>
			<path d="M414.002,176.914c0.111,4.846-0.73,9.413-0.21,14.263c0.586,5.448,0.015,11.541-0.472,16.973
				c-0.094,1.042,1.155,1.817,1.273,0.498c0.417-4.647,0.44-9.293,0.577-13.955c0.103-3.519-0.536-6.92-0.277-10.448
				c0.183-2.487,0.474-4.861,0.417-7.363C415.282,175.656,413.975,175.689,414.002,176.914L414.002,176.914z"/>
		</g>
	</g>
	<g>
		<g>
			<path d="M458.994,208.247c0.367-5.14,0.339-10.296,0.604-15.442c0.287-5.574,1.287-11.142,1.213-16.723
				c-0.017-1.227-1.324-1.19-1.309,0.032c0.061,4.465-0.749,8.893-1.019,13.346c-0.368,6.091-0.329,12.205-0.763,18.289
				C457.646,208.786,458.9,209.568,458.994,208.247L458.994,208.247z"/>
		</g>
	</g>
	<g>
		<g>
			<path d="M460.882,176.293c4.81-0.36,9.561-1.313,14.399-1.2c0.879,0.021,0.846-1.97-0.049-1.991
				c-4.839-0.114-9.59,0.839-14.399,1.2C459.94,174.369,460.005,176.359,460.882,176.293L460.882,176.293z"/>
		</g>
	</g>
	<g>
		<g>
			<path d="M475.002,173.914c0.8,10.38,0.127,21.273-0.781,31.635c-0.092,1.041,1.158,1.817,1.273,0.498
				c0.921-10.508,1.628-21.625,0.816-32.166C476.217,172.672,474.908,172.684,475.002,173.914L475.002,173.914z"/>
		</g>
	</g>
	<g>
		<g>
			<path d="M495.82,171.749c-0.88,4.277-0.36,8.533-0.518,12.865c-0.211,5.837-0.351,11.648-1.183,17.435
				c-0.151,1.049,1.086,1.807,1.273,0.498c0.6-4.171,0.844-8.221,0.979-12.428c0.187-5.806-0.444-12.203,0.721-17.873
				C497.311,171.195,496.085,170.461,495.82,171.749L495.82,171.749z"/>
		</g>
	</g>
	<g>
		<g>
			<path d="M510.193,200.646c0.948-4.992,0.809-10.174,1.23-15.228c0.412-4.949,1.125-9.839,1.57-14.772
				c0.095-1.042-1.154-1.817-1.273-0.498c-0.447,4.94-1.233,9.806-1.571,14.771c-0.341,5.005-0.297,10.317-1.229,15.229
				C508.72,201.201,509.948,201.94,510.193,200.646L510.193,200.646z"/>
		</g>
	</g>
	<g>
		<g>
			<path d="M496.382,173.093c5.165-0.311,10.311-0.729,15.399-1.7c0.887-0.169,0.786-2.151-0.049-1.991
				c-5.089,0.971-10.234,1.389-15.399,1.7C495.441,171.156,495.502,173.146,496.382,173.093L496.382,173.093z"/>
		</g>
	</g>
	<g>
		<g>
			<path d="M232.996,202.805c-1.488,16.105,2.63,31.848,2.198,47.943c-0.036,1.329,1.316,1.239,1.395-0.035
				c0.458-7.42,0.091-14.545-0.991-21.889c-1.288-8.733-1.879-17.016-1.599-25.84C234.022,202.217,233.076,201.93,232.996,202.805
				L232.996,202.805z"/>
		</g>
	</g>
	<g>
		<g>
			<path d="M268.239,199.012c0.005,8.386-0.108,16.47,0.512,24.843c0.556,7.497,0.6,15.115,0.391,22.629
				c-0.04,1.412,1.458,1.352,1.497-0.037c0.209-7.525,0.026-15.113-0.396-22.628c-0.209-3.728-0.767-7.423-0.982-11.149
				c-0.264-4.548,0.206-9.132,0.146-13.686C269.394,197.884,268.238,197.921,268.239,199.012L268.239,199.012z"/>
		</g>
	</g>
	<g>
		<g>
			<path d="M296.969,197.498c0.444,0,0.423-1-0.024-1C296.501,196.498,296.521,197.498,296.969,197.498L296.969,197.498z"/>
		</g>
	</g>
	<g>
		<g>
			<path d="M296.226,197.279c-0.396,14.617-0.355,29.72,1.219,44.27c0.042,0.388,0.529,1.597,1.094,0.91
				c0.311-0.379,0.386-0.723,0.359-1.21c-0.019-0.353-0.456-1.344-0.934-0.777c0.055-0.008,0.11-0.017,0.166-0.024
				c0.247,0.355,0.493,0.711,0.739,1.066c-0.833-14.769-1.184-29.48-1.448-44.264C297.4,196.12,296.256,196.172,296.226,197.279
				L296.226,197.279z"/>
		</g>
	</g>
	<g>
		<g>
			<path d="M327.139,194.209c-0.865,14.386,1.516,28.74-0.533,43.081c-0.145,1.019,1.061,1.75,1.234,0.482
				c1.96-14.291,0.542-29.207,0.267-43.587C328.09,193.259,327.192,193.323,327.139,194.209L327.139,194.209z"/>
		</g>
	</g>
	<g>
		<g>
			<path d="M287.436,95.514c10.571,12.753,21.552,25.09,31.803,38.124c10.744,13.659,20.635,27.858,30.861,41.896
				c0.736,1.011,1.403-0.776,0.914-1.471c-19.372-27.508-39.472-55.558-63.034-79.691C287.47,93.849,287.122,95.135,287.436,95.514
				L287.436,95.514z"/>
		</g>
	</g>
	<g>
		<g>
			<path d="M374.08,108.044c7.184,9.076,16.27,16.787,24.289,25.117c9.14,9.493,17.784,19.421,26.856,28.969
				c0.775,0.815,1.25-1.241,0.664-1.865c-16.887-17.99-33.454-36.172-51.339-53.208C374.081,106.61,373.825,107.722,374.08,108.044
				L374.08,108.044z"/>
		</g>
	</g>
	<g>
		<g>
			<path d="M381.406,100.361c9.384,11.497,19.545,21.888,30.274,32.11c10.763,10.254,20.046,21.897,30.979,31.96
				c0.754,0.694,1.159-1.139,0.594-1.668c-10.437-9.751-19.362-20.96-29.605-30.922c-5.23-5.087-10.67-9.953-15.78-15.162
				c-5.532-5.641-10.504-11.777-15.868-17.566C381.465,98.535,381.063,99.941,381.406,100.361L381.406,100.361z"/>
		</g>
	</g>
	<g>
		<g>
			<path d="M374.662,108.21c1.068,0.449,2.448-1.758,3.123-2.63c1.407-1.819,2.552-3.945,4.241-5.532
				c0.45-0.422,0.076-1.859-0.537-1.303c-1.408,1.278-2.465,2.99-3.622,4.485c-0.715,0.924-1.439,1.857-2.211,2.734
				c-0.239,0.271-0.489,0.532-0.77,0.76c-0.09,0.06-0.165,0.135-0.223,0.226c-0.272,0.438,0.228-0.063-0.031,0.04
				C374.197,107.163,374.258,108.041,374.662,108.21L374.662,108.21z"/>
		</g>
	</g>
	<g>
		<g>
			<path d="M460.896,102.929c11.063,8.238,20.692,18.293,31.029,27.398c5.031,4.432,9.99,8.942,14.858,13.553
				c5.262,4.984,10.052,10.834,15.871,15.168c0.905,0.674,1.1-1.184,0.605-1.702c-9.652-10.132-20.18-19.619-30.679-28.865
				c-10.28-9.054-20.027-19.005-31.164-27.016C460.671,100.929,460.346,102.52,460.896,102.929L460.896,102.929z"/>
		</g>
	</g>
	<g>
		<g>
			<path d="M67.648,226.267c19.604,14.627,39.269,29.22,59.2,43.399c0.887,0.63,1.284-1.262,0.618-1.736
				c-19.931-14.179-39.596-28.771-59.2-43.399C67.396,223.882,66.993,225.777,67.648,226.267L67.648,226.267z"/>
		</g>
	</g>
	<g>
		<g>
			<path d="M161.366,263.969c7.156,0.819,14.4-2.093,21.379-3.261c3.772-0.631,7.577-1.071,11.377-1.497
				c3.08-0.345,6.62-0.27,9.483-1.576c0.157-0.072,0.154-0.514-0.055-0.482c-6.925,1.023-13.908,1.687-20.824,2.813
				c-7.186,1.171-14.034,3.309-21.379,3.262C161.013,263.225,161.042,263.932,161.366,263.969L161.366,263.969z"/>
		</g>
	</g>
	<g>
		<g>
			<path d="M161.363,262.447c6.016-0.889,11.978-2.446,17.95-3.604c6.182-1.198,12.414-2.426,18.646-3.315
				c0.114-0.017,0.11-0.25-0.006-0.258c-3.019-0.198-6.174,0.547-9.151,1.005c-3.184,0.489-6.349,1.103-9.51,1.718
				c-5.988,1.164-12.124,2.268-17.985,3.965C161.129,262.009,161.162,262.477,161.363,262.447L161.363,262.447z"/>
		</g>
	</g>
	<g>
		<g>
			<path d="M197.413,255.603c0.725,0.577,1.589,0.946,2.435,1.309c0.715,0.306,1.614,0.896,2.388,0.669
				c0.233-0.069,0.223-0.521,0.099-0.669c-0.507-0.607-1.271-0.74-1.996-1.022c-0.912-0.355-1.787-0.827-2.712-1.142
				C197.201,254.603,197.171,255.41,197.413,255.603L197.413,255.603z"/>
		</g>
	</g>
	<g>
		<g>
			<path d="M196.158,210.848c0.044,0,0.042-0.1-0.003-0.1C196.111,210.748,196.113,210.848,196.158,210.848L196.158,210.848z"/>
		</g>
	</g>
	<g>
		<g>
			<path d="M196.584,207.824c-0.055,0.012-0.083-0.009-0.083-0.062c-0.087-0.257-0.321-0.052-0.311,0.137
				c0.001,0.021,0.002,0.04,0.003,0.06c0.006,0.108,0.053,0.259,0.184,0.265c0.072,0.004,0.148-0.033,0.216-0.053
				C196.716,208.134,196.698,207.861,196.584,207.824L196.584,207.824z"/>
		</g>
	</g>
	<g>
		<g>
			<path d="M196.064,207.005c0.733,8,1.709,15.876,2,23.922c0.146,4.012,0.264,8.024,0.45,12.034
				c0.188,4.055,0.708,8.276-0.175,12.274c-0.119,0.537,0.598,1.226,0.795,0.483c0.938-3.534,0.556-7.34,0.361-10.951
				c-0.232-4.308-0.333-8.621-0.481-12.933c-0.279-8.164-0.166-17.036-2.379-24.962
				C196.505,206.403,196.022,206.544,196.064,207.005L196.064,207.005z"/>
		</g>
	</g>
	<g>
		<g>
			<path d="M176.89,209.317c2.196,16.033,2.595,32.151,3.428,48.291c0.042,0.816,0.918,0.802,0.877-0.021
				c-0.813-16.067-0.442-32.7-3.772-48.51C177.305,208.513,176.831,208.882,176.89,209.317L176.89,209.317z"/>
		</g>
	</g>
	<g>
		<g>
			<path d="M264.303,199.804c-0.341,7.591,0.402,15.293,0.618,22.886c0.213,7.488,0.418,15.036-0.035,22.52
				c-0.043,0.718,0.87,0.976,0.931,0.168c0.546-7.191,0.295-14.513,0.115-21.718c-0.198-7.912-0.252-15.998-1.121-23.868
				C264.759,199.321,264.324,199.325,264.303,199.804L264.303,199.804z"/>
		</g>
	</g>
	<g>
		<g>
			<path d="M235.16,252.342c0.128,0,0.123-0.289-0.007-0.289C235.025,252.053,235.031,252.342,235.16,252.342L235.16,252.342z"/>
		</g>
	</g>
	<g>
		<g>
			<path d="M234.771,252.564c5.758,0.296,11.712-1.229,17.319-2.363c5.766-1.166,11.782-2.632,17.684-2.731
				c0.599-0.011,0.566-1.357-0.033-1.344c-5.589,0.131-11.296,1.474-16.766,2.558c-6.08,1.204-12.083,2.045-18.231,2.748
				C234.24,251.489,234.263,252.538,234.771,252.564L234.771,252.564z"/>
		</g>
	</g>
	<g>
		<g>
			<path d="M264.551,245.528c0.423,0.478,1.002,0.593,1.597,0.761c0.665,0.188,1.205,0.539,1.83,0.783
				c0.545,0.214,0.499-0.757,0.358-1.011c-0.312-0.56-1.054-0.784-1.627-0.963c-0.619-0.192-1.394-0.499-2.042-0.344
				C264.395,244.82,264.409,245.368,264.551,245.528L264.551,245.528z"/>
		</g>
	</g>
	<g>
		<g>
			<path d="M235.764,250.291c2.427,0.431,5.157-0.288,7.572-0.677c2.52-0.404,5.025-0.907,7.528-1.399
				c4.851-0.952,9.812-1.678,14.595-2.922c0.381-0.1,0.302-1.012-0.115-1.011c-2.36,0.008-4.736,0.795-7.053,1.215
				c-2.491,0.453-4.974,0.954-7.458,1.441c-2.504,0.49-5.012,0.962-7.528,1.388c-2.487,0.422-5.256,0.46-7.606,1.391
				C235.472,249.807,235.537,250.251,235.764,250.291L235.764,250.291z"/>
		</g>
	</g>
	<g>
		<g>
			<path d="M248.467,202c0.306,7.689,0.401,15.369,0.441,23.067c0.021,3.924,0.027,7.849,0.033,11.772
				c0.005,3.512-0.329,7.2,0.142,10.682c0.055,0.409,0.5,0.377,0.554-0.014c0.477-3.478,0.134-7.179,0.136-10.688
				c0.003-3.924,0.003-7.848-0.037-11.772c-0.04-3.876-0.203-7.751-0.221-11.627c-0.018-3.807,0.03-7.739-0.873-11.461
				C248.606,201.809,248.461,201.862,248.467,202L248.467,202z"/>
		</g>
	</g>
	<g>
		<g>
			<path d="M298.161,242.357c2.104,0.237,4.408-0.477,6.488-0.843c2.479-0.437,4.961-0.852,7.444-1.261
				c2.507-0.412,5.018-0.807,7.527-1.201c1.963-0.309,4.18-0.502,6.016-1.269c0.272-0.113,0.252-0.804-0.089-0.788
				c-2,0.09-3.975,0.733-5.952,1.048c-2.51,0.399-5.019,0.806-7.527,1.219c-2.483,0.409-4.964,0.827-7.444,1.26
				c-2.143,0.374-4.548,0.53-6.5,1.521C298.014,242.1,298.025,242.342,298.161,242.357L298.161,242.357z"/>
		</g>
	</g>
	<g>
		<g>
			<path d="M298.164,240.494c3.924,0.486,8.172-0.753,11.974-1.622c4.247-0.971,8.481-1.869,12.83-2.222
				c0.403-0.033,0.383-0.904-0.022-0.906c-3.938-0.017-8.08,1.169-11.917,1.991c-4.266,0.915-8.629,1.286-12.88,2.165
				C297.89,239.954,297.895,240.461,298.164,240.494L298.164,240.494z"/>
		</g>
	</g>
	<g>
		<g>
			<path d="M322.695,236.796c1.263,0.38,2.573,0.258,3.793,0.855c0.482,0.236,0.615-0.901,0.173-1.111
				c-1.141-0.542-2.752-0.887-3.985-0.535C322.396,236.085,322.431,236.716,322.695,236.796L322.695,236.796z"/>
		</g>
	</g>
	<g>
		<g>
			<path d="M323.068,236.291c1.004-2.282,0.964-5.029,0.915-7.48c-0.07-3.543-0.417-7.076-0.497-10.621
				c-0.171-7.604,0.511-15.201,0.033-22.801c-0.042-0.671-0.767-0.662-0.723,0.018c0.451,6.957-0.066,13.917,0.004,20.88
				c0.068,6.689,0.861,13.199,0.035,19.863C322.815,236.305,322.974,236.505,323.068,236.291L323.068,236.291z"/>
		</g>
	</g>
	<g>
		<g>
			<path d="M308.8,197.26c0.098-0.095,0.195-0.19,0.293-0.286c-0.119-0.132-0.237-0.264-0.355-0.396
				c-0.565,6.773,0.109,13.689,0.298,20.47c0.099,3.553,0.214,7.104,0.272,10.658c0.055,3.398-0.502,7.08,0.16,10.422
				c0.08,0.401,0.554,0.425,0.583-0.015c0.443-6.662,0.09-13.45-0.192-20.115c-0.3-7.103-0.264-14.243-0.657-21.336
				c-0.015-0.267-0.309-0.527-0.443-0.17c-0.13,0.348-0.151,0.384-0.059,0.73C308.714,197.274,308.76,197.313,308.8,197.26
				L308.8,197.26z"/>
		</g>
	</g>
	<g>
		<g>
			<path d="M376.708,179.604c-0.58,10.849-0.948,21.74-0.985,32.604c-0.003,0.814,0.869,0.788,0.866-0.021
				c-0.018-5.437-0.057-10.87,0.164-16.303c0.219-5.406,0.706-10.882,0.452-16.292C377.184,179.119,376.733,179.146,376.708,179.604
				L376.708,179.604z"/>
		</g>
	</g>
	<g>
		<g>
			<path d="M376.074,212.73c0.714,0.353,1.498,0.495,2.259,0.713c0.362,0.104,1.17,0.485,1.269-0.15
				c0.102-0.655-0.574-0.93-1.079-1.068c-0.755-0.208-1.527-0.356-2.283-0.561C375.699,211.518,375.678,212.535,376.074,212.73
				L376.074,212.73z"/>
		</g>
	</g>
	<g>
		<g>
			<path d="M358.17,216.553c6.794-0.194,13.723-1.782,20.4-2.973c0.519-0.093,0.464-1.25-0.028-1.164
				c-6.787,1.183-13.604,1.966-20.399,3.027C357.661,215.519,357.668,216.567,358.17,216.553L358.17,216.553z"/>
		</g>
	</g>
	<g>
		<g>
			<path d="M358.167,214.996c5.898-0.83,11.928-1.572,17.683-3.147c0.375-0.103,0.261-1.022-0.186-0.9
				c-5.773,1.581-11.807,1.771-17.586,3.267C357.79,214.29,357.846,215.041,358.167,214.996L358.167,214.996z"/>
		</g>
	</g>
	<g>
		<g>
			<path d="M366.116,184.003c-0.108,4.72-0.036,9.451-0.065,14.172c-0.031,4.955,0.38,9.943-0.041,14.886
				c-0.034,0.404,0.482,1.06,0.662,0.402c0.456-1.674,0.345-3.37,0.286-5.093c-0.095-2.771-0.135-5.546-0.177-8.319
				c-0.081-5.352-0.059-10.71-0.182-16.061C366.587,183.537,366.126,183.556,366.116,184.003L366.116,184.003z"/>
		</g>
	</g>
	<g>
		<g>
			<path d="M394.768,211.239c3.197,0.459,6.457-0.073,9.623-0.54c2.68-0.395,6.257-0.642,8.62-2.038
				c0.173-0.103,0.183-0.519-0.061-0.536c-2.729-0.195-5.859,1.119-8.584,1.582c-3.198,0.544-6.393,0.532-9.62,0.649
				C394.341,210.371,394.388,211.185,394.768,211.239L394.768,211.239z"/>
		</g>
	</g>
	<g>
		<g>
			<path d="M394.565,210.13c4.826,0.242,9.871-1.172,14.491-2.456c0.397-0.111,0.277-1.067-0.197-0.953
				c-4.768,1.149-9.475,1.975-14.31,2.745C394.258,209.512,394.263,210.114,394.565,210.13L394.565,210.13z"/>
		</g>
	</g>
	<g>
		<g>
			<path d="M408.688,208.24c0.643,0.215,1.28,0.439,1.937,0.608c0.536,0.138,1.183,0.36,1.615-0.051
				c0.107-0.102,0.09-0.306-0.011-0.404c-0.389-0.384-0.947-0.306-1.467-0.425c-0.659-0.151-1.297-0.397-1.936-0.613
				C408.404,207.213,408.323,208.118,408.688,208.24L408.688,208.24z"/>
		</g>
	</g>
	<g>
		<g>
			<path d="M410.537,176.593c0.002,0.051-0.014,0.037,0.076-0.059c0.069-0.074,0.064-0.206-0.007-0.276
				c-0.245-0.241-0.403,0.017-0.424,0.271C410.153,176.895,410.555,176.98,410.537,176.593L410.537,176.593z"/>
		</g>
	</g>
	<g>
		<g>
			<path d="M409.471,208.32c1.151-5.354,0.641-11.075,1.103-16.524c0.425-5.007,1.21-9.974,1.161-15.008
				c-0.007-0.71-0.745-0.683-0.754,0.019c-0.063,5.25-0.822,10.462-1.202,15.695c-0.375,5.167,0.108,10.48-0.937,15.573
				C408.734,208.595,409.335,208.955,409.471,208.32L409.471,208.32z"/>
		</g>
	</g>
	<g>
		<g>
			<path d="M401.465,177.405c0.369,5.204,0.244,10.313-0.014,15.521c-0.25,5.052-0.029,10.041,0.29,15.083
				c0.05,0.777,0.819,0.758,0.831-0.02c0.076-5.035-0.431-10.032-0.232-15.085c0.203-5.187,0.617-10.488-0.305-15.631
				C401.947,176.775,401.434,176.962,401.465,177.405L401.465,177.405z"/>
		</g>
	</g>
	<g>
		<g>
			<path d="M458.5,207.999c0,2.806,13.998-1.662,16.063-1.967c0.208-0.03,0.199-0.451-0.012-0.469
				c-2.977-0.251-6.028,0.956-8.944,1.407c-1.501,0.232-2.979,0.578-4.489,0.765c-0.837,0.103-1.852-0.167-2.577,0.181
				C458.509,207.931,458.5,207.969,458.5,207.999L458.5,207.999z"/>
		</g>
	</g>
	<g>
		<g>
			<path d="M458.566,207.412c4.225-0.698,8.352-1.775,12.6-2.4c0.362-0.053,0.355-0.82-0.02-0.828
				c-4.137-0.078-8.768,1.092-12.672,2.417C458.186,206.698,458.231,207.468,458.566,207.412L458.566,207.412z"/>
		</g>
	</g>
	<g>
		<g>
			<path d="M470.281,205.486c1.091,0.556,2.493,0.509,3.688,0.58c0.384,0.022,0.396-0.838,0.059-0.923
				c-1.182-0.296-2.405-0.359-3.594-0.634C469.932,204.395,469.921,205.303,470.281,205.486L470.281,205.486z"/>
		</g>
	</g>
	<g>
		<g>
			<path d="M471.163,205.573c1.68-4.317,1.455-8.855,1.622-13.395c0.218-5.878-0.317-11.571,0.509-17.449
				c0.078-0.555-0.571-0.957-0.674-0.264c-1.526,10.307,1.371,20.693-1.869,30.758C470.653,205.527,470.99,206.016,471.163,205.573
				L471.163,205.573z"/>
		</g>
	</g>
	<g>
		<g>
			<path d="M464.969,175.322c-0.02,0.082-0.039,0.164-0.06,0.246c-0.143-0.159-0.286-0.319-0.43-0.479
				c-0.682,4.818-0.551,9.802-0.821,14.658c-0.158,2.847-0.348,5.693-0.579,8.535c-0.176,2.158-0.613,4.499-0.183,6.632
				c0.056,0.271,0.408,0.441,0.5,0.087c0.528-2.047,0.402-4.267,0.587-6.365c0.205-2.321,0.359-4.646,0.484-6.973
				c0.292-5.438,0.822-11.03,0.573-16.473c-0.031-0.682-0.713-0.37-0.524,0.231c0.016,0.05,0.031,0.101,0.048,0.151
				c0.033,0.108,0.161,0.181,0.254,0.095c0.104-0.097,0.109-0.099,0.177-0.216C465.018,175.411,465.014,175.346,464.969,175.322
				L464.969,175.322z"/>
		</g>
	</g>
	<g>
		<g>
			<path d="M494.369,203.858c5.003,0.325,10.456-1.209,15.268-2.475c0.29-0.077,0.237-0.818-0.09-0.789
				c-5.135,0.461-9.992,2.2-15.201,2.341C493.933,202.947,493.96,203.832,494.369,203.858L494.369,203.858z"/>
		</g>
	</g>
	<g>
		<g>
			<path d="M495.368,201.843c3.435-0.271,6.84-0.649,10.199-1.416c0.376-0.086,0.339-0.934-0.021-0.859
				c-3.388,0.705-6.911,0.563-10.276,1.402C494.945,201.051,495.007,201.871,495.368,201.843L495.368,201.843z"/>
		</g>
	</g>
	<g>
		<g>
			<path d="M505.096,200.587c0.656,0.25,1.381,0.303,2.074,0.393c0.658,0.085,1.429,0.234,2.07,0.026
				c0.292-0.094,0.253-0.727-0.02-0.82c-0.563-0.192-1.224-0.152-1.814-0.197c-0.748-0.057-1.51-0.231-2.26-0.193
				C504.804,199.813,504.817,200.48,505.096,200.587L505.096,200.587z"/>
		</g>
	</g>
	<g>
		<g>
			<path d="M505.999,200.203c1.556-4.201,1.132-9.076,1.758-13.472c0.718-5.04,1.093-10.054,1.006-15.143
				c-0.014-0.764-0.798-0.733-0.811,0.02c-0.079,4.658-0.332,9.222-0.913,13.849c-0.595,4.737-0.316,9.717-1.524,14.336
				C505.424,200.139,505.801,200.737,505.999,200.203L505.999,200.203z"/>
		</g>
	</g>
	<g>
		<g>
			<path d="M500.49,171.804c0.313,4.663-0.765,9.127-1.188,13.757c-0.442,4.844-0.352,9.899-1.411,14.654
				c-0.172,0.771,0.722,1.303,0.934,0.365c1.221-5.389,1.096-11.144,1.549-16.639c0.324-3.942,1.985-8.478,0.609-12.354
				C500.84,171.187,500.47,171.5,500.49,171.804L500.49,171.804z"/>
		</g>
	</g>
	<g>
		<g>
			<path d="M124.082,203.078c1.993,0.412,3.931,0.99,5.8,1.8c0.434,0.188,0.535-0.794,0.149-0.961c-1.869-0.81-3.807-1.387-5.8-1.8
				C123.751,202.018,123.681,202.995,124.082,203.078L124.082,203.078z"/>
		</g>
	</g>
	<g>
		<g>
			<path d="M123.882,199.878c1.813,0.74,3.878,0.618,5.6,1.601c0.396,0.225,0.513-0.754,0.149-0.961
				c-1.722-0.982-3.786-0.86-5.6-1.6C123.591,198.737,123.494,199.719,123.882,199.878L123.882,199.878z"/>
		</g>
	</g>
	<g>
		<g>
			<path d="M129.431,201.805c0,0.668,0,1.334,0,2c0,0.613,0.651,0.592,0.651-0.016c0-0.666,0-1.333,0-2
				C130.083,201.178,129.431,201.197,129.431,201.805L129.431,201.805z"/>
		</g>
	</g>
	<g>
		<g>
			<path d="M130.569,205.094c8.079-0.507,16.094-1.713,24.173-2.219c3.811-0.238,7.622-0.135,11.428-0.483
				c4.141-0.38,8.236-1.146,12.354-1.703c3.875-0.525,7.826-0.444,11.728-0.571c4.144-0.134,8.26-0.652,12.365-1.208
				c7.807-1.058,15.559-1.845,23.426-2.284c8.142-0.455,16.239-1.474,24.36-2.181c8.052-0.701,16.134-0.972,24.17-1.869
				c8.021-0.895,15.904-2.128,23.981-2.57c8.086-0.442,16.146-0.807,24.209-1.595c4.491-0.439,8.981-0.889,13.468-1.364
				c4.065-0.431,8.126-0.613,12.188-1.02c7.766-0.777,15.529-2.065,23.35-2.134c0.441-0.004,0.419-0.996-0.024-0.992
				c-6.908,0.061-13.897,0.949-20.744,1.82c-3.527,0.449-7.053,0.437-10.581,0.797c-3.958,0.404-7.909,0.904-11.869,1.311
				c-8.073,0.83-16.132,1.532-24.24,1.903c-8.033,0.368-16.064,0.792-24.015,2.058c-7.987,1.272-16.062,1.684-24.122,2.224
				c-8.118,0.543-16.196,1.512-24.302,2.204c-7.854,0.67-15.716,0.886-23.542,1.911c-8.026,1.05-15.88,1.913-23.977,2.155
				c-4.539,0.136-8.967,0.892-13.452,1.534c-4.433,0.636-8.808,0.811-13.275,0.932c-9.063,0.246-18.041,1.785-27.083,2.352
				C130.1,204.129,130.131,205.121,130.569,205.094L130.569,205.094z"/>
		</g>
	</g>
	<g>
		<g>
			<path d="M129.72,201.318c8.082-0.468,16.102-1.636,24.183-2.103c3.812-0.22,7.624-0.099,11.431-0.43
				c4.143-0.36,8.241-1.105,12.362-1.644c3.878-0.507,7.828-0.407,11.73-0.515c4.144-0.115,8.263-0.613,12.37-1.15
				c7.812-1.021,15.567-1.771,23.437-2.172c8.144-0.417,16.246-1.396,24.371-2.064c8.016-0.659,16.051-1.015,24.057-1.806
				c8.105-0.801,16.288-0.8,24.365-1.807c7.871-0.981,15.768-1.317,23.664-2.047c4.307-0.398,8.609-0.845,12.916-1.241
				c4.069-0.375,8.112-0.646,12.182-0.966c8.081-0.636,16.106-2.074,24.233-2.105c0.44-0.002,0.419-0.994-0.024-0.992
				c-6.908,0.027-13.901,0.883-20.751,1.722c-3.529,0.432-7.056,0.403-10.584,0.746c-3.774,0.367-7.542,0.83-11.317,1.2
				c-7.896,0.773-15.802,1.213-23.703,1.885c-3.829,0.325-7.616,1.005-11.448,1.304c-4.252,0.333-8.525,0.304-12.78,0.599
				c-8.032,0.557-16.042,1.492-24.083,2.029c-8.11,0.542-16.187,1.41-24.285,2.087c-7.857,0.657-15.736,0.802-23.57,1.756
				c-8.02,0.977-15.875,1.971-23.965,2.137c-8.98,0.185-17.743,2.233-26.746,2.342c-9.391,0.113-18.699,1.702-28.065,2.244
				C129.251,200.352,129.281,201.344,129.72,201.318L129.72,201.318z"/>
		</g>
	</g>
	<g>
		<g>
			<path d="M123.969,199.693c16.356-1.354,32.68-3.104,49.035-4.489c16.082-1.363,32.177-2.598,48.278-3.713
				c32.388-2.243,64.748-4.846,97.067-7.894c5.148-0.486,10.309-0.933,15.444-1.528c2.55-0.296,5.055-0.461,7.624-0.418
				c2.488,0.042,4.944-0.459,7.418-0.357c0.436,0.018,0.422-0.974-0.024-0.992c-1.85-0.076-3.661,0.284-5.507,0.36
				c-1.916,0.079-3.831-0.058-5.748,0.039c-4.098,0.206-8.34,0.647-12.399,1.232c-7.75,1.117-15.711,1.51-23.514,2.159
				c-16.307,1.354-32.592,2.926-48.911,4.159c-32.406,2.447-64.809,4.734-97.192,7.475c-10.541,0.892-21.052,2.103-31.595,2.976
				C123.5,198.738,123.534,199.729,123.969,199.693L123.969,199.693z"/>
		</g>
	</g>
	<g>
		<g>
			<path d="M123.424,192.077c-0.8,0.911-0.868,1.829-0.247,2.876c0.334,0.564,1.02,0.636,1.59,0.664
				c2.13,0.104,4.487-0.405,6.627-0.547c8.085-0.536,16.14-1.372,24.239-1.706c8.193-0.337,16.37-0.511,24.535-1.331
				c8.172-0.821,16.32-1.783,24.507-2.459c33.023-2.726,66.131-4.368,99.174-6.816c10.138-0.751,20.26-1.843,30.374-2.867
				c6.113-0.619,12.24-0.85,18.346-1.591c0.331-0.04,0.374-0.521,0.267-0.765c-0.536-1.219-1.61-1.93-2.805-2.411
				c-0.436-0.176-0.527,0.788-0.147,0.945c0.978,0.405,1.952,0.969,2.394,1.988c0.089-0.255,0.178-0.51,0.267-0.765
				c-3.973,0.455-7.912,0.656-11.901,0.81c-3.644,0.141-7.314,0.795-10.945,1.151c-4.001,0.392-8.003,0.767-12.005,1.151
				c-16.501,1.584-33.043,2.662-49.582,3.772c-16.532,1.109-33.057,2.32-49.583,3.497c-8.257,0.588-16.512,1.232-24.749,2.062
				c-8.126,0.818-16.214,1.937-24.378,2.334c-7.546,0.367-15.102,0.407-22.641,0.939c-3.863,0.273-7.701,0.746-11.571,0.93
				c-1.908,0.091-3.816,0.21-5.722,0.352c-0.948,0.071-1.895,0.167-2.841,0.262c-0.241,0.024-5.173,0.807-2.938-1.834
				C123.88,192.492,123.688,191.778,123.424,192.077L123.424,192.077z"/>
		</g>
	</g>
	<g>
		<g>
			<path d="M371.825,183.916c0.613-1.126,0.779-2.099,0.706-3.376c-0.013-0.216-0.109-0.55-0.382-0.551
				c-3.445-0.018-6.785-0.569-10.146-1.295c-2.81-0.607-5.742-1.523-8.622-1.627c-0.367-0.013-0.353,0.75-0.055,0.854
				c3.255,1.129,6.845,1.749,10.228,2.394c1.473,0.281,2.957,0.496,4.447,0.665c1.786,0.202,4.668-0.448,3.34,2.396
				C371.197,183.679,371.579,184.368,371.825,183.916L371.825,183.916z"/>
		</g>
	</g>
	<g>
		<g>
			<path d="M353.4,177.878c6.993-0.563,13.968-1.619,20.944-2.381c7.373-0.805,14.806-1.215,22.202-1.764
				c14.359-1.065,28.691-2.444,43.054-3.478c30.054-2.162,60.205-3.483,90.158-6.803c0.049-0.005,0.046-0.112-0.002-0.109
				c-14.76,0.784-29.442,2.434-44.198,3.314c-14.992,0.895-29.998,1.761-44.982,2.777c-14.379,0.975-28.765,2.137-43.109,3.499
				c-7.381,0.701-14.771,1.232-22.165,1.771c-7.351,0.536-14.593,1.729-21.92,2.417C353.042,177.152,353.067,177.905,353.4,177.878
				L353.4,177.878z"/>
		</g>
	</g>
	<g>
		<g>
			<path d="M403.558,172.429c0.333,0.001,0.667,0.007,1,0c0.028,0,0.026-0.062-0.002-0.063c-0.333-0.007-0.667-0.001-1,0
				C403.528,172.366,403.529,172.429,403.558,172.429L403.558,172.429z"/>
		</g>
	</g>
	<g>
		<g>
			<path d="M357.792,179.037c7.198-0.604,14.348-1.8,21.54-2.507c7.709-0.759,15.444-1.299,23.168-1.895
				c14.969-1.154,29.906-2.728,44.89-3.732c15.053-1.01,30.09-2.308,45.148-3.195c7.454-0.439,14.83-1.296,22.259-2
				c3.744-0.355,7.518-0.396,11.241-0.951c1.018-0.151,3.841,0.534,4.351-0.565c0.018-0.037-0.029-0.119-0.058-0.065
				c-0.381,0.735-2.84,0.227-3.471,0.257c-1.786,0.085-3.572,0.363-5.363,0.46c-3.533,0.19-7.047,0.438-10.563,0.843
				c-7.423,0.854-14.837,1.326-22.29,1.79c-14.734,0.917-29.478,1.85-44.204,2.875c-14.317,0.997-28.655,2.177-42.933,3.616
				c-7.389,0.745-14.789,1.296-22.193,1.861c-7.225,0.551-14.34,1.748-21.541,2.45C357.435,178.312,357.459,179.064,357.792,179.037
				L357.792,179.037z"/>
		</g>
	</g>
	<g>
		<g>
			<path d="M349.166,172.557c12.571-1.103,25.098-2.613,37.696-3.427c6.255-0.404,12.515-0.719,18.775-1.031
				c6.017-0.299,12.223-0.282,18.129-1.562c0.293-0.063,0.278-0.727-0.018-0.68c-12.135,1.935-24.658,1.618-36.907,2.442
				c-6.294,0.424-12.546,1.164-18.822,1.771c-6.291,0.608-12.593,1.02-18.871,1.768
				C348.828,171.876,348.849,172.584,349.166,172.557L349.166,172.557z"/>
		</g>
	</g>
	<g>
		<g>
			<path d="M423.513,166.52c1.99,1.922,5.175,1.945,7.769,2.059c3.513,0.155,6.985-0.028,10.481,0.46
				c0.193,0.027,0.207-0.435,0.03-0.477c-2.676-0.642-5.473-0.484-8.205-0.47c-1.539,0.008-3.068-0.03-4.591-0.267
				c-1.936-0.301-3.567-1.08-5.419-1.564C423.441,166.226,423.447,166.456,423.513,166.52L423.513,166.52z"/>
		</g>
	</g>
	<g>
		<g>
			<path d="M441.463,168.811c1.337,0.062,2.541-0.443,3.852-0.693c1.83-0.349,3.717-0.37,5.572-0.417
				c3.502-0.089,6.959-0.681,10.461-0.71c2.961-0.024,5.787-0.416,8.742-0.675c3.362-0.295,6.719-0.387,10.087-0.632
				c6.699-0.486,13.426-0.724,20.119-1.375c6.433-0.626,13.483,0.144,19.669-2.073c0.027-0.01,0.023-0.08-0.009-0.077
				c-3.2,0.323-6.496,0.804-9.68,1.271c-3.271,0.479-6.684,0.104-9.988,0.525c-6.656,0.849-13.458,0.446-20.119,1.43
				c-3.025,0.447-6.127-0.004-9.187,0.439c-2.826,0.41-5.871,1.11-8.717,1.062c-3.507-0.06-6.955,0.351-10.457,0.37
				c-1.867,0.01-3.724-0.022-5.589,0.101c-1.629,0.107-3.163,0.734-4.769,0.963C441.234,168.349,441.24,168.8,441.463,168.811
				L441.463,168.811z"/>
		</g>
	</g>
	<g>
		<g>
			<path d="M518.857,162.599c1.945,0.549,4.105,0.442,6.119,0.607c1.203,0.099,2.41,0.148,3.617,0.162
				c1.192,0.013,1.63-0.215,1.644,1.116c0.001,0.101,0.127,0.204,0.169,0.065c0.271-0.888,0.689-1.736-0.501-1.881
				c-1.647-0.2-3.291-0.284-4.95-0.311c-1.991-0.031-4.106-0.352-6.073-0.136C518.729,162.239,518.714,162.558,518.857,162.599
				L518.857,162.599z"/>
		</g>
	</g>
	<g>
		<g>
			<path d="M530.159,163.225c0.011,0.001,0.021,0.002,0.032,0.004c0.027,0.003,0.026-0.066-0.002-0.063
				c-0.011,0.001-0.021,0.002-0.032,0.004C530.133,163.173,530.135,163.222,530.159,163.225L530.159,163.225z"/>
		</g>
	</g>
	<g>
		<g>
			<path d="M527.226,162.914c0.045,0,0.043-0.1-0.002-0.1S527.181,162.914,527.226,162.914L527.226,162.914z"/>
		</g>
	</g>
	<g>
		<g>
			<path d="M442.014,168.487c0.366-1.684,0.515-3.445,0.637-5.163c0.023-0.324-0.016-0.801-0.378-0.942
				c-0.334-0.13-0.587,0.273-0.61,0.556c-0.146,1.73-0.411,3.415-0.762,5.114C440.71,168.972,441.771,169.609,442.014,168.487
				L442.014,168.487z"/>
		</g>
	</g>
	<g>
		<g>
			<path d="M424.202,160.86c-0.536,0.539-0.509,1.581-0.61,2.293c-0.136,0.96-0.253,1.957-0.16,2.926
				c0.104,1.085,1.229,1.096,1.184-0.029c-0.037-0.93,0.037-1.832,0.155-2.754c0.091-0.706,0.324-1.554,0.002-2.224
				C424.671,160.86,424.424,160.637,424.202,160.86L424.202,160.86z"/>
		</g>
	</g>
	<g>
		<g>
			<path d="M519.995,158.763c-0.263,0.688-0.153,1.522-0.132,2.244c0.019,0.624-0.016,1.354,0.471,1.815
				c0.379,0.359,0.695-0.191,0.767-0.501c-0.037,0.156-0.025,0.11,0.035-0.137c0.032-0.205,0.018-0.396-0.008-0.6
				c-0.03-0.245-0.04-0.52-0.054-0.776c-0.035-0.681,0.035-1.423-0.229-2.065C520.652,158.271,520.172,158.303,519.995,158.763
				L519.995,158.763z"/>
		</g>
	</g>
	<g>
		<g>
			<path d="M348.841,178.161c-0.383,0.92-0.585,1.674-0.393,2.666c0.056,0.29,0.314,0.71,0.67,0.551
				c0.357-0.16,0.412-0.676,0.348-1.008c0.001,0.008-0.021,0.341,0.045-0.008c0.029-0.151,0.055-0.303,0.079-0.456
				c0.061-0.392,0.06-0.79,0.069-1.186c-0.291,0.007-0.581,0.014-0.871,0.021c-0.017,0.536,0.069,1.066,0.084,1.601
				c0.008,0.277,0.151,0.736,0.503,0.727c0.348-0.008,0.48-0.474,0.467-0.75c-0.016-0.331,0.033-0.661,0.032-0.992
				c-0.001-0.372-0.117-0.658-0.228-1.001c-0.05-0.156-0.224-0.307-0.394-0.231c-0.238,0.107-0.254,0.432-0.224,0.65
				c0.046,0.34,0.056,0.891-0.101,1.223c0.305,0.117,0.609,0.234,0.914,0.351c-0.007-0.542-0.138-1.063-0.184-1.599
				c-0.021-0.248-0.125-0.661-0.452-0.653c-0.322,0.008-0.417,0.425-0.419,0.674c-0.006,0.571-0.242,1.101-0.35,1.653
				c-0.064,0.33,0.044,0.852,0.397,0.989c0.373,0.146,0.585-0.295,0.642-0.583c0.052-0.266,0.016-0.532,0.053-0.797
				c0.046-0.331,0.221-0.66,0.343-0.969c0.149-0.375,0.082-0.94-0.239-1.213C349.297,177.536,348.974,177.842,348.841,178.161
				L348.841,178.161z"/>
		</g>
	</g>
	<g>
		<g>
			<path d="M348.92,178.074c-0.274,0.798-0.309,1.756-0.009,2.548c0.213,0.563,0.685,0.109,0.681-0.301
				c-0.006-0.671-0.052-1.325-0.025-1.999C349.583,177.916,349.094,177.567,348.92,178.074L348.92,178.074z"/>
		</g>
	</g>
	<g>
		<g>
			<path d="M127.874,269.052c3.215,5.847,9.149,8.769,14.747,11.903c7.221,4.043,13.148,10.113,19.708,15.083
				c0.636,0.482,0.936-0.916,0.455-1.279c-6.209-4.705-11.864-10.101-18.434-14.325c-5.765-3.706-12.302-6.047-15.911-12.29
				C128.056,267.479,127.63,268.609,127.874,269.052L127.874,269.052z"/>
		</g>
	</g>
	<g>
		<g>
			<path d="M164.145,295.302c-0.255-0.049-0.51-0.098-0.765-0.147c0.088,0.221,0.177,0.44,0.265,0.661
				c0.021-0.087,4.022-0.661,4.418-0.742c1.562-0.321,3.122-0.647,4.681-0.978c3.432-0.725,6.853-1.505,10.275-2.274
				c6.852-1.542,13.698-3.104,20.563-4.59c13.902-3.007,27.917-5.245,41.924-7.684c14.055-2.448,28.074-5.117,42.005-8.199
				c13.824-3.058,27.409-7.04,41.462-8.98c0.509-0.07,0.465-1.204-0.028-1.141c-14.072,1.813-27.648,5.807-41.464,8.887
				c-13.924,3.104-27.945,5.756-42.006,8.162c-14.014,2.397-28.021,4.597-41.926,7.589c-13.442,2.892-26.939,5.752-40.3,8.998
				c-0.151,0.037-0.224,0.269-0.246,0.396c-0.017,0.095-0.033,0.19-0.049,0.285c-0.033,0.189,0.02,0.608,0.265,0.66
				c0.458,0.099,0.461,0.101,0.953,0.09C164.615,296.284,164.583,295.339,164.145,295.302L164.145,295.302z"/>
		</g>
	</g>
	<g>
		<g>
			<path d="M328.493,262.605c14.716,6.279,30.403,10.634,45.643,15.445c15.46,4.88,30.977,9.716,46.299,15.011
				c7.472,2.581,14.626,5.838,22.272,7.903c7.49,2.023,14.64,4.41,21.795,7.422c7.224,3.04,14.349,6,21.897,8.158
				c7.571,2.164,15.084,4.266,22.455,7.06c7.206,2.73,14.318,5.699,21.728,7.852c3.535,1.027,6.966,2.026,10.38,3.428
				c1.524,0.627,3.042,1.252,4.607,1.774c2.088,0.697,4.297,0.687,6.441,1.12c0.514,0.104,0.59-0.938,0.16-1.029
				c-3.57-0.758-6.871-1.309-10.269-2.709c-3.667-1.511-7.325-2.676-11.14-3.745c-7.419-2.08-14.541-5.108-21.726-7.859
				c-7.356-2.817-14.893-4.935-22.438-7.165c-7.533-2.226-14.669-5.212-21.875-8.304c-7.121-3.055-14.322-5.362-21.813-7.314
				c-7.657-1.996-14.821-5.25-22.281-7.842c-15.309-5.318-30.85-10.095-46.308-14.959c-7.655-2.409-15.313-4.809-22.943-7.297
				c-7.621-2.484-15.131-5.313-22.759-7.766C328.222,261.661,328.174,262.47,328.493,262.605L328.493,262.605z"/>
		</g>
	</g>
	<g>
		<g>
			<path d="M517.169,227.498c6.581-1.261,13.007-3.199,19.52-4.76c7.445-1.783,15.047-2.865,22.596-4.101
				c14.023-2.296,28.378-4.333,42.147-7.879c0.273-0.071,0.21-0.795-0.083-0.735c-13.975,2.838-28.017,5.339-42.088,7.653
				c-7.267,1.195-14.574,2.198-21.767,3.799c-6.848,1.523-13.628,3.358-20.437,5.043
				C516.692,226.608,516.774,227.573,517.169,227.498L517.169,227.498z"/>
		</g>
	</g>
	<g>
		<g>
			<path d="M517.966,199.564c13.848,2.113,27.769,4.09,41.659,5.915c13.839,1.818,27.741,3.071,41.542,5.171
				c0.361,0.055,0.386-0.81,0.058-0.892c-6.327-1.594-12.953-2.086-19.426-2.783c-7.083-0.764-14.167-1.525-21.237-2.405
				c-14.164-1.764-28.352-4.949-42.613-5.74C517.618,198.812,517.649,199.516,517.966,199.564L517.966,199.564z"/>
		</g>
	</g>
	<g>
		<g>
			<path d="M517.072,227.535c7.574,1.674,15.258,2.567,22.934,3.628c8.229,1.138,16.356,2.735,24.48,4.457
				c15.877,3.364,31.879,5.91,47.791,9.094c15.697,3.142,31.402,6.268,47.192,8.915c16.324,2.736,32.924,4.319,49.131,7.702
				c2.625,0.548,5.275,0.961,7.912,1.451c1.437,0.267,2.853,0.631,4.286,0.911c1.093,0.215,2.265,0.068,3.318,0.46
				c0.645,0.239,0.777-1.169,0.215-1.377c-1.304-0.482-2.815-0.358-4.177-0.624c-1.482-0.29-2.943-0.662-4.433-0.927
				c-3.939-0.702-7.859-1.508-11.802-2.195c-7.978-1.391-16.033-2.442-24.048-3.599c-16.487-2.379-32.848-5.241-49.229-8.263
				c-15.782-2.911-31.489-6.187-47.333-8.763c-8.153-1.325-16.211-3.297-24.303-4.95c-7.575-1.547-15.183-2.727-22.841-3.783
				c-6.332-0.875-12.673-1.893-18.928-3.212C516.704,226.348,516.624,227.436,517.072,227.535L517.072,227.535z"/>
		</g>
	</g>
	<g>
		<g>
			<path d="M552.456,337.875c14.341-6.573,28.588-13.363,43.19-19.345c15.069-6.173,30.186-12.207,45.218-18.477
				c7.146-2.98,14.364-5.787,21.477-8.847c7.284-3.134,14.445-6.537,21.701-9.734c7.175-3.161,14.481-6.015,21.721-9.021
				c3.474-1.442,6.927-2.933,10.351-4.49c1.715-0.78,3.414-1.592,5.106-2.418c0.983-0.48,2.239-0.856,3.111-1.521
				c0.324-0.246,0.082-1.177-0.35-0.848c-1.035,0.788-2.641,1.262-3.805,1.83c-1.692,0.826-3.402,1.615-5.116,2.395
				c-3.423,1.558-6.89,3.02-10.362,4.461c-7.242,3.008-14.539,5.88-21.716,9.042c-6.968,3.069-13.85,6.328-20.839,9.353
				c-7.404,3.205-14.933,6.119-22.379,9.225c-14.732,6.145-29.531,12.085-44.314,18.1c-14.615,5.946-28.853,12.772-43.191,19.344
				C551.878,337.097,552.022,338.073,552.456,337.875L552.456,337.875z"/>
		</g>
	</g>
	<g>
		<g>
			<path d="M413.188,271.607c22.062-6.016,44.21-11.19,66.557-16.017c10.735-2.317,21.43-4.831,32.024-7.727
				c11.302-3.089,22.465-6.76,34.133-8.237c0.445-0.057,0.404-1.046-0.023-0.992c-10.756,1.362-21.117,4.554-31.515,7.5
				c-11.439,3.242-23.026,5.944-34.644,8.465c-11.04,2.395-22.109,4.614-33.093,7.271c-11.264,2.724-22.456,5.736-33.637,8.784
				C412.596,270.763,412.715,271.736,413.188,271.607L413.188,271.607z"/>
		</g>
	</g>
	<g>
		<g>
			<path d="M521.456,304.674c22.079-7.489,44.172-14.926,66.283-22.32c22.103-7.392,44.038-15.171,65.983-23.013
				c0.392-0.141,0.26-1.116-0.197-0.953c-21.945,7.843-43.88,15.622-65.983,23.014c-22.11,7.394-44.204,14.831-66.283,22.319
				C520.866,303.854,520.995,304.83,521.456,304.674L521.456,304.674z"/>
		</g>
	</g>
	<g>
		<g>
			<path d="M413.549,272.145c9.186,3.289,18.292,6.796,27.543,9.899c9.416,3.159,19.134,5.21,28.546,8.356
				c8.793,2.938,17.386,6.445,26.354,8.842c4.648,1.242,9.473,1.761,14.067,3.193c3.36,1.049,6.61,3.043,10.243,2.791
				c0.445-0.031,0.413-1.022-0.023-0.992c-3.798,0.264-7.412-1.93-10.943-3.031c-4.569-1.426-9.433-1.916-14.064-3.154
				c-8.958-2.394-17.555-5.959-26.338-8.895c-9.124-3.05-18.553-5.036-27.692-8.07c-9.26-3.075-18.358-6.611-27.542-9.9
				C413.246,271.021,413.155,272.003,413.549,272.145L413.549,272.145z"/>
		</g>
	</g>
	<g>
		<g>
			<path d="M545.811,239.112c8.198,3.381,17.329,5.062,26.003,6.736c8.842,1.708,17.757,3.042,26.642,4.498
				c9.011,1.477,18.02,2.956,27.022,4.482c4.605,0.781,9.097,1.875,13.622,3.015c1.646,0.415,3.278,0.748,4.958,0.979
				c1.782,0.246,5.667,0.036,6.917,1.509c0.441,0.52,0.809-0.443,0.5-0.803c-1.505-1.751-6.118-1.679-8.234-1.969
				c-4.659-0.64-9.168-2.271-13.801-3.109c-4.238-0.768-8.5-1.396-12.761-2.022c-5.128-0.755-10.181-2.023-15.279-2.953
				c-9.143-1.667-18.344-2.994-27.481-4.691c-9.477-1.761-18.616-4.378-27.947-6.701
				C545.457,237.955,545.405,238.945,545.811,239.112L545.811,239.112z"/>
		</g>
	</g>
	<g>
		<g>
			<path d="M425.1,272.07c10.184-2.011,20.042-5.408,30.107-7.904c10.729-2.661,21.62-4.599,32.363-7.207
				c10.48-2.545,20.757-5.861,31.254-8.36c5.338-1.271,10.706-2.506,16.063-3.688c2.248-0.496,4.432-1.143,6.644-1.783
				c1.336-0.387,2.681-0.673,4.062-0.825c0.709-0.079,1.442,0.25,1.976-0.286c0.215-0.217,0.263-1.071-0.209-1.024
				c-0.139,0.026-0.277,0.023-0.416-0.007c-0.473-0.049-0.459,1.031,0.027,1.094c0.138,0.034,0.276,0.039,0.416,0.018
				c-0.069-0.342-0.139-0.684-0.208-1.024c-0.401,0.388-2.658,0.319-3.256,0.421c-0.877,0.149-1.743,0.398-2.6,0.63
				c-2.452,0.663-4.857,1.377-7.343,1.921c-5.1,1.116-10.19,2.303-15.28,3.463c-10.233,2.332-20.225,5.589-30.409,8.103
				c-10.73,2.649-21.583,4.787-32.327,7.382c-10.386,2.509-20.568,5.771-30.954,8.284C424.712,271.346,424.781,272.133,425.1,272.07
				L425.1,272.07z"/>
		</g>
	</g>
	<g>
		<g>
			<path d="M517.903,299.902c9.54-1.87,18.621-5.594,27.637-9.131c9.816-3.851,19.815-6.994,29.766-10.459
				c9.892-3.443,19.663-7.227,29.604-10.527c10.051-3.337,20.521-5.646,30.392-9.479c0.306-0.118,0.204-0.882-0.154-0.75
				c-9.664,3.55-19.804,5.55-29.562,8.824c-9.929,3.332-19.729,7.028-29.612,10.485c-9.67,3.383-19.414,6.433-28.958,10.173
				c-9.611,3.767-19.189,7.388-29.225,9.877C517.423,299.006,517.507,299.979,517.903,299.902L517.903,299.902z"/>
		</g>
	</g>
	<g>
		<g>
			<path d="M426.661,271.256c-0.451,0.126-0.346,0.062-0.651,0.314c0.14,0.155,0.278,0.311,0.418,0.466
				c0.045-0.431,0.063-0.746,0.072-1.181c0.012-0.643-0.672-0.617-0.684,0.018c-0.001,0.089-0.003,0.178-0.004,0.267
				c-0.002,0.187,0.083,0.422,0.267,0.501c7.166,3.076,14.953,4.592,22.268,7.327c7.556,2.826,15.252,4.377,23.04,6.384
				c7.905,2.037,15.71,4.448,23.628,6.435c7.755,1.945,15.261,3.94,22.244,7.98c0.525,0.304,0.665-0.991,0.197-1.271
				c-6.649-3.977-13.83-6.048-21.304-7.858c-8.24-1.995-16.359-4.448-24.563-6.583c-7.777-2.024-15.484-3.539-23.049-6.328
				c-3.658-1.35-7.341-2.577-11.099-3.617c-2.022-0.561-4.047-1.11-6.059-1.711c-0.576-0.172-4.881-1.431-4.883-1.542
				c-0.012-0.64-0.695-0.622-0.684,0.018c-0.008,0.356,0.014,0.711,0.065,1.064c0.03,0.288,0.379,0.646,0.521,0.2
				c0.12-0.212,0.239-0.424,0.359-0.636C426.819,271.427,426.784,271.222,426.661,271.256L426.661,271.256z"/>
		</g>
	</g>
	<g>
		<g>
			<path d="M547.142,242.064c6.733,2.932,14.251,4.659,21.349,6.482c7.506,1.928,15.107,3.395,22.709,4.888
				c7.024,1.381,14.091,2.533,21.147,3.735c7.435,1.267,14.794,2.743,22.358,2.811c0.516,0.004,0.493-1.159-0.029-1.164
				c-7.191-0.063-14.322-1.758-21.406-2.842c-7.634-1.168-15.236-2.574-22.835-3.951c-7.301-1.324-14.559-2.905-21.748-4.74
				c-7.193-1.836-14.186-4.52-21.379-6.285C546.771,240.866,546.728,241.884,547.142,242.064L547.142,242.064z"/>
		</g>
	</g>
</g>
</svg>
